<svg width="152" height="55" viewBox="0 0 152 55" fill="none" xmlns="http://www.w3.org/2000/svg">
<g id="Group">
<g id="g32_00000088112809955021555800000007066004220668170882_">
<path id="path34_00000065758304692845441190000008141412581766954373_" d="M12.4922 53.3501C6.56219 53.3501 1.74219 48.5201 1.74219 42.6001V12.0601C1.74219 6.13006 6.56219 1.31006 12.4922 1.31006H140.232C146.162 1.31006 151.002 6.14006 151.002 12.0601V53.3601H12.4922V53.3501Z" fill="#00985E"/>
</g>
<g id="g36_00000119813874234134235610000004313498151164592548_">
<path id="path38_00000026147521501028596110000005333363436335928706_" d="M140.227 0.426025H12.4772C6.05717 0.426025 0.847168 5.65598 0.847168 12.066V42.606C0.847168 49.026 6.07717 54.236 12.4772 54.236H151.847V12.056C151.867 5.63597 146.647 0.426025 140.227 0.426025ZM140.227 2.17603C145.677 2.17603 150.107 6.58597 150.107 12.056V52.486H12.4772C7.02717 52.486 2.59717 48.066 2.59717 42.606V12.066C2.59717 6.59598 7.01717 2.18597 12.4772 2.18597H140.217" fill="white"/>
</g>
<g id="g40_00000109021339049538637790000015537805611126455681_">
<path id="path42_00000154425577886112899870000010410772838408952238_" fill-rule="evenodd" clip-rule="evenodd" d="M122.359 19.46H127.619L135.519 29.96H130.259L134.189 35.2199H127.619L123.689 29.96H126.299L122.369 24.7H126.299L122.359 19.46Z" fill="white"/>
</g>
<g id="g44_00000077286514876844539850000017321981888501862331_">
<path id="path46_00000173880020733723739210000015058763853357507747_" fill-rule="evenodd" clip-rule="evenodd" d="M122.359 19.46H117.099L109.199 29.96H114.459L110.529 35.2199H117.099L121.029 29.96H118.389L122.359 24.7199H118.429L122.359 19.46Z" fill="white"/>
</g>
<g id="g48_00000029736405985218172570000014914319037229235903_">
<path id="path50_00000034771841240957286360000017338588416325110186_" fill-rule="evenodd" clip-rule="evenodd" d="M22.8632 20.532H17.2632V29.462C17.2632 33.782 20.4832 35.462 24.5532 35.462C28.9732 35.462 31.9032 33.892 31.9032 29.132V20.522H26.3932V29.232C26.3932 30.662 26.0732 31.662 24.6132 31.662C23.2532 31.662 22.8632 30.632 22.8632 29.232V20.532Z" fill="white"/>
</g>
<g id="g52_00000040544747255430001020000012934315183028128422_">
<path id="path54_00000024695139106398378970000002891515775632212368_" fill-rule="evenodd" clip-rule="evenodd" d="M33.2842 35.2181H38.5742V28.8881C38.5742 28.2881 38.5742 27.428 39.5442 27.428C40.4842 27.428 40.4842 28.2881 40.4842 28.8881V35.2181H45.7742V27.6081C45.7742 25.4681 44.7342 23.998 41.9042 23.998C40.4042 23.998 38.9742 24.5981 38.3442 26.1381H38.2942V24.248H33.2942V35.2181H33.2842Z" fill="white"/>
</g>
<path id="path56_00000078038538751524768820000008170247932925971893_" fill-rule="evenodd" clip-rule="evenodd" d="M52.8603 19.46H47.5703V23.0999H52.8603V19.46ZM47.5803 35.21H52.8703V24.2499H47.5803V35.21Z" fill="white"/>
<g id="g58_00000178918302317593751600000011759503959721712556_">
<path id="path60_00000151526127473029489120000005209129965816352944_" fill-rule="evenodd" clip-rule="evenodd" d="M54.604 35.2181H59.894V28.8881C59.894 28.2881 59.894 27.428 60.864 27.428C61.754 27.428 61.754 28.2881 61.754 28.8881V35.2181H67.074V28.8881C67.074 28.2881 67.074 27.428 67.964 27.428C68.934 27.428 68.934 28.2881 68.934 28.8881V35.2181H74.224V28.6481C74.224 26.5081 74.224 23.998 70.374 23.998C69.044 23.998 67.234 24.5981 66.874 25.8881H66.844C66.404 24.5581 64.884 23.998 63.414 23.998C61.734 23.998 60.304 24.5981 59.664 26.1381H59.634V24.248H54.634V35.2081H54.604V35.2181Z" fill="white"/>
</g>
<g id="g62_00000164472916942614984570000000531945056998654337_">
<path id="path64_00000146478017662125426160000002836901561546051759_" fill-rule="evenodd" clip-rule="evenodd" d="M87.78 31.0081V30.358C87.78 26.648 86.28 23.998 82.03 23.998C77.61 23.998 75.25 25.8581 75.25 29.5281C75.25 33.3181 77.61 35.4581 82.03 35.4581C83.89 35.4581 85.56 35.248 86.95 34.808V31.998C86.13 32.418 84.82 32.678 83.39 32.678C81.82 32.678 80.57 32.358 80.46 30.998H87.78V31.0081ZM80.45 28.678C80.37 27.818 80.63 26.538 81.88 26.538C83.06 26.538 83.19 27.848 83.19 28.678H80.45Z" fill="white"/>
</g>
<g id="g66_00000146474921455291750500000007453254584033139630_">
<path id="path68_00000006685432531417065520000011821380701058932099_" fill-rule="evenodd" clip-rule="evenodd" d="M97.0382 29.6719C97.0382 30.7019 96.8582 31.9219 95.7582 31.9219C94.5782 31.9219 94.3982 30.712 94.3982 29.562C94.3982 28.412 94.5782 27.2819 95.6782 27.2819C96.8782 27.2819 97.0382 28.4319 97.0382 29.6719ZM102.188 35.2119V19.4619H96.8982V25.6719H96.8482C96.0282 24.4919 94.9582 23.9919 93.5282 23.9919C90.2382 23.9919 88.8882 26.592 88.8882 29.562C88.8882 32.702 90.1682 35.4519 93.7082 35.4519C95.4182 35.4519 96.4882 34.8519 97.2082 33.2019H97.2382V35.2119H102.188Z" fill="white"/>
</g>
<path id="path70_00000129902784130607948800000004592169317899595143_" fill-rule="evenodd" clip-rule="evenodd" d="M106.58 16.8301H105.7V37.8401H106.58V16.8301Z" fill="white"/>
</g>
</svg>
