<svg width="159" height="81" viewBox="0 0 159 81" fill="none" xmlns="http://www.w3.org/2000/svg">
<g id="Group">
<path id="Vector" fill-rule="evenodd" clip-rule="evenodd" d="M0.129883 70.58V80.0499H7.38989C9.12989 80.0499 13.4499 79.8499 13.4499 75.3599C13.4499 72.9299 12.6899 71.2299 9.77991 70.8699C10.1299 70.7999 10.4499 70.71 10.7399 70.59L0.129883 70.58ZM16.4399 70.58L13.5399 80.0499H17.1899L18.0999 76.83H22.0099L22.8999 80.0499H26.7699L23.9199 70.58H20.4299L21.4199 74.6099H18.6199L19.5299 70.58H16.4399ZM27.6299 70.58V80.0499H30.7599V70.58H27.6299ZM30.8499 70.58L34.7999 80.0499H39.1499V70.58H36.0099V74.9199L34.1899 70.58H30.8499ZM40.6899 70.58C40.6499 71.29 40.6399 72.04 40.6399 72.83C40.6399 77.19 40.5098 80.4799 46.1599 80.4799C49.3699 80.4799 51.2399 79.2099 51.2399 75.2499H47.5899C47.5399 76.4199 47.5199 78.2599 46.1599 78.2599C44.6099 78.2599 44.3799 77.32 44.3799 72.83C44.3799 71.95 44.3899 71.21 44.4199 70.58H40.6899ZM52.3599 70.58C52.3199 71.31 52.3199 72.07 52.3199 72.83C52.3199 76.7 52.3198 80.4799 57.9698 80.4799C63.6199 80.4799 63.6199 76.71 63.6199 72.83C63.6199 72.07 63.6199 71.31 63.5799 70.59L59.7899 70.58C59.8299 71.23 59.8399 71.97 59.8399 72.83C59.8399 76.62 59.6298 78.2599 57.9698 78.2599C56.3198 78.2599 56.0999 76.62 56.0999 72.83C56.0999 71.97 56.1099 71.22 56.1499 70.58H52.3599ZM67.6299 70.58V80.0499H73.1499C78.9299 80.0499 78.5499 74.9299 78.5499 72.6899C78.5499 71.9299 78.5298 71.23 78.4698 70.58L74.7799 70.5699C74.8299 71.2399 74.8299 71.9999 74.8299 72.7899C74.8299 76.4399 74.4799 77.83 72.7198 77.83H71.3199V70.5699H67.6299V70.58ZM79.9698 70.58C79.9298 71.32 79.9299 72.0899 79.9299 72.8599C79.9299 76.7199 79.9299 80.4799 85.5799 80.4799C91.2299 80.4799 91.2299 76.7199 91.2299 72.8599C91.2299 72.0799 91.2299 71.32 91.1899 70.58L87.3999 70.5699C87.4399 71.2199 87.4499 71.9799 87.4499 72.8499C87.4499 76.6299 87.2399 78.2599 85.5799 78.2599C83.9299 78.2599 83.7099 76.6299 83.7099 72.8499C83.7099 71.9799 83.7199 71.2199 83.7599 70.5699H79.9698V70.58ZM95.0399 70.58V80.0599H102.29C104.03 80.0599 108.35 79.8599 108.35 75.3699C108.35 72.9399 107.59 71.2399 104.68 70.8799C105.04 70.8099 105.37 70.71 105.68 70.59L95.0399 70.58ZM109.58 70.58V80.0499H113.36V70.58H109.58ZM116.56 70.58C116.39 71.5 115.84 72.1699 115.03 72.1099L113.98 72.1299L117.42 80.0499H123.47L124.38 76.83H128.29L129.18 80.0499H137.97C140.4 80.0499 142.86 79.7299 142.86 75.9699C142.86 72.4399 138.71 72.0699 137.15 70.5699L132.15 70.58C133.15 73.88 138.97 73.98 138.97 76.2C138.97 77.18 138.44 77.8499 137.36 77.8499H132.37L130.19 70.58H126.7L127.7 74.6099H124.9L125.81 70.58H122.7L120.17 78.7499L117.6 73.0699C119.09 72.7899 119.87 71.99 120.13 70.59L116.56 70.58ZM144.25 70.58V80.0499H147.94V70.58H144.25ZM150.11 70.58V80.0499H158.11V77.8499H153.8V70.5699H150.11V70.58ZM5.47986 72.2899H6.04987C8.21987 72.2899 8.8999 73.2499 8.8999 74.8199C8.8999 77.2999 6.84987 77.33 5.92987 77.33H4.5799V72.3199L5.47986 72.2899ZM100.64 72.3199H101.56C103.33 72.3199 103.88 73.2799 103.88 74.8499C103.88 77.3299 102.21 77.3599 101.46 77.3599H99.5099V72.3499L100.64 72.3199Z" fill="#0059A2"/>
<path id="Vector_2" fill-rule="evenodd" clip-rule="evenodd" d="M10.7301 70.58C12.3201 69.95 13.1101 68.6299 13.1101 66.9099C13.1101 63.1299 10.5301 62.3199 7.40015 62.3199H0.120117V70.58H10.7301ZM19.5401 70.58L19.9701 68.6699L20.4401 70.58H23.9301L22.4201 65.5399H17.9901L16.4401 70.58H19.5401ZM30.7601 70.58V70.3699L30.8501 70.58H34.2001L32.0901 65.5399H27.6301V70.58H30.7601ZM39.1501 70.58V65.5399H36.0101V70.58H39.1501ZM44.4201 70.58C44.5501 67.91 44.9902 67.4 46.0901 67.4C47.0602 67.4 47.5001 68.1399 47.5001 70.1099H51.1201C51.2601 66.9299 49.4901 65.1899 46.0001 65.1899C41.7401 65.1899 40.8701 67.4 40.6901 70.59L44.4201 70.58ZM56.1501 70.58C56.2701 68.38 56.6901 67.4 57.9701 67.4C59.2501 67.4 59.6701 68.38 59.7901 70.58H63.5801C63.4101 67.6 62.5201 65.1799 57.9701 65.1799C53.4201 65.1799 52.5401 67.6 52.3601 70.58H56.1501ZM71.3101 70.58V67.7599H72.8101C74.2401 67.7599 74.6502 68.94 74.7802 70.58H78.4701C78.1801 67.34 76.9801 65.4899 73.2802 65.4899H67.6301V70.58H71.3101ZM83.7601 70.58C83.8901 68.42 84.3101 67.45 85.5801 67.45C86.8501 67.45 87.2701 68.41 87.4001 70.58H91.1901C91.0101 67.63 90.1101 65.2499 85.5801 65.2499C81.0501 65.2499 80.1501 67.64 79.9701 70.59L83.7601 70.58ZM105.69 70.58C107.25 69.94 108.04 68.6199 108.04 66.9199C108.04 63.1399 105.46 62.33 102.33 62.33H95.0501V70.59H105.69V70.58ZM113.36 70.58V67.77H114.61C115.68 67.77 116.6 68.5499 116.6 69.9799C116.6 70.1899 116.58 70.4 116.55 70.59L120.14 70.58C120.21 70.21 120.25 69.8 120.25 69.34C120.26 66.87 118.78 65.5399 116.49 65.5399H109.57V70.58H113.36ZM125.83 70.58L126.26 68.6799L126.73 70.58H130.22L128.71 65.5399H124.28L122.72 70.58H125.83ZM137.17 70.58C136.81 70.23 136.59 69.8299 136.59 69.3099C136.59 68.3099 137.2 67.7599 138.24 67.7599H141.61V65.53H136.88C132.99 65.53 132.03 67.2799 132.03 69.5599C132.03 69.9299 132.08 70.27 132.18 70.58H137.17ZM147.94 70.58V65.5399H144.25V70.58H147.94ZM153.8 70.58V65.5399H150.11V70.58H153.8ZM4.59015 69.58V65.0499H6.19012C7.64012 65.0499 8.6701 66.0099 8.6701 67.3099C8.6701 69.0299 7.36011 69.5699 6.4201 69.5699H4.9201L4.59015 69.58ZM99.5201 69.6099V65.08H101.68C102.86 65.08 103.7 66.04 103.7 67.34C103.7 69.06 102.63 69.5999 101.86 69.5999H100.64L99.5201 69.6099Z" fill="#0059A2"/>
<path id="Vector_3" fill-rule="evenodd" clip-rule="evenodd" d="M94.9303 7.46991L100.38 11.2L105.71 7.63995L105.72 0.319946L94.9303 7.46991ZM63.4303 46.2599L58.0003 42.5599L52.5703 46.27V53.4399L63.4303 46.2599ZM84.0503 14.5999L89.3703 18.1799L64.0903 35.28L79.7103 45.8199L87.0503 40.8499L81.3503 37.08L94.5003 28.27L105.5 35.5699L78.9103 53.2899L52.6803 35.6899L84.0503 14.5999ZM74.0903 38.8599L68.7703 35.28L94.0503 18.1799L78.4303 7.63995L71.0903 12.6099L76.7903 16.3799L63.6403 25.1899L52.6403 17.89L79.1303 0.169922L105.43 17.8499L74.0903 38.8599Z" fill="#0059A2"/>
</g>
</svg>
