<svg width="226" height="61" viewBox="0 0 226 61" fill="none" xmlns="http://www.w3.org/2000/svg">
<path d="M47.8901 57.5598L47.3501 59.1898H46.6602L48.4202 54.0198H49.2301L51.0001 59.1898H50.2902L49.7401 57.5598H47.8901ZM49.5901 57.0398L49.0801 55.5498C48.9601 55.2098 48.8902 54.8998 48.8102 54.6098H48.7902C48.7102 54.9198 48.6302 55.2298 48.5302 55.5498L48.0201 57.0498H49.5901V57.0398Z" fill="white"/>
<path d="M52.3501 54.0198V57.0798C52.3501 58.2398 52.8602 58.7298 53.5602 58.7298C54.3302 58.7298 54.8201 58.2198 54.8201 57.0798V54.0198H55.5001V57.0398C55.5001 58.6298 54.6602 59.2798 53.5402 59.2798C52.4802 59.2798 51.6802 58.6698 51.6802 57.0698V54.0198H52.3501Z" fill="white"/>
<path d="M56.8003 54.0797C57.2103 54.0197 57.6902 53.9697 58.2202 53.9697C59.1802 53.9697 59.8602 54.1897 60.3202 54.6197C60.7802 55.0397 61.0503 55.6397 61.0503 56.4797C61.0503 57.3197 60.7903 58.0197 60.3103 58.4897C59.8303 58.9697 59.0303 59.2297 58.0203 59.2297C57.5403 59.2297 57.1403 59.2097 56.8103 59.1697V54.0797H56.8003ZM57.4702 58.6597C57.6402 58.6897 57.8803 58.6997 58.1503 58.6997C59.5803 58.6997 60.3502 57.8997 60.3502 56.4997C60.3602 55.2797 59.6702 54.4997 58.2502 54.4997C57.9002 54.4997 57.6402 54.5297 57.4702 54.5697V58.6597Z" fill="white"/>
<path d="M62.7202 54.0198V59.1898H62.0503V54.0198H62.7202Z" fill="white"/>
<path d="M65.0203 54.5797H63.4502V54.0098H67.2803V54.5797H65.7002V59.1898H65.0203V54.5797Z" fill="white"/>
<path d="M72.21 56.5499C72.21 58.3299 71.1301 59.2799 69.8101 59.2799C68.4401 59.2799 67.48 58.2199 67.48 56.6499C67.48 55.0099 68.5 53.9299 69.88 53.9299C71.3 53.9299 72.21 55.0099 72.21 56.5499ZM68.2 56.6299C68.2 57.7399 68.8 58.7299 69.85 58.7299C70.91 58.7299 71.51 57.7599 71.51 56.5799C71.51 55.5499 70.97 54.4799 69.86 54.4799C68.75 54.4799 68.2 55.4999 68.2 56.6299Z" fill="white"/>
<path d="M73.2302 54.0797C73.5702 54.0097 74.0503 53.9697 74.5103 53.9697C75.2203 53.9697 75.6803 54.0997 76.0103 54.3897C76.2703 54.6197 76.4203 54.9697 76.4203 55.3697C76.4203 56.0497 75.9902 56.5097 75.4402 56.6897V56.7097C75.8402 56.8497 76.0802 57.2197 76.2002 57.7497C76.3702 58.4697 76.4902 58.9697 76.6002 59.1697H75.9103C75.8303 59.0197 75.7103 58.5797 75.5603 57.9297C75.4103 57.2197 75.1303 56.9497 74.5203 56.9197H73.8903V59.1597H73.2202V54.0797H73.2302ZM73.9003 56.4397H74.5802C75.2902 56.4397 75.7502 56.0497 75.7502 55.4597C75.7502 54.7897 75.2703 54.4997 74.5603 54.4897C74.2403 54.4897 74.0103 54.5197 73.9003 54.5497V56.4397Z" fill="white"/>
<path d="M78.17 54.0198V59.1898H77.5V54.0198H78.17Z" fill="white"/>
<path d="M80.3198 57.5598L79.7799 59.1898H79.0898L80.8499 54.0198H81.6599L83.4299 59.1898H82.7198L82.1699 57.5598H80.3198ZM82.0199 57.0398L81.5099 55.5498C81.3899 55.2098 81.3199 54.8998 81.2399 54.6098H81.2198C81.1398 54.9198 81.0598 55.2298 80.9598 55.5498L80.4498 57.0498H82.0199V57.0398Z" fill="white"/>
<path d="M83.8701 60.1297C84.0401 59.6797 84.2501 58.8597 84.3301 58.2997L85.0801 58.2197C84.9001 58.8697 84.5701 59.7197 84.3501 60.0897L83.8701 60.1297Z" fill="white"/>
<path d="M87.8401 54.08C88.1601 54.03 88.5801 53.98 89.1201 53.98C89.7801 53.98 90.2601 54.13 90.5701 54.41C90.8501 54.66 91.0201 55.03 91.0201 55.49C91.0201 55.96 90.8801 56.33 90.6201 56.6C90.2701 56.98 89.6902 57.17 89.0402 57.17C88.8402 57.17 88.6601 57.16 88.5001 57.12V59.19H87.8301V54.08H87.8401ZM88.5101 56.57C88.6601 56.61 88.8402 56.62 89.0602 56.62C89.8702 56.62 90.3601 56.23 90.3601 55.51C90.3601 54.83 89.8801 54.5 89.1401 54.5C88.8501 54.5 88.6301 54.52 88.5101 54.55V56.57Z" fill="white"/>
<path d="M94.7504 56.7598H92.7404V58.6298H94.9803V59.1898H92.0703V54.0198H94.8604V54.5798H92.7303V56.2198H94.7404V56.7598H94.7504Z" fill="white"/>
<path d="M95.99 54.0797C96.33 54.0097 96.81 53.9697 97.27 53.9697C97.98 53.9697 98.44 54.0997 98.77 54.3897C99.03 54.6197 99.1801 54.9697 99.1801 55.3697C99.1801 56.0497 98.75 56.5097 98.2 56.6897V56.7097C98.6 56.8497 98.84 57.2197 98.96 57.7497C99.13 58.4697 99.25 58.9697 99.36 59.1697H98.67C98.59 59.0197 98.4699 58.5797 98.3199 57.9297C98.1699 57.2197 97.89 56.9497 97.28 56.9197H96.65V59.1597H95.98V54.0797H95.99ZM96.66 56.4397H97.34C98.05 56.4397 98.51 56.0497 98.51 55.4597C98.51 54.7897 98.0299 54.4997 97.3199 54.4897C96.9999 54.4897 96.77 54.5197 96.66 54.5497V56.4397Z" fill="white"/>
<path d="M101.73 52.8398L100.75 53.7398H100.2L100.91 52.8398H101.73ZM100.94 54.0198V59.1898H100.27V54.0198H100.94Z" fill="white"/>
<path d="M105.87 59.0199C105.62 59.1399 105.13 59.2699 104.5 59.2699C103.04 59.2699 101.94 58.3499 101.94 56.6499C101.94 55.0299 103.04 53.9299 104.64 53.9299C105.28 53.9299 105.69 54.0699 105.87 54.1599L105.71 54.7099C105.46 54.5899 105.1 54.4999 104.67 54.4999C103.46 54.4999 102.65 55.2799 102.65 56.6299C102.65 57.8999 103.38 58.7099 104.64 58.7099C105.05 58.7099 105.46 58.6299 105.73 58.4999L105.87 59.0199Z" fill="white"/>
<path d="M107.52 54.0198V59.1898H106.85V54.0198H107.52Z" fill="white"/>
<path d="M109.67 57.5598L109.13 59.1898H108.44L110.2 54.0198H111.01L112.78 59.1898H112.07L111.52 57.5598H109.67ZM111.36 57.0398L110.85 55.5498C110.73 55.2098 110.66 54.8998 110.58 54.6098H110.56C110.48 54.9198 110.4 55.2298 110.3 55.5498L109.79 57.0498H111.36V57.0398Z" fill="white"/>
<path d="M118.13 56.7598H116.12V58.6298H118.36V59.1898H115.45V54.0198H118.24V54.5798H116.11V56.2198H118.12V56.7598H118.13Z" fill="white"/>
<path d="M121.98 57.5598L121.44 59.1898H120.75L122.51 54.0198H123.32L125.09 59.1898H124.38L123.83 57.5598H121.98ZM123.68 57.0398L123.17 55.5498C123.06 55.2098 122.98 54.8998 122.9 54.6098H122.88C122.8 54.9198 122.72 55.2298 122.62 55.5498L122.11 57.0498H123.68V57.0398Z" fill="white"/>
<path d="M125.9 58.3799C126.2 58.5599 126.64 58.7199 127.1 58.7199C127.78 58.7199 128.18 58.3599 128.18 57.8399C128.18 57.3599 127.9 57.0799 127.2 56.8099C126.36 56.5099 125.83 56.0699 125.83 55.3399C125.83 54.5299 126.5 53.9299 127.5 53.9299C128.03 53.9299 128.41 54.0499 128.64 54.1799L128.46 54.7299C128.29 54.6399 127.95 54.4799 127.48 54.4799C126.77 54.4799 126.5 54.8999 126.5 55.2599C126.5 55.7399 126.81 55.9799 127.53 56.2599C128.41 56.5999 128.85 57.0199 128.85 57.7799C128.85 58.5799 128.26 59.2699 127.04 59.2699C126.54 59.2699 126 59.1199 125.72 58.9399L125.9 58.3799Z" fill="white"/>
<path d="M129.83 58.3799C130.13 58.5599 130.57 58.7199 131.03 58.7199C131.71 58.7199 132.11 58.3599 132.11 57.8399C132.11 57.3599 131.83 57.0799 131.13 56.8099C130.29 56.5099 129.76 56.0699 129.76 55.3399C129.76 54.5299 130.43 53.9299 131.43 53.9299C131.96 53.9299 132.34 54.0499 132.57 54.1799L132.39 54.7299C132.22 54.6399 131.88 54.4799 131.41 54.4799C130.7 54.4799 130.43 54.8999 130.43 55.2599C130.43 55.7399 130.74 55.9799 131.46 56.2599C132.34 56.5999 132.78 57.0199 132.78 57.7799C132.78 58.5799 132.19 59.2699 130.97 59.2699C130.47 59.2699 129.93 59.1199 129.65 58.9399L129.83 58.3799Z" fill="white"/>
<path d="M134.52 54.0198V59.1898H133.85V54.0198H134.52Z" fill="white"/>
<path d="M135.74 58.3799C136.04 58.5599 136.48 58.7199 136.94 58.7199C137.62 58.7199 138.02 58.3599 138.02 57.8399C138.02 57.3599 137.74 57.0799 137.04 56.8099C136.2 56.5099 135.67 56.0699 135.67 55.3399C135.67 54.5299 136.34 53.9299 137.34 53.9299C137.87 53.9299 138.25 54.0499 138.48 54.1799L138.3 54.7299C138.13 54.6399 137.79 54.4799 137.32 54.4799C136.61 54.4799 136.34 54.8999 136.34 55.2599C136.34 55.7399 136.65 55.9799 137.37 56.2599C138.25 56.5999 138.69 57.0199 138.69 57.7799C138.69 58.5799 138.1 59.2699 136.88 59.2699C136.38 59.2699 135.84 59.1199 135.56 58.9399L135.74 58.3799Z" fill="white"/>
<path d="M140.75 54.5797H139.18V54.0098H143.01V54.5797H141.43V59.1898H140.75V54.5797Z" fill="white"/>
<path d="M146.4 56.7599H144.39V58.6299H146.63V59.1899H143.72V54.0199H146.51V54.5799H144.38V56.2199H146.39V56.7599H146.4ZM145.37 52.8599L146.18 53.7399H145.61L145.12 53.2099H145.1L144.62 53.7399H144.07L144.86 52.8599H145.37Z" fill="white"/>
<path d="M147.65 59.1898V54.0197H148.38L150.04 56.6398C150.42 57.2498 150.72 57.7898 150.97 58.3198L150.99 58.3098C150.93 57.6198 150.91 56.9897 150.91 56.1797V54.0098H151.54V59.1797H150.86L149.22 56.5497C148.86 55.9697 148.51 55.3798 148.25 54.8198L148.23 54.8297C148.27 55.4797 148.28 56.0997 148.28 56.9597V59.1698H147.65V59.1898Z" fill="white"/>
<path d="M156.46 59.0199C156.21 59.1399 155.72 59.2699 155.09 59.2699C153.63 59.2699 152.53 58.3499 152.53 56.6499C152.53 55.0299 153.63 53.9299 155.23 53.9299C155.88 53.9299 156.28 54.0699 156.46 54.1599L156.3 54.7099C156.05 54.5899 155.69 54.4999 155.26 54.4999C154.05 54.4999 153.24 55.2799 153.24 56.6299C153.24 57.8999 153.97 58.7099 155.23 58.7099C155.64 58.7099 156.05 58.6299 156.32 58.4999L156.46 59.0199Z" fill="white"/>
<path d="M158.11 54.0198V59.1898H157.44V54.0198H158.11Z" fill="white"/>
<path d="M160.26 57.5598L159.72 59.1898H159.03L160.79 54.0198H161.6L163.37 59.1898H162.66L162.11 57.5598H160.26ZM161.96 57.0398L161.45 55.5498C161.33 55.2098 161.26 54.8998 161.18 54.6098H161.16C161.08 54.9198 161 55.2298 160.9 55.5498L160.39 57.0498H161.96V57.0398Z" fill="white"/>
<path d="M166.71 54.5797H165.14V54.0098H168.97V54.5797H167.39V59.1898H166.71V54.5797Z" fill="white"/>
<path d="M172.37 56.7599H170.36V58.6299H172.6V59.1898H169.69V54.0198H172.48V54.5798H170.35V56.2198H172.36V56.7599H172.37ZM172.24 52.8398L171.26 53.7398H170.71L171.42 52.8398H172.24Z" fill="white"/>
<path d="M177.23 59.0199C176.98 59.1399 176.49 59.2699 175.86 59.2699C174.4 59.2699 173.3 58.3499 173.3 56.6499C173.3 55.0299 174.4 53.9299 176 53.9299C176.65 53.9299 177.05 54.0699 177.23 54.1599L177.07 54.7099C176.82 54.5899 176.46 54.4999 176.03 54.4999C174.82 54.4999 174.01 55.2799 174.01 56.6299C174.01 57.8999 174.74 58.7099 176 58.7099C176.41 58.7099 176.82 58.6299 177.09 58.4999L177.23 59.0199Z" fill="white"/>
<path d="M178.21 59.1898V54.0197H178.94L180.6 56.6398C180.98 57.2498 181.28 57.7898 181.53 58.3198L181.55 58.3098C181.49 57.6198 181.47 56.9897 181.47 56.1797V54.0098H182.1V59.1797H181.42L179.78 56.5497C179.42 55.9697 179.07 55.3798 178.81 54.8198L178.79 54.8297C178.83 55.4797 178.84 56.0997 178.84 56.9597V59.1698H178.21V59.1898Z" fill="white"/>
<path d="M184.08 54.0198V59.1898H183.41V54.0198H184.08Z" fill="white"/>
<path d="M189.01 59.0199C188.76 59.1399 188.27 59.2699 187.64 59.2699C186.18 59.2699 185.08 58.3499 185.08 56.6499C185.08 55.0299 186.18 53.9299 187.78 53.9299C188.43 53.9299 188.83 54.0699 189.01 54.1599L188.85 54.7099C188.6 54.5899 188.24 54.4999 187.81 54.4999C186.6 54.4999 185.79 55.2799 185.79 56.6299C185.79 57.8999 186.52 58.7099 187.78 58.7099C188.19 58.7099 188.6 58.6299 188.87 58.4999L189.01 59.0199Z" fill="white"/>
<path d="M190.86 57.5598L190.32 59.1898H189.63L191.39 54.0198H192.2L193.97 59.1898H193.26L192.71 57.5598H190.86ZM192.55 57.0398L192.04 55.5498C191.93 55.2098 191.85 54.8998 191.77 54.6098H191.75C191.67 54.9198 191.59 55.2298 191.49 55.5498L190.98 57.0498H192.55V57.0398Z" fill="white"/>
<path d="M66.03 7.93994L67.03 13.4899H66.51C65.99 11.2099 64.03 8.45995 59.12 8.45995H52.45V19.4799H59.08C61.84 19.4799 63.11 17.9999 63.27 16.4499H63.79V22.9999H63.27C63.15 21.5999 61.55 20.0099 59.08 20.0099H52.45V35.3799H59.12C64.03 35.3799 65.99 32.6299 66.51 30.3499H67.03L66.03 35.8999H47.98V35.6999C49.14 35.6199 49.9 34.8999 49.9 33.2199V10.6199C49.9 8.93993 49.14 8.25994 47.98 8.13994V7.93994H66.03Z" fill="white"/>
<path d="M75.41 7.93994V8.13994C74.37 8.45994 74.81 10.8999 75.97 13.7299L83.88 32.8599L91.95 13.7299C93.15 10.8999 93.51 8.45994 92.51 8.13994V7.93994H96.78V8.13994C94.82 9.21994 93.43 11.7299 92.59 13.7299L83.21 35.8899H82.61L73.23 13.7299C72.35 11.7299 70.95 9.21994 69 8.13994V7.93994H75.41Z" fill="white"/>
<path d="M99.3301 35.6899C100.45 35.6099 101.13 34.9699 101.21 33.5299V10.3299C101.13 8.84994 100.45 8.20994 99.3301 8.12994V7.92993H105.64V8.12994C104.48 8.20994 103.76 8.92994 103.76 10.6099V33.2099C103.76 34.8899 104.48 35.6099 105.64 35.6899V35.8899H103.76H99.3301V35.6899Z" fill="white"/>
<path d="M117.06 7.93994C127 7.93994 133.31 13.3699 133.31 21.6399C133.31 30.0999 126.64 35.8899 117.06 35.8899H108.83V35.6899C109.99 35.6099 110.75 34.8899 110.75 33.2099V10.6099C110.75 8.92994 109.99 8.24994 108.83 8.12994V7.92993H117.06V7.93994ZM116.46 35.2899C125.12 35.1699 130.75 29.3799 130.75 21.5899C130.75 13.5999 124.88 8.48994 116.46 8.48994H113.31V35.3199L116.46 35.2899Z" fill="white"/>
<path d="M147.38 8.29993C146.88 8.59993 146.63 9.19992 146.63 10.0899V33.8499C146.63 35.2199 146.39 36.5099 145.92 37.7299C145.45 38.9499 144.82 40.0699 144.03 41.0999C143.24 42.1199 142.32 43.0499 141.27 43.8799C140.22 44.7099 139.12 45.3999 137.96 45.9499C137.88 45.9999 137.82 45.9899 137.76 45.9099C137.71 45.8299 137.71 45.7499 137.76 45.6699C138.71 44.6999 139.51 43.7799 140.16 42.9299C140.82 42.0799 141.36 41.1799 141.8 40.2499C142.23 39.3199 142.55 38.3099 142.75 37.2199C142.95 36.1299 143.05 34.8799 143.05 33.4599V10.1299C143.05 9.75993 143 9.45992 142.91 9.21992C142.82 8.97992 142.69 8.78992 142.54 8.64992C142.38 8.50992 142.2 8.38993 141.99 8.29993C141.78 8.20993 141.57 8.11992 141.36 8.03992C141.15 7.98992 140.93 7.91992 140.71 7.83992C140.49 7.75992 140.23 7.62992 139.94 7.44992C139.86 7.39992 139.83 7.33993 139.86 7.26993C139.89 7.19993 139.94 7.16992 140.02 7.16992C140.6 7.21992 141.16 7.25993 141.69 7.26993C142.23 7.27993 142.76 7.28992 143.29 7.28992H144.91H148.02H149.24L149.28 7.60992C148.51 7.76992 147.88 7.99993 147.38 8.29993Z" fill="white"/>
<path d="M178.82 8.58005C178.32 9.20005 178.07 9.89004 178.07 10.65V24.95C178.07 26.58 177.81 28.12 177.28 29.56C176.75 31 176.01 32.27 175.03 33.36C174.06 34.45 172.88 35.31 171.5 35.94C170.12 36.57 168.59 36.89 166.91 36.89C165.65 36.89 164.41 36.69 163.21 36.28C162 35.87 160.89 35.31 159.86 34.59C158.84 33.87 157.94 33.01 157.16 32.01C156.38 31.01 155.8 29.91 155.41 28.7C155.33 28.44 155.26 27.9801 155.19 27.3201C155.12 26.6601 155.08 25.88 155.05 24.98C155.02 24.07 155 23.08 154.99 22C154.98 20.92 154.97 19.85 154.97 18.7701C154.97 17.7701 154.98 16.79 154.99 15.81C155 14.84 155.01 13.9701 155.01 13.2101C155.01 12.6801 155.02 12.2101 155.03 11.7701C155.04 11.3401 155.05 10.98 155.05 10.69C155.05 9.61005 154.77 8.86004 154.2 8.42004C153.63 7.99004 152.87 7.65004 151.89 7.42004C151.81 7.39004 151.78 7.34005 151.79 7.24005C151.8 7.15005 151.85 7.10005 151.93 7.10005C152.98 7.15005 154.02 7.19005 155.06 7.22005C156.1 7.25005 157.13 7.26004 158.15 7.26004C158.68 7.26004 159.19 7.26004 159.69 7.26004C160.22 7.26004 160.74 7.25005 161.27 7.22005C161.35 7.22005 161.4 7.26004 161.43 7.34004C161.46 7.42004 161.43 7.48004 161.35 7.54004C161.06 7.70004 160.77 7.88004 160.46 8.09004C160.16 8.30004 159.87 8.54005 159.59 8.82005C159.31 9.10005 159.09 9.39005 158.92 9.69005C158.75 9.99005 158.66 10.31 158.66 10.66C158.66 12.05 158.66 13.42 158.66 14.76C158.66 16.1 158.65 17.4501 158.62 18.8201C158.59 20.1901 158.58 21.55 158.58 22.92C158.58 24.29 158.58 25.65 158.58 27.0201C158.58 28.23 158.79 29.33 159.21 30.31C159.63 31.29 160.21 32.1401 160.96 32.8501C161.71 33.5601 162.6 34.1001 163.62 34.4901C164.64 34.8701 165.75 35.06 166.93 35.06C168.14 35.06 169.25 34.86 170.28 34.47C171.3 34.08 172.19 33.52 172.94 32.8C173.69 32.08 174.28 31.22 174.71 30.22C175.14 29.22 175.36 28.11 175.36 26.87C175.36 25.53 175.36 24.1901 175.36 22.8501C175.36 21.4801 175.35 20.13 175.32 18.79C175.29 17.45 175.28 16.1101 175.28 14.7701C175.28 13.43 175.28 12.0801 175.28 10.7101C175.28 9.63005 175.01 8.84005 174.47 8.35005C173.93 7.85005 173.15 7.52005 172.13 7.36005C172.05 7.33005 172.02 7.28004 172.03 7.18004C172.04 7.09004 172.09 7.04004 172.17 7.04004C172.64 7.09004 173.1 7.12004 173.55 7.12004C174.02 7.12004 174.48 7.12004 174.93 7.12004H176.78C177.36 7.12004 177.92 7.13005 178.47 7.14005C179.02 7.15005 179.6 7.16005 180.2 7.16005H180.67L180.71 7.48004C179.96 7.59004 179.32 7.96005 178.82 8.58005Z" fill="white"/>
<path d="M210.6 36.6499C209.96 36.8099 209.29 36.8899 208.61 36.8899C207.59 36.8899 206.64 36.6799 205.77 36.2599C204.9 35.8399 204.1 35.2999 203.37 34.6399C202.63 33.9799 201.95 33.2399 201.32 32.4099C200.69 31.5799 200.1 30.7599 199.55 29.9499C199 29.1399 198.37 28.2799 197.68 27.3899C196.98 26.4999 196.29 25.7599 195.61 25.1799C195.08 24.7299 194.48 24.4599 193.8 24.3699C193.12 24.2799 192.43 24.2299 191.75 24.2299C191.46 24.2299 191.17 24.2299 190.88 24.2299C190.59 24.2299 190.3 24.2399 190.01 24.2699V31.8699C190.01 32.9499 190.33 33.8599 190.98 34.6099C191.62 35.3599 192.47 35.7899 193.52 35.8899V36.2099C192.71 36.1299 191.89 36.0699 191.08 36.0099C190.27 35.9599 189.45 35.9299 188.64 35.9299C187.83 35.9299 187.02 35.9599 186.24 36.0299C185.45 36.0999 184.65 36.1799 183.84 36.2899C183.76 36.3199 183.71 36.2799 183.68 36.1899C183.65 36.0999 183.68 36.0299 183.76 35.9699C184.52 35.6299 185.16 35.0999 185.67 34.3699C186.18 33.6499 186.44 32.8699 186.44 32.0299V10.6699C186.44 9.82992 186.13 9.08993 185.51 8.45993C184.89 7.82993 184.18 7.40992 183.36 7.19992C183.28 7.16992 183.25 7.11992 183.26 7.03992C183.27 6.95992 183.32 6.91992 183.4 6.91992H184.15C184.54 6.91992 184.94 6.92993 185.33 6.93993C185.72 6.94993 186.1 6.96992 186.47 6.99992C187.26 7.07992 188.05 7.11992 188.83 7.11992C189.67 7.11992 190.52 7.07992 191.39 6.99992C191.84 6.96992 192.26 6.94993 192.67 6.93993C193.08 6.92993 193.5 6.91992 193.95 6.91992C195.05 6.91992 196.13 7.04992 197.18 7.30992C198.23 7.56992 199.17 7.98993 200 8.54993C200.83 9.11993 201.49 9.83993 201.99 10.7399C202.49 11.6299 202.74 12.7199 202.74 14.0099C202.74 14.8499 202.61 15.6799 202.35 16.5099C202.09 17.3399 201.74 18.1299 201.31 18.8899C200.88 19.6499 200.38 20.3699 199.81 21.0399C199.24 21.7099 198.67 22.3199 198.1 22.8699C198.47 23.2899 198.9 23.8399 199.4 24.5199C199.9 25.1999 200.41 25.8999 200.94 26.6099C201.73 27.6899 202.56 28.7899 203.42 29.9199C204.29 31.0499 205.2 32.0599 206.16 32.9499C207.12 33.8399 208.12 34.5499 209.15 35.0599C210.19 35.5699 211.27 35.7599 212.4 35.6299L212.48 35.9499C211.87 36.2699 211.24 36.4999 210.6 36.6499ZM198.62 13.2499C198.34 12.2999 197.94 11.4499 197.4 10.6899C196.86 9.92993 196.2 9.30992 195.41 8.83992C194.62 8.36992 193.7 8.12993 192.65 8.12993C192.2 8.12993 191.76 8.15992 191.33 8.22992C190.9 8.29992 190.47 8.40992 190.05 8.55992V21.9599C190.65 22.0699 191.26 22.1399 191.88 22.1799C192.5 22.2199 193.09 22.2399 193.67 22.2399C195.67 22.2399 197.06 21.6899 197.85 20.5899C198.64 19.4899 199.03 17.9899 199.03 16.0999C199.03 15.1399 198.9 14.1899 198.62 13.2499Z" fill="white"/>
<path d="M223.11 36.22C222.51 36.22 221.9 36.22 221.3 36.22C220.3 36.22 219.3 36.23 218.29 36.24C217.28 36.25 216.27 36.27 215.28 36.3C215.2 36.3 215.16 36.26 215.14 36.18C215.13 36.1 215.16 36.04 215.24 35.98C217.03 35.3 217.92 34 217.92 32.08V9.97C217.92 9.1 217.64 8.5 217.07 8.16C216.5 7.82 215.84 7.60001 215.08 7.49001C215 7.46001 214.96 7.41 214.96 7.33C214.96 7.23 215 7.17 215.08 7.17C216.6 7.33 218.17 7.41 219.77 7.41C220.51 7.41 221.23 7.39001 221.96 7.35001C222.68 7.31001 223.4 7.24 224.11 7.13C224.19 7.1 224.24 7.14 224.27 7.25C224.3 7.36 224.27 7.42 224.19 7.45C223.8 7.53 223.43 7.62 223.11 7.73C222.78 7.84 222.5 7.97 222.26 8.14C222.02 8.31 221.84 8.53 221.71 8.81C221.58 9.09 221.51 9.45999 221.51 9.92999V31.92C221.51 33.26 221.77 34.23 222.3 34.84C222.83 35.44 223.73 35.81 225.02 35.94V36.26C224.37 36.23 223.74 36.22 223.11 36.22Z" fill="white"/>
<path d="M17.9401 48.5299H7.57007V24.6199H17.8801C21.7301 24.6199 24.2101 27.0999 24.4001 29.2799H25.2101V19.0999H24.4001C24.1501 21.5199 22.1601 23.8199 17.8801 23.8199H7.57007V6.67987H17.9401C25.5801 6.67987 28.6202 10.9599 29.4302 14.4999H30.2401L28.6901 5.86987H0.620117V6.17987C2.42012 6.36987 3.6001 7.41988 3.6001 10.0299V45.1799C3.6001 47.7899 2.42012 48.9099 0.620117 49.0299V49.3399H28.6901L30.2401 40.7099H29.4302C28.6202 44.2499 25.5701 48.5299 17.9401 48.5299Z" fill="white"/>
<path d="M8.85025 1.07991C9.26025 1.36991 9.62032 1.56991 9.93032 1.68991C10.2403 1.80991 10.5502 1.91991 10.8402 1.99991C11.1402 2.11991 11.4303 2.2499 11.7303 2.3999C12.0303 2.5399 12.2903 2.72991 12.5103 2.94991C12.7303 3.16991 12.9003 3.4699 13.0303 3.8399C13.0703 3.9499 13.1003 4.05991 13.1303 4.18991H18.3603C18.4903 3.34991 18.8102 2.7499 19.3302 2.3999C20.0402 1.9299 20.9203 1.57991 21.9903 1.32991L21.9303 0.839905H13.5603C12.8203 0.839905 12.0702 0.829906 11.3202 0.809906C10.5602 0.789906 9.78023 0.739912 8.96023 0.659912C8.85023 0.659912 8.78026 0.719906 8.74026 0.809906C8.70026 0.899906 8.74025 0.98991 8.85025 1.07991Z" fill="white"/>
<path d="M11.49 52.0899C10.88 53.5399 10.1101 54.9299 9.18006 56.2599C8.26006 57.5899 7.13006 59.0099 5.80006 60.5299C5.73006 60.6499 5.73006 60.7699 5.80006 60.8999C5.88006 61.0199 5.96997 61.0399 6.07997 60.9599C7.70997 60.0999 9.26 59.0299 10.74 57.7399C12.22 56.4499 13.51 55.0099 14.62 53.4199C15.18 52.6199 15.68 51.7799 16.12 50.8999H11.94C11.8 51.2999 11.65 51.6999 11.49 52.0899Z" fill="white"/>
<path d="M13.2299 41.5199C13.2299 43.6399 13.0998 45.53 12.8398 47.17H17.5898C18.0398 45.56 18.2699 43.8899 18.2699 42.1299V25.9399H13.2198V41.5199H13.2299Z" fill="white"/>
<path d="M18.28 7.8999H13.23V22.2299H18.28V7.8999Z" fill="white"/>
</svg>
