<svg width="96" height="102" viewBox="0 0 96 102" fill="none" xmlns="http://www.w3.org/2000/svg">
<path d="M13.9398 71.8198V84.3398H11.1198V75.5298L7.32977 81.8398L3.53973 75.5298V84.3398H0.719727V71.8198H4.37976L7.31976 76.9199L10.2197 71.8198H13.9398ZM16.3098 84.3501H19.1097V71.8301H16.3098V84.3501ZM20.3497 71.8198V74.4399H23.7397V84.3398H26.5598V74.4399H29.9297V71.8198H20.3497ZM30.9897 84.2002C32.1497 84.4002 33.3898 84.5498 34.6998 84.5498C38.0698 84.5498 39.5997 83.3901 39.5997 80.8901C39.5997 78.5101 37.9198 77.7501 35.8398 76.8101C34.4498 76.1901 33.5397 75.8399 33.5397 75.1499C33.5397 74.4599 33.8898 74.2598 35.5698 74.2598C37.0098 74.2598 38.2897 74.4598 38.9797 74.5098V71.9102C38.2597 71.8102 37.0997 71.6602 35.4897 71.6602C32.3497 71.6602 30.7598 72.5799 30.7598 75.1699C30.7598 77.2699 32.2198 78.09 34.1998 78.98C36.2298 79.92 36.8497 80.04 36.8497 80.96C36.8497 81.75 36.1097 81.9502 34.6697 81.9502C32.9397 81.9502 31.5298 81.7001 30.9598 81.6001V84.2002M41.2798 80.1099C41.2798 83.1499 43.2598 84.5098 46.2498 84.5098C49.2698 84.5098 51.2698 83.1199 51.2698 80.1099V71.8198H48.4498V80.0098C48.4498 81.4498 47.5798 81.9399 46.2498 81.9399C44.9198 81.9399 44.0698 81.4398 44.0698 80.0098V71.8198H41.2498V80.1099M53.6797 84.3501H59.3497C62.1197 84.3501 63.4297 83.0399 63.4297 80.8599C63.4297 78.7599 62.2698 78.1398 61.1298 77.8198C62.0998 77.4498 63.1298 76.8998 63.1298 75.0698C63.1298 72.7898 61.7198 71.8501 59.1498 71.8501H53.6797V84.3501ZM56.4998 76.8999V74.2002H58.7498C59.7898 74.2002 60.2798 74.4702 60.2798 75.4902C60.2798 76.3102 59.8598 76.8999 58.7498 76.8999H56.4998ZM56.4998 81.9902V79.1201H59.0698C60.1098 79.1201 60.5298 79.5198 60.5298 80.5098C60.5298 81.6198 60.0798 82.02 58.9498 82.02H56.4998V81.9902ZM65.1398 84.3701H67.9598V71.8501H65.1398V84.3701ZM69.9897 84.2002C71.1497 84.4002 72.3898 84.5498 73.6998 84.5498C77.0698 84.5498 78.5997 83.3901 78.5997 80.8901C78.5997 78.5101 76.9198 77.7501 74.8398 76.8101C73.4498 76.1901 72.5397 75.8399 72.5397 75.1499C72.5397 74.4599 72.8898 74.2598 74.5698 74.2598C76.0098 74.2598 77.2897 74.4598 77.9797 74.5098V71.9102C77.2597 71.8102 76.0997 71.6602 74.4897 71.6602C71.3497 71.6602 69.7598 72.5799 69.7598 75.1699C69.7598 77.2699 71.2198 78.09 73.1998 78.98C75.2298 79.92 75.8497 80.04 75.8497 80.96C75.8497 81.75 75.1097 81.9502 73.6697 81.9502C71.9397 81.9502 70.5298 81.7001 69.9598 81.6001V84.2002M87.3798 71.8198V76.77H82.9297V71.8198H80.1097V84.3398H82.9097V79.3398H87.3597V84.3398H90.1597V71.8198H87.3798ZM92.4498 84.3701H95.2698V71.8501H92.4498V84.3701ZM23.3698 88.6802L20.4697 93.7798L17.5298 88.6802H13.8898V101.2H16.7098V92.4199L20.4998 98.73L24.2598 92.4199V101.23H27.0798V88.71H23.3698V88.6802ZM29.0098 94.9399C29.0098 99.4199 30.7198 101.37 34.3998 101.37C38.0898 101.37 39.7897 99.4199 39.7897 94.9399C39.7897 90.4599 38.0798 88.5098 34.3998 88.5098C30.7198 88.4998 29.0098 90.4799 29.0098 94.9399ZM36.8998 94.9399C36.8998 97.5099 36.4498 98.8301 34.3998 98.8301C32.3498 98.8301 31.9297 97.5199 31.9297 94.9399C31.9297 92.3899 32.3498 91.0801 34.3998 91.0801C36.4598 91.1001 36.8998 92.3899 36.8998 94.9399ZM43.6597 101.2H46.4797V91.2998H49.8698V88.7002H40.2698V91.2998H43.6597V101.2ZM50.3398 94.9399C50.3398 99.4199 52.0497 101.37 55.7297 101.37C59.4197 101.37 61.1198 99.4199 61.1198 94.9399C61.1198 90.4599 59.4097 88.5098 55.7297 88.5098C52.0497 88.4998 50.3398 90.4799 50.3398 94.9399ZM58.2098 94.9399C58.2098 97.5099 57.7598 98.8301 55.7098 98.8301C53.6598 98.8301 53.2397 97.5199 53.2397 94.9399C53.2397 92.3899 53.6598 91.0801 55.7098 91.0801C57.7598 91.1001 58.2098 92.3899 58.2098 94.9399ZM63.0598 101.22H65.8798V96.7202H67.1198L69.7698 101.22H73.0397L69.9697 96.2998C71.5797 95.8998 72.5397 94.64 72.5397 92.71C72.5397 89.69 70.8298 88.6802 68.1398 88.6802H63.0698V101.22H63.0598ZM65.8798 94.29V91.1001H67.9797C69.2397 91.1001 69.6398 91.74 69.6398 92.71C69.6398 93.65 69.2397 94.29 67.9797 94.29H65.8798ZM74.2197 101.05C75.3797 101.25 76.6198 101.4 77.9297 101.4C81.2998 101.4 82.8298 100.24 82.8298 97.7402C82.8298 95.3602 81.1498 94.6002 79.0698 93.6602C77.6798 93.0402 76.7698 92.7 76.7698 91.98C76.7698 91.29 77.1197 91.1099 78.7997 91.1099C80.2397 91.1099 81.5198 91.2799 82.2098 91.3599V88.7402C81.4898 88.6702 80.3297 88.52 78.7197 88.52C75.5797 88.52 73.9897 89.4098 73.9897 92.0298C73.9897 94.1298 75.4497 94.9498 77.4297 95.8398C79.4597 96.7798 80.0798 96.8998 80.0798 97.8198C80.0798 98.6098 79.3398 98.8101 77.8998 98.8101C76.1698 98.8101 74.7598 98.56 74.1898 98.46V101.06" fill="black"/>
<path d="M35.8096 20.7998L47.8096 41.5898L59.8196 20.7998L47.8096 0.0200195L35.8096 20.7998Z" fill="#D61719"/>
<path d="M71.8196 41.5898H47.8096L59.8196 62.3701H83.8196L71.8196 41.5898Z" fill="#D61719"/>
<path d="M23.8096 41.5898H47.8096L35.8096 62.3701H11.8096L23.8096 41.5898Z" fill="#D61719"/>
</svg>
