<svg width="226" height="61" viewBox="0 0 226 61" fill="none" xmlns="http://www.w3.org/2000/svg">
<path d="M47.8902 57.56L47.3502 59.19H46.6602L48.4202 54.02H49.2302L51.0002 59.19H50.2902L49.7402 57.56H47.8902ZM49.5902 57.04L49.0802 55.55C48.9602 55.21 48.8902 54.9 48.8102 54.61H48.7902C48.7102 54.92 48.6302 55.23 48.5302 55.55L48.0202 57.05H49.5902V57.04Z" fill="#333333"/>
<path d="M52.3502 54.02V57.08C52.3502 58.24 52.8602 58.73 53.5602 58.73C54.3302 58.73 54.8202 58.22 54.8202 57.08V54.02H55.5002V57.04C55.5002 58.63 54.6602 59.28 53.5402 59.28C52.4802 59.28 51.6802 58.67 51.6802 57.07V54.02H52.3502Z" fill="#333333"/>
<path d="M56.8003 54.08C57.2103 54.02 57.6903 53.97 58.2203 53.97C59.1803 53.97 59.8603 54.19 60.3203 54.62C60.7803 55.04 61.0503 55.64 61.0503 56.48C61.0503 57.32 60.7903 58.02 60.3103 58.49C59.8303 58.97 59.0303 59.23 58.0203 59.23C57.5403 59.23 57.1403 59.21 56.8103 59.17V54.08H56.8003ZM57.4703 58.66C57.6403 58.69 57.8803 58.7 58.1503 58.7C59.5803 58.7 60.3503 57.9 60.3503 56.5C60.3603 55.28 59.6703 54.5 58.2503 54.5C57.9003 54.5 57.6403 54.53 57.4703 54.57V58.66Z" fill="#333333"/>
<path d="M62.7203 54.02V59.19H62.0503V54.02H62.7203Z" fill="#333333"/>
<path d="M65.0202 54.58H63.4502V54.01H67.2802V54.58H65.7002V59.19H65.0202V54.58Z" fill="#333333"/>
<path d="M72.2103 56.5499C72.2103 58.3299 71.1302 59.28 69.8102 59.28C68.4402 59.28 67.4802 58.22 67.4802 56.65C67.4802 55.01 68.5002 53.9299 69.8802 53.9299C71.3002 53.9299 72.2103 55.0099 72.2103 56.5499ZM68.2003 56.6299C68.2003 57.7399 68.8002 58.7299 69.8502 58.7299C70.9102 58.7299 71.5103 57.76 71.5103 56.58C71.5103 55.55 70.9702 54.4799 69.8602 54.4799C68.7502 54.4799 68.2003 55.4999 68.2003 56.6299Z" fill="#333333"/>
<path d="M73.2302 54.08C73.5702 54.01 74.0503 53.97 74.5103 53.97C75.2203 53.97 75.6803 54.1 76.0103 54.39C76.2703 54.62 76.4202 54.97 76.4202 55.37C76.4202 56.05 75.9902 56.51 75.4402 56.69V56.71C75.8402 56.85 76.0803 57.22 76.2003 57.75C76.3703 58.47 76.4902 58.97 76.6002 59.17H75.9102C75.8302 59.02 75.7102 58.58 75.5602 57.93C75.4102 57.22 75.1303 56.95 74.5203 56.92H73.8903V59.16H73.2202V54.08H73.2302ZM73.9003 56.44H74.5803C75.2903 56.44 75.7502 56.05 75.7502 55.46C75.7502 54.79 75.2702 54.5 74.5602 54.49C74.2402 54.49 74.0103 54.52 73.9003 54.55V56.44Z" fill="#333333"/>
<path d="M78.1702 54.02V59.19H77.5002V54.02H78.1702Z" fill="#333333"/>
<path d="M80.3203 57.56L79.7803 59.19H79.0903L80.8503 54.02H81.6603L83.4303 59.19H82.7203L82.1703 57.56H80.3203ZM82.0203 57.04L81.5103 55.55C81.3903 55.21 81.3203 54.9 81.2403 54.61H81.2203C81.1403 54.92 81.0603 55.23 80.9603 55.55L80.4503 57.05H82.0203V57.04Z" fill="#333333"/>
<path d="M83.8701 60.13C84.0401 59.68 84.2501 58.86 84.3301 58.3L85.0801 58.22C84.9001 58.87 84.5701 59.72 84.3501 60.09L83.8701 60.13Z" fill="#333333"/>
<path d="M87.8401 54.08C88.1601 54.03 88.5801 53.98 89.1201 53.98C89.7801 53.98 90.2601 54.13 90.5701 54.41C90.8501 54.66 91.0201 55.03 91.0201 55.49C91.0201 55.96 90.8801 56.33 90.6201 56.6C90.2701 56.98 89.69 57.17 89.04 57.17C88.84 57.17 88.6601 57.16 88.5001 57.12V59.19H87.8301V54.08H87.8401ZM88.5101 56.57C88.6601 56.61 88.8401 56.62 89.0601 56.62C89.8701 56.62 90.36 56.23 90.36 55.51C90.36 54.83 89.8801 54.5 89.1401 54.5C88.8501 54.5 88.6301 54.52 88.5101 54.55V56.57Z" fill="#333333"/>
<path d="M94.7503 56.76H92.7403V58.63H94.9803V59.19H92.0703V54.02H94.8603V54.58H92.7303V56.22H94.7403V56.76H94.7503Z" fill="#333333"/>
<path d="M95.9902 54.08C96.3302 54.01 96.8103 53.97 97.2703 53.97C97.9803 53.97 98.4403 54.1 98.7703 54.39C99.0303 54.62 99.1802 54.97 99.1802 55.37C99.1802 56.05 98.7503 56.51 98.2003 56.69V56.71C98.6003 56.85 98.8403 57.22 98.9603 57.75C99.1303 58.47 99.2502 58.97 99.3602 59.17H98.6702C98.5902 59.02 98.4703 58.58 98.3203 57.93C98.1703 57.22 97.8903 56.95 97.2803 56.92H96.6503V59.16H95.9802V54.08H95.9902ZM96.6602 56.44H97.3403C98.0503 56.44 98.5103 56.05 98.5103 55.46C98.5103 54.79 98.0303 54.5 97.3203 54.49C97.0003 54.49 96.7702 54.52 96.6602 54.55V56.44Z" fill="#333333"/>
<path d="M101.73 52.84L100.75 53.7399H100.2L100.91 52.84H101.73ZM100.94 54.02V59.1899H100.27V54.02H100.94Z" fill="#333333"/>
<path d="M105.87 59.02C105.62 59.14 105.13 59.27 104.5 59.27C103.04 59.27 101.94 58.35 101.94 56.65C101.94 55.03 103.04 53.9299 104.64 53.9299C105.28 53.9299 105.69 54.0699 105.87 54.1599L105.71 54.71C105.46 54.59 105.1 54.4999 104.67 54.4999C103.46 54.4999 102.65 55.2799 102.65 56.6299C102.65 57.8999 103.38 58.71 104.64 58.71C105.05 58.71 105.46 58.6299 105.73 58.4999L105.87 59.02Z" fill="#333333"/>
<path d="M107.52 54.02V59.19H106.85V54.02H107.52Z" fill="#333333"/>
<path d="M109.67 57.56L109.13 59.19H108.44L110.2 54.02H111L112.77 59.19H112.06L111.51 57.56H109.67ZM111.36 57.04L110.85 55.55C110.73 55.21 110.66 54.9 110.58 54.61H110.56C110.48 54.92 110.4 55.23 110.3 55.55L109.79 57.05H111.36V57.04Z" fill="#333333"/>
<path d="M118.13 56.76H116.12V58.63H118.36V59.19H115.45V54.02H118.24V54.58H116.11V56.22H118.12V56.76H118.13Z" fill="#333333"/>
<path d="M121.98 57.56L121.44 59.19H120.75L122.51 54.02H123.32L125.09 59.19H124.38L123.83 57.56H121.98ZM123.68 57.04L123.17 55.55C123.06 55.21 122.98 54.9 122.9 54.61H122.88C122.8 54.92 122.72 55.23 122.62 55.55L122.11 57.05H123.68V57.04Z" fill="#333333"/>
<path d="M125.9 58.3799C126.2 58.5599 126.64 58.7199 127.1 58.7199C127.78 58.7199 128.18 58.36 128.18 57.84C128.18 57.36 127.9 57.0799 127.2 56.8099C126.36 56.5099 125.83 56.07 125.83 55.34C125.83 54.53 126.5 53.9299 127.5 53.9299C128.03 53.9299 128.41 54.0499 128.64 54.1799L128.46 54.7299C128.29 54.6399 127.95 54.4799 127.48 54.4799C126.77 54.4799 126.5 54.8999 126.5 55.2599C126.5 55.7399 126.81 55.9799 127.53 56.2599C128.41 56.5999 128.85 57.02 128.85 57.78C128.85 58.58 128.26 59.27 127.04 59.27C126.54 59.27 126 59.1199 125.72 58.9399L125.9 58.3799Z" fill="#333333"/>
<path d="M129.83 58.3799C130.13 58.5599 130.57 58.7199 131.03 58.7199C131.71 58.7199 132.11 58.36 132.11 57.84C132.11 57.36 131.83 57.0799 131.13 56.8099C130.29 56.5099 129.76 56.07 129.76 55.34C129.76 54.53 130.43 53.9299 131.43 53.9299C131.96 53.9299 132.34 54.0499 132.57 54.1799L132.39 54.7299C132.22 54.6399 131.88 54.4799 131.41 54.4799C130.7 54.4799 130.43 54.8999 130.43 55.2599C130.43 55.7399 130.74 55.9799 131.46 56.2599C132.34 56.5999 132.78 57.02 132.78 57.78C132.78 58.58 132.19 59.27 130.97 59.27C130.47 59.27 129.93 59.1199 129.65 58.9399L129.83 58.3799Z" fill="#333333"/>
<path d="M134.52 54.02V59.19H133.85V54.02H134.52Z" fill="#333333"/>
<path d="M135.74 58.3799C136.04 58.5599 136.48 58.7199 136.94 58.7199C137.62 58.7199 138.02 58.36 138.02 57.84C138.02 57.36 137.74 57.0799 137.04 56.8099C136.2 56.5099 135.67 56.07 135.67 55.34C135.67 54.53 136.34 53.9299 137.34 53.9299C137.87 53.9299 138.25 54.0499 138.48 54.1799L138.3 54.7299C138.13 54.6399 137.79 54.4799 137.32 54.4799C136.61 54.4799 136.34 54.8999 136.34 55.2599C136.34 55.7399 136.65 55.9799 137.37 56.2599C138.25 56.5999 138.69 57.02 138.69 57.78C138.69 58.58 138.1 59.27 136.88 59.27C136.38 59.27 135.84 59.1199 135.56 58.9399L135.74 58.3799Z" fill="#333333"/>
<path d="M140.75 54.58H139.18V54.01H143V54.58H141.42V59.19H140.74V54.58H140.75Z" fill="#333333"/>
<path d="M146.4 56.7599H144.39V58.6299H146.63V59.1899H143.72V54.0199H146.51V54.5799H144.38V56.2198H146.39V56.7599H146.4ZM145.37 52.8599L146.18 53.7399H145.61L145.12 53.2099H145.1L144.62 53.7399H144.07L144.86 52.8599H145.37Z" fill="#333333"/>
<path d="M147.65 59.19V54.02H148.38L150.04 56.64C150.42 57.25 150.72 57.79 150.97 58.32L150.99 58.31C150.93 57.62 150.91 56.99 150.91 56.18V54.01H151.54V59.18H150.86L149.22 56.55C148.86 55.97 148.51 55.38 148.25 54.82L148.23 54.83C148.27 55.48 148.28 56.1 148.28 56.96V59.17H147.65V59.19Z" fill="#333333"/>
<path d="M156.46 59.02C156.21 59.14 155.72 59.27 155.09 59.27C153.63 59.27 152.53 58.35 152.53 56.65C152.53 55.03 153.63 53.9299 155.23 53.9299C155.88 53.9299 156.28 54.0699 156.46 54.1599L156.3 54.71C156.05 54.59 155.69 54.4999 155.26 54.4999C154.05 54.4999 153.24 55.2799 153.24 56.6299C153.24 57.8999 153.97 58.71 155.23 58.71C155.64 58.71 156.05 58.6299 156.32 58.4999L156.46 59.02Z" fill="#333333"/>
<path d="M158.11 54.02V59.19H157.44V54.02H158.11Z" fill="#333333"/>
<path d="M160.26 57.56L159.72 59.19H159.03L160.79 54.02H161.6L163.37 59.19H162.66L162.11 57.56H160.26ZM161.96 57.04L161.45 55.55C161.33 55.21 161.26 54.9 161.18 54.61H161.16C161.08 54.92 161 55.23 160.9 55.55L160.39 57.05H161.96V57.04Z" fill="#333333"/>
<path d="M166.71 54.58H165.14V54.01H168.97V54.58H167.39V59.19H166.71V54.58Z" fill="#333333"/>
<path d="M172.37 56.7599H170.36V58.6299H172.6V59.1899H169.69V54.02H172.48V54.58H170.35V56.2199H172.36V56.7599H172.37ZM172.24 52.84L171.26 53.7399H170.71L171.42 52.84H172.24Z" fill="#333333"/>
<path d="M177.23 59.02C176.98 59.14 176.49 59.27 175.86 59.27C174.4 59.27 173.3 58.35 173.3 56.65C173.3 55.03 174.4 53.9299 176 53.9299C176.65 53.9299 177.05 54.0699 177.23 54.1599L177.07 54.71C176.82 54.59 176.46 54.4999 176.03 54.4999C174.82 54.4999 174.01 55.2799 174.01 56.6299C174.01 57.8999 174.74 58.71 176 58.71C176.41 58.71 176.82 58.6299 177.09 58.4999L177.23 59.02Z" fill="#333333"/>
<path d="M178.21 59.19V54.02H178.94L180.6 56.64C180.98 57.25 181.28 57.79 181.53 58.32L181.55 58.31C181.49 57.62 181.47 56.99 181.47 56.18V54.01H182.1V59.18H181.42L179.78 56.55C179.42 55.97 179.07 55.38 178.81 54.82L178.79 54.83C178.83 55.48 178.84 56.1 178.84 56.96V59.17H178.21V59.19Z" fill="#333333"/>
<path d="M184.08 54.02V59.19H183.41V54.02H184.08Z" fill="#333333"/>
<path d="M189.01 59.02C188.76 59.14 188.27 59.27 187.64 59.27C186.18 59.27 185.08 58.35 185.08 56.65C185.08 55.03 186.18 53.9299 187.78 53.9299C188.43 53.9299 188.83 54.0699 189.01 54.1599L188.85 54.71C188.6 54.59 188.24 54.4999 187.81 54.4999C186.6 54.4999 185.79 55.2799 185.79 56.6299C185.79 57.8999 186.52 58.71 187.78 58.71C188.19 58.71 188.6 58.6299 188.87 58.4999L189.01 59.02Z" fill="#333333"/>
<path d="M190.86 57.56L190.32 59.19H189.63L191.39 54.02H192.2L193.97 59.19H193.26L192.71 57.56H190.86ZM192.55 57.04L192.04 55.55C191.93 55.21 191.85 54.9 191.77 54.61H191.75C191.67 54.92 191.59 55.23 191.49 55.55L190.98 57.05H192.55V57.04Z" fill="#333333"/>
<path d="M66.0303 7.93994L67.0303 13.4899H66.5103C65.9903 11.2099 64.0302 8.45996 59.1202 8.45996H52.4503V19.4799H59.0803C61.8403 19.4799 63.1103 18 63.2703 16.45H63.7902V22.9999H63.2703C63.1503 21.5999 61.5503 20.0099 59.0803 20.0099H52.4503V35.3799H59.1202C64.0302 35.3799 65.9903 32.6299 66.5103 30.3499H67.0303L66.0303 35.9H47.9802V35.7C49.1402 35.62 49.9003 34.8999 49.9003 33.2199V10.6199C49.9003 8.93993 49.1402 8.25995 47.9802 8.13995V7.93994H66.0303Z" fill="#333333"/>
<path d="M75.4102 7.93994V8.13995C74.3702 8.45995 74.8102 10.8999 75.9702 13.7299L83.8802 32.8599L91.9503 13.7299C93.1503 10.8999 93.5103 8.45995 92.5103 8.13995V7.93994H96.7803V8.13995C94.8203 9.21995 93.4303 11.7299 92.5903 13.7299L83.2103 35.89H82.6102L73.2302 13.7299C72.3502 11.7299 70.9502 9.21995 69.0002 8.13995V7.93994H75.4102Z" fill="#333333"/>
<path d="M99.3301 35.6899C100.45 35.6099 101.13 34.97 101.21 33.53V10.33C101.13 8.84996 100.45 8.20994 99.3301 8.12994V7.92993H105.64V8.12994C104.48 8.20994 103.76 8.92992 103.76 10.6099V33.21C103.76 34.89 104.48 35.6099 105.64 35.6899V35.89H103.76H99.3301V35.6899Z" fill="#333333"/>
<path d="M117.06 7.93994C127 7.93994 133.31 13.37 133.31 21.64C133.31 30.1 126.64 35.89 117.06 35.89H108.83V35.6899C109.99 35.6099 110.75 34.89 110.75 33.21V10.6099C110.75 8.92992 109.99 8.24994 108.83 8.12994V7.92993H117.06V7.93994ZM116.46 35.2899C125.12 35.1699 130.75 29.38 130.75 21.59C130.75 13.6 124.88 8.48993 116.46 8.48993H113.31V35.3199L116.46 35.2899Z" fill="#333333"/>
<path d="M147.38 8.29993C146.88 8.59993 146.63 9.19997 146.63 10.09V33.8499C146.63 35.2199 146.39 36.5099 145.92 37.7299C145.45 38.9499 144.82 40.0699 144.03 41.0999C143.24 42.1199 142.32 43.0499 141.27 43.8799C140.22 44.7099 139.12 45.4 137.96 45.95C137.88 46 137.82 45.9899 137.76 45.9099C137.71 45.8299 137.71 45.7499 137.76 45.6699C138.71 44.6999 139.51 43.7799 140.16 42.9299C140.82 42.0799 141.36 41.1799 141.8 40.2499C142.23 39.3199 142.55 38.3099 142.75 37.2199C142.95 36.1299 143.05 34.88 143.05 33.46V10.1299C143.05 9.75994 143 9.45991 142.91 9.21991C142.82 8.97991 142.69 8.78996 142.54 8.64996C142.38 8.50996 142.2 8.38993 141.99 8.29993C141.78 8.20993 141.57 8.11992 141.36 8.03992C141.15 7.98992 140.93 7.91997 140.71 7.83997C140.49 7.75997 140.23 7.62995 139.94 7.44995C139.86 7.39995 139.83 7.33996 139.86 7.26996C139.89 7.19996 139.94 7.16992 140.02 7.16992C140.6 7.21992 141.16 7.25996 141.69 7.26996C142.23 7.27996 142.76 7.28992 143.29 7.28992H144.91H148.02H149.24L149.28 7.60992C148.51 7.76992 147.88 7.99993 147.38 8.29993Z" fill="#333333"/>
<path d="M178.82 8.57996C178.32 9.19996 178.07 9.88996 178.07 10.65V24.95C178.07 26.58 177.81 28.1199 177.28 29.5599C176.75 30.9999 176.01 32.2699 175.03 33.3599C174.06 34.4499 172.88 35.3099 171.5 35.9399C170.12 36.5699 168.59 36.89 166.91 36.89C165.65 36.89 164.41 36.69 163.21 36.28C162 35.87 160.89 35.31 159.86 34.59C158.84 33.87 157.94 33.0099 157.16 32.0099C156.38 31.0099 155.8 29.91 155.41 28.7C155.33 28.44 155.26 27.9799 155.19 27.3199C155.12 26.6599 155.08 25.8799 155.05 24.9799C155.02 24.0699 155 23.0799 154.99 21.9999C154.98 20.9199 154.97 19.85 154.97 18.77C154.97 17.77 154.98 16.7899 154.99 15.8099C155 14.8399 155.01 13.97 155.01 13.21C155.01 12.68 155.02 12.21 155.03 11.77C155.04 11.34 155.05 10.9799 155.05 10.6899C155.05 9.60994 154.77 8.85992 154.2 8.41992C153.63 7.98992 152.87 7.64992 151.89 7.41992C151.81 7.38992 151.78 7.33993 151.79 7.23993C151.8 7.14993 151.85 7.09991 151.93 7.09991C152.98 7.14991 154.02 7.18991 155.06 7.21991C156.1 7.24991 157.13 7.25995 158.15 7.25995C158.68 7.25995 159.19 7.25995 159.69 7.25995C160.22 7.25995 160.74 7.24991 161.27 7.21991C161.35 7.21991 161.4 7.25997 161.43 7.33997C161.46 7.41997 161.43 7.47992 161.35 7.53992C161.06 7.69992 160.77 7.87997 160.46 8.08997C160.16 8.29997 159.87 8.53995 159.59 8.81995C159.31 9.09995 159.09 9.38994 158.92 9.68994C158.75 9.98994 158.66 10.3099 158.66 10.6599C158.66 12.0499 158.66 13.4199 158.66 14.7599C158.66 16.0999 158.65 17.4499 158.62 18.8199C158.59 20.1899 158.58 21.5499 158.58 22.9199C158.58 24.2899 158.58 25.65 158.58 27.02C158.58 28.23 158.79 29.3299 159.21 30.3099C159.63 31.2899 160.21 32.1399 160.96 32.8499C161.71 33.5599 162.6 34.0999 163.62 34.4899C164.64 34.8699 165.75 35.0599 166.93 35.0599C168.14 35.0599 169.25 34.8599 170.28 34.4699C171.3 34.0799 172.19 33.5199 172.94 32.7999C173.69 32.0799 174.28 31.2199 174.71 30.2199C175.14 29.2199 175.36 28.1099 175.36 26.8699C175.36 25.5299 175.36 24.1899 175.36 22.8499C175.36 21.4799 175.35 20.1299 175.32 18.7899C175.29 17.4499 175.28 16.11 175.28 14.77C175.28 13.43 175.28 12.08 175.28 10.71C175.28 9.62996 175.01 8.83991 174.47 8.34991C173.93 7.84991 173.15 7.51992 172.13 7.35992C172.05 7.32992 172.02 7.27993 172.03 7.17993C172.04 7.08993 172.09 7.03992 172.17 7.03992C172.64 7.08992 173.1 7.11993 173.55 7.11993C174.02 7.11993 174.48 7.11993 174.93 7.11993H176.78C177.36 7.11993 177.92 7.12995 178.47 7.13995C179.02 7.14995 179.6 7.15991 180.2 7.15991H180.67L180.71 7.47992C179.96 7.58992 179.32 7.95996 178.82 8.57996Z" fill="#333333"/>
<path d="M210.6 36.65C209.96 36.81 209.29 36.89 208.61 36.89C207.59 36.89 206.64 36.6799 205.77 36.2599C204.9 35.8399 204.1 35.3 203.37 34.64C202.63 33.98 201.95 33.2399 201.32 32.4099C200.69 31.5799 200.1 30.76 199.55 29.95C199 29.14 198.37 28.28 197.68 27.39C196.98 26.5 196.29 25.7599 195.61 25.1799C195.08 24.7299 194.48 24.4599 193.8 24.3699C193.12 24.2799 192.43 24.2299 191.75 24.2299C191.46 24.2299 191.17 24.2299 190.88 24.2299C190.59 24.2299 190.3 24.24 190.01 24.27V31.8699C190.01 32.9499 190.33 33.8599 190.98 34.6099C191.62 35.3599 192.47 35.79 193.52 35.89V36.21C192.71 36.13 191.89 36.0699 191.08 36.0099C190.27 35.9599 189.45 35.9299 188.64 35.9299C187.83 35.9299 187.02 35.96 186.24 36.03C185.45 36.1 184.65 36.1799 183.84 36.2899C183.76 36.3199 183.71 36.2799 183.68 36.1899C183.65 36.0999 183.68 36.0299 183.76 35.9699C184.52 35.6299 185.16 35.0999 185.67 34.3699C186.18 33.6499 186.44 32.87 186.44 32.03V10.6699C186.44 9.82992 186.13 9.08996 185.51 8.45996C184.89 7.82996 184.18 7.40995 183.36 7.19995C183.28 7.16995 183.25 7.11992 183.26 7.03992C183.27 6.95992 183.32 6.91992 183.4 6.91992H184.15C184.54 6.91992 184.94 6.92994 185.33 6.93994C185.72 6.94994 186.1 6.96994 186.47 6.99994C187.26 7.07994 188.05 7.11993 188.83 7.11993C189.67 7.11993 190.52 7.07994 191.39 6.99994C191.84 6.96994 192.26 6.94994 192.67 6.93994C193.08 6.92994 193.5 6.91992 193.95 6.91992C195.05 6.91992 196.13 7.04994 197.18 7.30994C198.23 7.56994 199.17 7.98993 200 8.54993C200.83 9.11993 201.49 9.83993 201.99 10.7399C202.49 11.6299 202.74 12.7199 202.74 14.0099C202.74 14.8499 202.61 15.6799 202.35 16.5099C202.09 17.3399 201.74 18.13 201.31 18.89C200.88 19.65 200.38 20.3699 199.81 21.0399C199.24 21.7099 198.67 22.3199 198.1 22.8699C198.47 23.2899 198.9 23.84 199.4 24.52C199.9 25.2 200.41 25.8999 200.94 26.6099C201.73 27.6899 202.56 28.7899 203.42 29.9199C204.29 31.0499 205.2 32.06 206.16 32.95C207.12 33.84 208.12 34.5499 209.15 35.0599C210.19 35.5699 211.27 35.7599 212.4 35.6299L212.48 35.95C211.87 36.27 211.24 36.5 210.6 36.65ZM198.62 13.2499C198.34 12.2999 197.94 11.4499 197.4 10.6899C196.86 9.92994 196.2 9.30997 195.41 8.83997C194.62 8.36997 193.7 8.12994 192.65 8.12994C192.2 8.12994 191.76 8.15992 191.33 8.22992C190.9 8.29992 190.47 8.40995 190.05 8.56995V21.9699C190.65 22.0799 191.26 22.1499 191.88 22.1899C192.5 22.2299 193.09 22.2499 193.67 22.2499C195.67 22.2499 197.06 21.6999 197.85 20.5999C198.64 19.4999 199.03 17.9999 199.03 16.1099C199.03 15.1399 198.9 14.1899 198.62 13.2499Z" fill="#333333"/>
<path d="M223.11 36.22C222.51 36.22 221.9 36.22 221.3 36.22C220.3 36.22 219.3 36.23 218.29 36.24C217.28 36.25 216.27 36.27 215.28 36.3C215.2 36.3 215.16 36.26 215.14 36.18C215.13 36.1 215.16 36.04 215.24 35.98C217.03 35.3 217.92 34 217.92 32.08V9.96997C217.92 9.09997 217.64 8.49997 217.07 8.15997C216.5 7.81997 215.84 7.59999 215.08 7.48999C215 7.45999 214.96 7.41002 214.96 7.33002C214.96 7.23002 215 7.16998 215.08 7.16998C216.6 7.32998 218.17 7.40997 219.77 7.40997C220.51 7.40997 221.23 7.38998 221.96 7.34998C222.68 7.30998 223.4 7.24 224.11 7.13C224.19 7.1 224.24 7.14 224.27 7.25C224.3 7.36 224.27 7.42001 224.19 7.45001C223.8 7.53001 223.43 7.61998 223.11 7.72998C222.78 7.83998 222.5 7.97001 222.26 8.14001C222.02 8.31001 221.84 8.53 221.71 8.81C221.58 9.09 221.51 9.45999 221.51 9.92999V31.92C221.51 33.26 221.77 34.23 222.3 34.84C222.83 35.44 223.73 35.81 225.02 35.94V36.26C224.37 36.23 223.74 36.22 223.11 36.22Z" fill="#333333"/>
<path d="M17.9401 48.53H7.57013V24.62H17.8801C21.7301 24.62 24.2101 27.1 24.4001 29.28H25.2101V19.1H24.4001C24.1501 21.52 22.1601 23.82 17.8801 23.82H7.57013V6.67999H17.9401C25.5801 6.67999 28.6201 10.96 29.4301 14.5H30.2401L28.6901 5.87H0.620117V6.17999C2.42012 6.36999 3.60013 7.42003 3.60013 10.03V45.18C3.60013 47.79 2.42012 48.91 0.620117 49.03V49.34H28.6901L30.2401 40.71H29.4301C28.6201 44.25 25.5701 48.53 17.9401 48.53Z" fill="#333333"/>
<path d="M8.85003 1.08002C9.26003 1.37002 9.62001 1.57 9.93001 1.69C10.24 1.81 10.55 1.92 10.84 2C11.14 2.12 11.43 2.25002 11.73 2.40002C12.03 2.54002 12.29 2.73001 12.51 2.95001C12.73 3.17001 12.9 3.47003 13.03 3.84003C13.07 3.95003 13.1 4.06 13.13 4.19H18.36C18.49 3.35 18.81 2.75002 19.33 2.40002C20.04 1.93002 20.92 1.58002 21.99 1.33002L21.93 0.840027H13.56C12.82 0.840027 12.07 0.829998 11.32 0.809998C10.56 0.789998 9.78001 0.740024 8.96001 0.650024C8.85001 0.650024 8.78001 0.709998 8.74001 0.809998C8.70001 0.899998 8.74003 0.990017 8.85003 1.08002Z" fill="#333333"/>
<path d="M11.4901 52.09C10.8801 53.54 10.1101 54.93 9.18006 56.26C8.26006 57.59 7.13006 59.01 5.80006 60.53C5.73006 60.65 5.73006 60.77 5.80006 60.9C5.88006 61.02 5.97006 61.04 6.08006 60.96C7.71006 60.1 9.26006 59.03 10.7401 57.74C12.2201 56.45 13.5101 55.01 14.6201 53.42C15.1801 52.62 15.6801 51.78 16.1201 50.9H11.9401C11.8001 51.3 11.6501 51.7 11.4901 52.09Z" fill="#333333"/>
<path d="M13.2301 41.52C13.2301 43.64 13.1001 45.5299 12.8401 47.1699H17.5901C18.0401 45.5599 18.2701 43.8899 18.2701 42.1299V25.9399H13.2201V41.52H13.2301Z" fill="#333333"/>
<path d="M18.2802 7.90002H13.2302V22.23H18.2802V7.90002Z" fill="#333333"/>
</svg>
