<svg width="145" height="110" viewBox="0 0 145 110" fill="none" xmlns="http://www.w3.org/2000/svg">
<path d="M9.76943 109.75H135.879C140.919 109.75 144.999 105.66 144.999 100.63V9.87988C144.999 4.83988 140.909 0.76001 135.879 0.76001H9.76943C4.72943 0.76001 0.649432 4.84988 0.649432 9.87988V100.63C0.639432 105.66 4.72943 109.75 9.76943 109.75Z" fill="#005C4B"/>
<path d="M72.9597 74.7601C69.5997 74.7401 66.3098 73.9001 63.3798 72.3001L52.7598 75.0401L55.5497 64.8602C53.7497 61.8902 52.7798 58.5101 52.7598 55.0601C52.7898 44.2101 61.7998 35.44 72.8798 35.47C83.9598 35.5 92.9198 44.32 92.8898 55.17C92.8498 65.95 83.9597 74.6901 72.9597 74.7601Z" stroke="white" stroke-miterlimit="8" stroke-linecap="round" stroke-linejoin="round"/>
<path d="M82.7396 62.1499C81.9996 63.3599 80.7696 64.2 79.3596 64.48C78.3196 64.67 77.2396 64.6 76.2296 64.29C75.2796 64 74.3496 63.65 73.4396 63.25C69.9896 61.55 67.0397 59.0101 64.8897 55.8601C63.7197 54.4001 63.0096 52.64 62.8496 50.8C62.8196 49.25 63.4596 47.76 64.6096 46.7C64.9496 46.32 65.4396 46.1001 65.9496 46.1001H66.7296C67.0396 46.1001 67.4596 46.1 67.8496 46.95C68.2396 47.8 69.2796 50.3401 69.4096 50.5901C69.5496 50.8601 69.5496 51.1699 69.4096 51.4399C69.2896 51.7399 69.1196 52.01 68.9096 52.26C68.6596 52.56 68.3796 52.9199 68.1596 53.1399C67.9396 53.3599 67.6596 53.6299 67.9396 54.1299C68.6996 55.3899 69.6396 56.53 70.7296 57.52C71.9196 58.55 73.2796 59.37 74.7496 59.96C75.2496 60.21 75.5596 60.18 75.8396 59.96C76.1196 59.74 77.0996 58.54 77.4296 58.04C77.7696 57.55 78.0996 57.63 78.5496 57.79C78.9996 57.95 81.4796 59.1299 81.9896 59.3799C82.4896 59.6299 82.7996 59.74 82.9396 59.95C83.0596 60.67 82.9896 61.4001 82.7396 62.0801V62.1499Z" stroke="white" stroke-miterlimit="8" stroke-linecap="round" stroke-linejoin="round"/>
</svg>
