<svg width="79" height="84" viewBox="0 0 79 84" fill="none" xmlns="http://www.w3.org/2000/svg">
<path d="M11.4601 59.62V69.87H9.15012V62.66L6.05011 67.83L2.95013 62.66V69.87H0.640137V59.62H3.64014L6.05011 63.79L8.42014 59.62H11.4601ZM13.4101 69.87H15.7001V59.62H13.4101V69.87ZM16.7101 59.62V61.77H19.4901V69.87H21.8001V61.77H24.5601V59.62H16.7101ZM25.4201 69.75C26.3701 69.91 27.3901 70.03 28.4601 70.03C31.2201 70.03 32.4701 69.08 32.4701 67.03C32.4701 65.08 31.0901 64.46 29.3901 63.69C28.2601 63.18 27.5101 62.9 27.5101 62.33C27.5101 61.76 27.7901 61.6 29.1701 61.6C30.3501 61.6 31.4001 61.76 31.9701 61.8V59.67C31.3801 59.59 30.4301 59.47 29.1101 59.47C26.5401 59.47 25.2401 60.22 25.2401 62.35C25.2401 64.07 26.4401 64.74 28.0601 65.47C29.7201 66.24 30.2301 66.34 30.2301 67.09C30.2301 67.74 29.6201 67.9 28.4501 67.9C27.0301 67.9 25.8801 67.7 25.4101 67.62V69.75M33.8501 66.41C33.8501 68.9 35.4701 70.02 37.9201 70.02C40.3901 70.02 42.0301 68.89 42.0301 66.41V59.62H39.7201V66.33C39.7201 67.51 39.0101 67.91 37.9201 67.91C36.8301 67.91 36.1401 67.5 36.1401 66.33V59.62H33.8301V66.41M44.0001 69.87H48.6401C50.9101 69.87 51.9801 68.8 51.9801 67.01C51.9801 65.29 51.0301 64.78 50.1001 64.52C50.8901 64.22 51.7401 63.77 51.7401 62.27C51.7401 60.41 50.5901 59.64 48.4801 59.64H44.0001V69.87ZM46.3101 63.77V61.56H48.1501C49.0001 61.56 49.4101 61.78 49.4101 62.61C49.4101 63.28 49.0701 63.76 48.1501 63.76H46.3101V63.77ZM46.3101 67.95V65.6H48.4201C49.2701 65.6 49.6201 65.92 49.6201 66.73C49.6201 67.64 49.2601 67.97 48.3201 67.97H46.3101V67.95ZM53.3801 69.89H55.6901V59.64H53.3801V69.89ZM57.3501 69.75C58.3001 69.91 59.3201 70.03 60.3901 70.03C63.1501 70.03 64.4001 69.08 64.4001 67.03C64.4001 65.08 63.0201 64.46 61.3201 63.69C60.1901 63.18 59.4401 62.9 59.4401 62.33C59.4401 61.76 59.7201 61.6 61.1001 61.6C62.2801 61.6 63.3301 61.76 63.9001 61.8V59.67C63.3101 59.59 62.3601 59.47 61.0401 59.47C58.4701 59.47 57.1701 60.22 57.1701 62.35C57.1701 64.07 58.3701 64.74 59.9901 65.47C61.6501 66.24 62.1601 66.34 62.1601 67.09C62.1601 67.74 61.5501 67.9 60.3801 67.9C58.9601 67.9 57.8102 67.7 57.3401 67.62V69.75M71.6001 59.62V63.67H67.9501V59.62H65.6401V69.87H67.9301V65.78H71.5801V69.87H73.8701V59.62H71.6001ZM75.7501 69.89H78.0601V59.64H75.7501V69.89ZM19.1801 73.42L16.8101 77.59L14.4001 73.42H11.4201V83.67H13.7301V76.48L16.8301 81.65L19.9101 76.48V83.69H22.2201V73.44H19.1801V73.42ZM23.8001 78.54C23.8001 82.21 25.2001 83.81 28.2201 83.81C31.2401 83.81 32.6401 82.21 32.6401 78.54C32.6401 74.87 31.2401 73.27 28.2201 73.27C25.2001 73.27 23.8001 74.9 23.8001 78.54ZM30.2701 78.54C30.2701 80.65 29.9101 81.72 28.2201 81.72C26.5301 81.72 26.1901 80.65 26.1901 78.54C26.1901 76.45 26.5301 75.38 28.2201 75.38C29.9001 75.4 30.2701 76.46 30.2701 78.54ZM35.8001 83.67H38.1101V75.57H40.8901V73.44H33.0301V75.57H35.8101V83.67H35.8001ZM41.2701 78.54C41.2701 82.21 42.6701 83.81 45.6901 83.81C48.7101 83.81 50.1101 82.21 50.1101 78.54C50.1101 74.87 48.7101 73.27 45.6901 73.27C42.6701 73.27 41.2701 74.9 41.2701 78.54ZM47.7101 78.54C47.7101 80.65 47.3501 81.72 45.6601 81.72C43.9701 81.72 43.6301 80.65 43.6301 78.54C43.6301 76.45 43.9701 75.38 45.6601 75.38C47.3501 75.4 47.7101 76.46 47.7101 78.54ZM51.6801 83.69H53.9901V80H55.0001L57.1701 83.69H59.8401L57.3301 79.66C58.6501 79.34 59.4401 78.3 59.4401 76.72C59.4401 74.25 58.0401 73.42 55.8301 73.42H51.6801V83.69ZM53.9901 78.02V75.41H55.7101C56.7401 75.41 57.0701 75.94 57.0701 76.73C57.0701 77.5 56.7501 78.03 55.7101 78.03H53.9901V78.02ZM60.8201 83.55C61.7701 83.71 62.7901 83.83 63.8601 83.83C66.6201 83.83 67.8701 82.88 67.8701 80.83C67.8701 78.88 66.4901 78.26 64.7901 77.49C63.6601 76.98 62.9101 76.7 62.9101 76.11C62.9101 75.54 63.1901 75.4 64.5701 75.4C65.7501 75.4 66.8001 75.54 67.3701 75.6V73.45C66.7801 73.39 65.8301 73.27 64.5101 73.27C61.9401 73.27 60.6401 74 60.6401 76.15C60.6401 77.87 61.8401 78.54 63.4601 79.27C65.1201 80.04 65.6301 80.14 65.6301 80.89C65.6301 81.54 65.0201 81.7 63.8501 81.7C62.4301 81.7 61.2801 81.5 60.8101 81.42V83.55" fill="black"/>
<path d="M29.3799 17.8401L39.1999 34.86L49.0299 17.8401L39.1999 0.820068L29.3799 17.8401Z" fill="#D61719"/>
<path d="M58.8502 34.8601H39.2002L49.0302 51.8801H68.6802L58.8502 34.8601Z" fill="#D61719"/>
<path d="M19.5502 34.8601H39.2002L29.3802 51.8801H9.72021L19.5502 34.8601Z" fill="#D61719"/>
</svg>
