<svg id="SvgjsSvg1001" width="288" height="288" xmlns="http://www.w3.org/2000/svg" version="1.1" xmlns:xlink="http://www.w3.org/1999/xlink" xmlns:svgjs="http://svgjs.com/svgjs"><defs id="SvgjsDefs1002"></defs><g id="SvgjsG1008"><svg xmlns="http://www.w3.org/2000/svg" fill="none" viewBox="0 0 21 38" width="288" height="288"><path fill="#ffffff" d="M12.8771 38H5.98798C5.53054 38 5.16252 37.6125 5.16252 37.1308V23.4947H0.825454C0.368015 23.4947 0 23.1071 0 22.6254V15.3746C0 14.8929 0.368015 14.5053 0.825454 14.5053H5.16596V9.93462C5.16596 4.45845 9.39985 0 14.6002 0H19.7662C20.2236 0 20.5916 0.387533 20.5916 0.869234V8.12371C20.5916 8.60541 20.2236 8.99295 19.7662 8.99295H14.6002C14.1049 8.99295 13.7025 9.4167 13.7025 9.93824V14.509H19.7662C20.0207 14.509 20.2614 14.6321 20.4162 14.8422C20.571 15.0522 20.626 15.3275 20.5675 15.5883L18.8479 22.8427C18.755 23.2303 18.4248 23.5019 18.0465 23.5019H13.7025V37.138C13.7025 37.6125 13.3311 38 12.8771 38ZM6.81343 36.2615H12.0516V22.6254C12.0516 22.1437 12.4196 21.7562 12.8771 21.7562H17.3999L18.7068 16.2402H12.8771C12.4196 16.2402 12.0516 15.8527 12.0516 15.371V9.93462C12.0516 8.45692 13.1935 7.25448 14.6002 7.25448H18.9407V1.73847H14.6002C10.3078 1.73847 6.81343 5.4146 6.81343 9.93462V15.3746C6.81343 15.8563 6.44541 16.2438 5.98798 16.2438H1.64747V21.7598H5.98798C6.44541 21.7598 6.81343 22.1474 6.81343 22.6291V36.2615Z" class="color2A3234 svgShape"></path></svg></g></svg>