<svg xmlns="http://www.w3.org/2000/svg" xmlns:xlink="http://www.w3.org/1999/xlink" viewBox="0 0 341.59 189.94"><defs><style>.cls-1{fill:url(#Gradiente_sem_nome_7);}.cls-2{fill:url(#Gradiente_sem_nome_7-2);}.cls-3{fill:url(#Gradiente_sem_nome_7-3);}.cls-4{fill:url(#Gradiente_sem_nome_7-4);}.cls-5{fill:url(#Gradiente_sem_nome_7-5);}.cls-6{fill:url(#Gradiente_sem_nome_7-6);}.cls-7{fill:url(#Gradiente_sem_nome_7-7);}</style><linearGradient id="Gradiente_sem_nome_7" y1="63.97" x2="170.83" y2="63.97" gradientTransform="matrix(1, 0, 0, -1, 0, 192)" gradientUnits="userSpaceOnUse"><stop offset="0" stop-color="#e8b23f"/><stop offset="0.03" stop-color="#e8b23f"/><stop offset="0.07" stop-color="#f9ca65"/><stop offset="0.08" stop-color="#f9ca65"/><stop offset="0.22" stop-color="#ddac41"/><stop offset="0.25" stop-color="#ddac41"/><stop offset="0.44" stop-color="#f7d46a"/><stop offset="0.58" stop-color="#f9ef89"/><stop offset="0.63" stop-color="#f9ef89"/><stop offset="0.75" stop-color="#f3cc5b"/><stop offset="0.77" stop-color="#f3cc5b"/><stop offset="0.83" stop-color="#e4b94c"/><stop offset="0.85" stop-color="#e4b94c"/><stop offset="1" stop-color="#bb8723"/></linearGradient><linearGradient id="Gradiente_sem_nome_7-2" x1="170.82" y1="63.98" x2="341.59" y2="63.98" xlink:href="#Gradiente_sem_nome_7"/><linearGradient id="Gradiente_sem_nome_7-3" x1="48.69" y1="149.97" x2="170.75" y2="149.97" xlink:href="#Gradiente_sem_nome_7"/><linearGradient id="Gradiente_sem_nome_7-4" x1="170.35" y1="150.15" x2="292.01" y2="150.15" xlink:href="#Gradiente_sem_nome_7"/><linearGradient id="Gradiente_sem_nome_7-5" x1="170.7" y1="88.09" x2="242.31" y2="88.09" xlink:href="#Gradiente_sem_nome_7"/><linearGradient id="Gradiente_sem_nome_7-6" x1="149.04" y1="129.41" x2="194.83" y2="129.41" xlink:href="#Gradiente_sem_nome_7"/><linearGradient id="Gradiente_sem_nome_7-7" x1="99.21" y1="88.09" x2="170.83" y2="88.09" xlink:href="#Gradiente_sem_nome_7"/></defs><title>grupo2x</title><g id="Camada_2" data-name="Camada 2"><g id="Camada_1-2" data-name="Camada 1"><path class="cls-1" d="M0,95.09l170.83,94.85V161.18L0,66.13Z"/><path class="cls-2" d="M170.82,161.18v28.76l170.7-94.85.07-29Z"/><path class="cls-3" d="M48.69,69.51,74.57,84.06l96.18-53.74L170.35,0Z"/><path class="cls-4" d="M170.75,30.32l97.76,53.39L292,69.51,170.35,0Z"/><path class="cls-5" d="M170.7,108.34l.05,30.08,71.56-38.95V69.39Z"/><path class="cls-6" d="M149,68.94l23.61,12.89,22.18-12.06-.19-26.41Z"/><path class="cls-7" d="M99.21,99.47l71.54,38.95.08-30.08L99.21,69.39Z"/></g></g></svg>