<svg width="1039" height="570" viewBox="0 0 1039 570" fill="none" xmlns="http://www.w3.org/2000/svg">
<g opacity="0.2">
<path d="M990.19 496.05L989.561 494.78L995.08 492.02L995.71 493.29L990.19 496.05Z" fill="#A69374"/>
<path d="M984.05 507.91L982.77 507.28L987.54 497.76L988.81 498.39L984.05 507.91Z" fill="#A69374"/>
<path d="M984.86 491.08L984.22 489.81L998.67 482.58L999.31 483.85L984.86 491.08Z" fill="#A69374"/>
<path d="M969.55 521.64L968.28 521L979.72 498.12L980.99 498.76L969.55 521.64Z" fill="#A69374"/>
<path d="M989.079 481.34L988.439 480.06L993.04 477.76L993.67 479.04L989.079 481.34Z" fill="#A69374"/>
<path d="M964.19 517.08L962.92 516.45L967.48 507.33L968.75 507.96L964.19 517.08Z" fill="#A69374"/>
<path d="M914.74 509.08L913.46 508.45L915.75 503.89L917.02 504.52L914.74 509.08Z" fill="#A69374"/>
<path d="M913.67 495.95L912.39 495.32L928.35 463.4L929.62 464.04L913.67 495.95Z" fill="#A69374"/>
<path d="M906.83 509.63L905.55 509L910.11 499.88L911.39 500.51L906.83 509.63Z" fill="#A69374"/>
<path d="M905.75 496.5L904.48 495.87L927.301 450.24L928.57 450.87L905.75 496.5Z" fill="#A69374"/>
<path d="M898.08 496.59L896.8 495.95L921.9 445.77L923.17 446.4L898.08 496.59Z" fill="#A69374"/>
<path d="M892.71 492.03L891.44 491.4L918.84 436.6L920.11 437.24L892.71 492.03Z" fill="#A69374"/>
<path d="M887.35 487.49L886.08 486.85L911.17 436.67L912.44 437.31L887.35 487.49Z" fill="#A69374"/>
<path d="M881.99 482.93L880.72 482.3L908.11 427.52L909.38 428.16L881.99 482.93Z" fill="#A69374"/>
<path d="M917.12 410.4L916.49 409.13L921.09 406.83L921.72 408.1L917.12 410.4Z" fill="#A69374"/>
<path d="M874.35 482.95L873.08 482.32L905.09 418.28L906.36 418.92L874.35 482.95Z" fill="#A69374"/>
<path d="M929.79 396.43L929.16 395.16L933.72 392.88L934.35 394.15L929.79 396.43Z" fill="#A69374"/>
<path d="M911.48 405.59L910.85 404.31L915.45 402.01L916.09 403.28L911.48 405.59Z" fill="#A69374"/>
<path d="M868.99 478.4L867.71 477.77L899.72 413.76L900.99 414.4L868.99 478.4Z" fill="#A69374"/>
<path d="M915.03 396.17L914.39 394.9L928.09 388.06L928.72 389.33L915.03 396.17Z" fill="#A69374"/>
<path d="M898.06 404.66L897.9 404.33L897.02 403.89L897.21 403.49L909.819 397.19L910.449 398.46L898.06 404.66Z" fill="#A69374"/>
<path d="M893.289 414.53L892.02 413.89L894.34 409.24L895.62 409.87L893.289 414.53Z" fill="#A69374"/>
<path d="M861.33 478.43L860.06 477.8L885.15 427.62L886.43 428.25L861.33 478.43Z" fill="#A69374"/>
<path d="M890.24 405.34L888.97 404.71L892.12 398.4L904.18 392.37L904.82 393.65L893.18 399.46L890.24 405.34Z" fill="#A69374"/>
<path d="M853.66 478.51L852.39 477.87L879.79 423.07L881.06 423.7L853.66 478.51Z" fill="#A69374"/>
<path d="M887.66 395.24L886.38 394.61L887.03 393.31L898.55 387.56L899.18 388.83L888.09 394.37L887.66 395.24Z" fill="#A69374"/>
<path d="M882.56 405.43L881.29 404.8L883.6 400.17L884.88 400.81L882.56 405.43Z" fill="#A69374"/>
<path d="M828.72 488.83L828.08 487.56L843.85 479.67L876.71 413.95L877.98 414.59L844.91 480.73L828.72 488.83Z" fill="#A69374"/>
<path d="M879.51 396.27L878.23 395.64L881.94 388.22L888.271 385.05L888.901 386.33L883 389.28L879.51 396.27Z" fill="#A69374"/>
<path d="M818.52 486.29L817.88 485.02L838.76 474.58L871.35 409.4L872.62 410.04L839.82 475.64L818.52 486.29Z" fill="#A69374"/>
<path d="M874.14 391.73L872.87 391.09L875.28 386.28L876.55 386.91L874.14 391.73Z" fill="#A69374"/>
<path d="M817.45 479.19L816.82 477.92L833.67 469.49L861.43 413.98L862.7 414.61L834.73 470.55L817.45 479.19Z" fill="#A69374"/>
<path d="M868.77 387.19L867.5 386.55L871.76 378.03L871.98 377.93L872.34 378.59L872.93 378.89L868.77 387.19Z" fill="#A69374"/>
<path d="M816.4 472.08L815.76 470.81L828.58 464.4L851.51 418.54L852.78 419.17L829.64 465.46L816.4 472.08Z" fill="#A69374"/>
<path d="M856.539 396.39L855.27 395.75L859.84 386.61L861.109 387.25L856.539 396.39Z" fill="#A69374"/>
<path d="M851.98 405.51L850.7 404.87L852.99 400.31L854.26 400.95L851.98 405.51Z" fill="#A69374"/>
<path d="M815.36 464.96L814.73 463.69L823.49 459.31L841.591 423.11L842.86 423.74L824.55 460.37L815.36 464.96Z" fill="#A69374"/>
<path d="M855.75 382.7L854.48 382.06L856.771 377.47L858.04 378.1L855.75 382.7Z" fill="#A69374"/>
<path d="M848.9 396.4L847.62 395.77L852.19 386.64L853.46 387.27L848.9 396.4Z" fill="#A69374"/>
<path d="M842.06 410.07L840.79 409.44L845.34 400.32L846.62 400.96L842.06 410.07Z" fill="#A69374"/>
<path d="M814.4 457.8L813.77 456.53L818.4 454.22L827.109 436.8L828.38 437.44L819.46 455.28L814.4 457.8Z" fill="#A69374"/>
<path d="M845.81 387.29L844.54 386.65L851.41 372.92L852.68 373.56L845.81 387.29Z" fill="#A69374"/>
<path d="M838.98 400.97L837.7 400.33L842.26 391.21L843.54 391.85L838.98 400.97Z" fill="#A69374"/>
<path d="M832.14 414.64L830.87 414L833.14 409.45L834.42 410.08L832.14 414.64Z" fill="#A69374"/>
<path d="M814.15 450.29L813.69 449.58L813.2 449.34L814.75 446.24L816.02 446.88L814.36 450.19L814.15 450.29Z" fill="#A69374"/>
<path d="M826.78 410.09L825.51 409.45L841.46 377.54L842.74 378.17L826.78 410.09Z" fill="#A69374"/>
<path d="M841.9 364.58L840.62 363.94L845.8 353.6L847.07 354.23L841.9 364.58Z" fill="#A69374"/>
<path d="M830.48 387.41L829.21 386.78L833.76 377.66L835.04 378.3L830.48 387.41Z" fill="#A69374"/>
<path d="M838.57 355.96L837.29 355.33L841.21 347.49L847.11 344.54L847.75 345.82L842.27 348.55L838.57 355.96Z" fill="#A69374"/>
<path d="M818.01 397.08L816.74 396.45L828.13 373.65L829.41 374.29L818.01 397.08Z" fill="#A69374"/>
<path d="M813.45 406.2L812.18 405.56L814.46 401L815.73 401.64L813.45 406.2Z" fill="#A69374"/>
<path d="M835.29 347.25L834.01 346.62L836.12 342.4L845.58 337.67L846.21 338.95L837.18 343.46L835.29 347.25Z" fill="#A69374"/>
<path d="M812.38 393.07L811.11 392.44L827.07 360.51L828.34 361.15L812.38 393.07Z" fill="#A69374"/>
<path d="M805.539 406.75L804.27 406.11L806.549 401.55L807.82 402.19L805.539 406.75Z" fill="#A69374"/>
<path d="M831.88 338.48L831.6 337.91L830.88 337.61L831.03 337.31L839.39 333.13L840.03 334.4L831.88 338.48Z" fill="#A69374"/>
<path d="M820.42 361.71L819.15 361.07L823.72 351.93L824.99 352.57L820.42 361.71Z" fill="#A69374"/>
<path d="M804.47 393.62L803.2 392.98L816.87 365.63L818.14 366.27L804.47 393.62Z" fill="#A69374"/>
<path d="M797.62 407.31L796.35 406.67L800.92 397.54L802.19 398.18L797.62 407.31Z" fill="#A69374"/>
<path d="M1038.3 161.386L1036.67 162.202L1037.3 163.474L1038.94 162.658L1038.3 161.386Z" fill="#A69374"/>
<path d="M833.83 329.86L833.2 328.59L837.82 326.28L838.45 327.55L833.83 329.86Z" fill="#A69374"/>
<path d="M801.12 385.05L799.84 384.41L804.4 375.3L805.68 375.93L801.12 385.05Z" fill="#A69374"/>
<path d="M791.99 403.3L790.72 402.67L793 398.09L794.28 398.73L791.99 403.3Z" fill="#A69374"/>
<path d="M1030.58 159.08L1029.95 157.81L1034.96 155.3L1035.59 156.58L1030.58 159.08Z" fill="#A69374"/>
<path d="M950.47 200.61L949.2 199.98L950.39 197.59L951.1 197.24L951.73 198.51L951.45 198.65L950.47 200.61Z" fill="#A69374"/>
<path d="M786.36 399.29L785.09 398.66L789.65 389.52L790.93 390.16L786.36 399.29Z" fill="#A69374"/>
<path d="M1033.09 149.63L1031.82 149L1034.22 144.19L1035.49 144.83L1033.09 149.63Z" fill="#A69374"/>
<path d="M1024.39 154.54L1023.76 153.27L1028.53 150.88L1029.16 152.15L1024.39 154.54Z" fill="#A69374"/>
<path d="M940.04 206.19L938.77 205.55L945.3 192.5L955.24 187.53L955.87 188.8L946.359 193.56L940.04 206.19Z" fill="#A69374"/>
<path d="M830.69 316.17L830.05 314.89L839.19 310.32L839.83 311.59L830.69 316.17Z" fill="#A69374"/>
<path d="M780.73 395.29L779.45 394.65L786.3 380.95L787.57 381.58L780.73 395.29Z" fill="#A69374"/>
<path d="M1018.2 150L1017.57 148.73L1026.78 144.12L1027.06 144.67L1027.79 144.96L1027.68 145.17L1027.42 145.39L1018.2 150Z" fill="#A69374"/>
<path d="M977.11 170.54L976.48 169.27L1003.83 155.6L1004.47 156.87L977.11 170.54Z" fill="#A69374"/>
<path d="M934.41 202.18L933.14 201.55L940.21 187.41L958.23 178.4L958.87 179.67L941.27 188.47L934.41 202.18Z" fill="#A69374"/>
<path d="M811.51 318.11L811.21 317.51L810.53 317.22L810.66 316.95L810.88 316.84L837.58 303.49L838.22 304.76L811.51 318.11Z" fill="#A69374"/>
<path d="M793.34 354.78L792.07 354.15L801.19 335.91L802.46 336.54L793.34 354.78Z" fill="#A69374"/>
<path d="M777.38 386.7L776.11 386.07L785.23 367.82L786.5 368.46L777.38 386.7Z" fill="#A69374"/>
<path d="M935.96 183.48L935.88 183.31L934.87 182.81L935.12 182.32L1021.48 139.14L1022.8 136.49L1024.07 137.13L1022.54 140.19L936.15 183.44L936.09 183.42L935.96 183.48Z" fill="#A69374"/>
<path d="M905.97 243.78L904.7 243.15L906.98 238.59L908.25 239.23L905.97 243.78Z" fill="#A69374"/>
<path d="M859.39 286.54L858.76 285.27L891.94 268.68L895.54 261.48L896.81 262.11L893 269.74L859.39 286.54Z" fill="#A69374"/>
<path d="M803.73 318.73L802.46 318.1L805.58 311.86L835.97 296.66L836.6 297.93L806.64 312.92L803.73 318.73Z" fill="#A69374"/>
<path d="M799.12 327.96L797.84 327.33L800.14 322.74L801.41 323.37L799.12 327.96Z" fill="#A69374"/>
<path d="M787.71 350.77L786.44 350.14L795.56 331.9L796.83 332.53L787.71 350.77Z" fill="#A69374"/>
<path d="M771.75 382.7L770.47 382.06L779.6 363.81L780.87 364.45L771.75 382.7Z" fill="#A69374"/>
<path d="M958.41 164.62L957.77 163.35L1016.6 133.94L1016.87 134.49L1017.61 134.77L1017.51 134.98L1017.23 135.21L958.41 164.62Z" fill="#A69374"/>
<path d="M860.53 278.33L859.9 277.06L886.85 263.59L900.45 236.38L901.72 237.02L887.91 264.65L860.53 278.33Z" fill="#A69374"/>
<path d="M781.17 348.57L779.9 347.93L800.49 306.76L837.11 288.46L837.74 289.73L801.55 307.82L781.17 348.57Z" fill="#A69374"/>
<path d="M774.34 362.24L773.07 361.61L775.34 357.05L776.62 357.68L774.34 362.24Z" fill="#A69374"/>
<path d="M767.49 375.93L766.22 375.29L770.79 366.17L772.06 366.8L767.49 375.93Z" fill="#A69374"/>
<path d="M943.65 164.37L943.01 163.1L1011.51 128.85L1011.82 129.47L1012.47 129.79L1012.36 130L1012.14 130.12L943.65 164.37Z" fill="#A69374"/>
<path d="M925.78 173.3L925.47 172.67L924.8 172.41L924.91 172.15L933.83 167.68L934.47 168.96L925.78 173.3Z" fill="#A69374"/>
<path d="M903.2 218.79L901.92 218.16L904.2 213.6L905.47 214.24L903.2 218.79Z" fill="#A69374"/>
<path d="M898.64 227.91L897.36 227.28L899.64 222.72L900.92 223.35L898.64 227.91Z" fill="#A69374"/>
<path d="M894.08 237.03L892.8 236.4L895.09 231.83L896.36 232.47L894.08 237.03Z" fill="#A69374"/>
<path d="M889.5 246.17L888.23 245.54L890.521 240.96L891.79 241.6L889.5 246.17Z" fill="#A69374"/>
<path d="M850.34 275.79L849.71 274.52L858.83 269.96L859.46 271.23L850.34 275.79Z" fill="#A69374"/>
<path d="M768.98 357.69L767.7 357.06L795.4 301.68L836.03 281.35L836.67 282.63L796.45 302.73L768.98 357.69Z" fill="#A69374"/>
<path d="M762.13 371.38L760.86 370.75L765.43 361.62L766.7 362.25L762.13 371.38Z" fill="#A69374"/>
<path d="M1009.12 121.2L1007.85 120.57L1010.23 115.81L1011.51 116.44L1009.12 121.2Z" fill="#A69374"/>
<path d="M918.43 173.05L917.16 172.42L919.84 167.04L1001.38 126.27L1002.02 127.55L920.9 168.1L918.43 173.05Z" fill="#A69374"/>
<path d="M893.28 223.36L892 222.73L901.12 204.49L902.39 205.13L893.28 223.36Z" fill="#A69374"/>
<path d="M849.27 268.69L848.64 267.42L857.76 262.85L858.4 264.13L849.27 268.69Z" fill="#A69374"/>
<path d="M768.17 344.02L766.9 343.39L790.3 296.58L834.96 274.25L835.6 275.53L791.36 297.64L768.17 344.02Z" fill="#A69374"/>
<path d="M1001.79 120.02L1001.35 119.16L1001.01 118.98L1002.45 116.1L1003.72 116.73L1002.17 119.83L1001.79 120.02Z" fill="#A69374"/>
<path d="M910.73 173.17L909.46 172.54L914.75 161.95L995.73 121.46L996.36 122.74L915.81 163.01L910.73 173.17Z" fill="#A69374"/>
<path d="M876.47 241.7L875.2 241.06L900.32 190.83L901.59 191.46L876.47 241.7Z" fill="#A69374"/>
<path d="M848.2 261.59L847.57 260.31L856.7 255.75L857.34 257.02L848.2 261.59Z" fill="#A69374"/>
<path d="M765.09 334.91L763.82 334.28L785.21 291.49L838.45 264.88L839.08 266.15L786.27 292.55L765.09 334.91Z" fill="#A69374"/>
<path d="M903.08 173.21L901.8 172.58L909.66 156.86L985.44 118.98L986.07 120.25L910.72 157.92L903.08 173.21Z" fill="#A69374"/>
<path d="M868.57 242.22L867.3 241.59L892.68 190.83L893.95 191.47L868.57 242.22Z" fill="#A69374"/>
<path d="M847.13 254.49L846.5 253.21L860.29 246.32L860.92 247.59L847.13 254.49Z" fill="#A69374"/>
<path d="M757.45 334.92L756.18 334.29L780.12 286.4L828.26 262.33L828.89 263.6L781.18 287.46L757.45 334.92Z" fill="#A69374"/>
<path d="M893.15 177.8L891.87 177.16L904.57 151.77L966.09 121.01L966.72 122.29L905.63 152.83L893.15 177.8Z" fill="#A69374"/>
<path d="M754.37 325.81L753.1 325.18L775.03 281.31L861.39 238.13L882.76 195.4L884.03 196.03L862.45 239.19L776.09 282.37L754.37 325.81Z" fill="#A69374"/>
<path d="M620.15 464.71L618.88 464.07L625.72 450.4L626.99 451.03L620.15 464.71Z" fill="#A69374"/>
<path d="M751.289 316.7L750.02 316.07L769.94 276.22L856.299 233.04L899.479 146.68L951.339 120.75L951.969 122.02L900.54 147.74L857.359 234.1L771 277.28L751.289 316.7Z" fill="#A69374"/>
<path d="M719.85 367.63L719.21 366.35L724.03 363.94L724.66 365.22L719.85 367.63Z" fill="#A69374"/>
<path d="M612.51 464.72L611.24 464.08L629.47 427.61L630.75 428.24L612.51 464.72Z" fill="#A69374"/>
<path d="M743.65 316.71L742.38 316.08L764.85 271.13L851.21 227.95L894.39 141.59L950.26 113.65L950.9 114.92L895.45 142.65L852.27 229.01L765.91 272.19L743.65 316.71Z" fill="#A69374"/>
<path d="M714.21 362.81L713.57 361.54L721.88 357.38L722.18 357.97L722.86 358.28L722.76 358.49L722.52 358.65L714.21 362.81Z" fill="#A69374"/>
<path d="M609.43 455.61L608.16 454.97L626.4 418.49L627.67 419.13L609.43 455.61Z" fill="#A69374"/>
<path d="M729.17 330.4L727.9 329.76L759.76 266.04L846.12 222.86L889.3 136.5L940.07 111.11L940.71 112.38L890.36 137.56L847.18 223.92L760.82 267.1L729.17 330.4Z" fill="#A69374"/>
<path d="M703.97 360.29L703.33 359.02L716.79 352.29L717.43 353.57L703.97 360.29Z" fill="#A69374"/>
<path d="M610.91 437.38L609.63 436.75L611.91 432.19L613.18 432.83L610.91 437.38Z" fill="#A69374"/>
<path d="M702.93 353.18L702.29 351.9L711.49 347.31L754.67 260.95L841.03 217.77L884.21 131.41L929.88 108.57L930.52 109.84L885.27 132.47L842.09 218.83L755.73 262.01L712.55 348.37L702.93 353.18Z" fill="#A69374"/>
<path d="M550.29 494.26L549.66 492.99L577.18 479.23L577.82 480.5L550.29 494.26Z" fill="#A69374"/>
<path d="M701.95 346.03L701.32 344.76L706.4 342.22L749.58 255.85L835.94 212.68L879.12 126.32L919.69 106.03L920.33 107.3L880.18 127.37L837 213.74L750.64 256.91L707.46 343.28L701.95 346.03Z" fill="#A69374"/>
<path d="M595.62 437.4L594.35 436.76L603.47 418.53L604.74 419.17L595.62 437.4Z" fill="#A69374"/>
<path d="M581.91 464.84L580.63 464.2L587.51 450.44L588.78 451.08L581.91 464.84Z" fill="#A69374"/>
<path d="M540.1 491.72L539.47 490.45L576.86 471.76L578.22 469.02L579.5 469.65L577.92 472.82L540.1 491.72Z" fill="#A69374"/>
<path d="M696.3 341.22L695.67 339.94L701.31 337.12L744.49 250.77L830.85 207.59L874.03 121.22L914.06 101.21L914.7 102.48L875.09 122.28L831.91 208.64L745.55 251.83L702.37 338.18L696.3 341.22Z" fill="#A69374"/>
<path d="M534.47 486.9L533.84 485.63L571.77 466.67L600.39 409.42L601.66 410.06L572.83 467.72L534.47 486.9Z" fill="#A69374"/>
<path d="M696.38 333.54L695.75 332.27L696.21 332.03L739.4 245.67L825.76 202.49L868.93 116.13L903.87 98.6699L904.51 99.9399L869.99 117.19L826.82 203.55L740.45 246.73L697.27 333.09L696.38 333.54Z" fill="#A69374"/>
<path d="M533.4 479.8L532.77 478.53L566.669 461.58L609.859 375.21L626.06 367.11L626.7 368.38L610.909 376.27L567.729 462.64L533.4 479.8Z" fill="#A69374"/>
<path d="M912.55 88.2798L911.92 87L925.59 80.1699L926.23 81.4399L912.55 88.2798Z" fill="#A69374"/>
<path d="M889.76 99.6699L889.12 98.3999L902.8 91.5601L903.43 92.8398L889.76 99.6699Z" fill="#A69374"/>
<path d="M695.47 321.44L694.19 320.8L734.3 240.58L820.67 197.4L863.85 111.04L879.99 102.97L880.63 104.24L864.91 112.1L821.72 198.46L735.36 241.64L695.47 321.44Z" fill="#A69374"/>
<path d="M527.77 474.98L527.13 473.71L561.58 456.48L604.76 370.12L629.56 357.72L630.2 359L605.82 371.18L562.64 457.54L527.77 474.98Z" fill="#A69374"/>
<path d="M906.92 83.46L906.29 82.1899L915.4 77.6299L916.04 78.8999L906.92 83.46Z" fill="#A69374"/>
<path d="M888.69 92.5698L888.05 91.2998L897.17 86.7402L897.8 88.02L888.69 92.5698Z" fill="#A69374"/>
<path d="M865.77 104.03L865.13 102.76L869.77 100.44L870.41 101.71L865.77 104.03Z" fill="#A69374"/>
<path d="M687.34 322.41L686.07 321.78L729.21 235.49L815.57 192.31L858.75 105.95L859.45 105.6L860.09 106.88L859.81 107.01L816.63 193.37L730.27 236.55L687.34 322.41Z" fill="#A69374"/>
<path d="M526.7 467.88L526.06 466.61L556.49 451.39L599.67 365.03L633.05 348.34L633.69 349.62L600.73 366.09L557.55 452.45L526.7 467.88Z" fill="#A69374"/>
<path d="M887.62 85.4702L886.98 84.2002L905.21 75.0801L905.85 76.3599L887.62 85.4702Z" fill="#A69374"/>
<path d="M684.72 312.38L683.45 311.74L724.12 230.4L810.48 187.22L853.66 100.86L859.48 97.9502L860.12 99.2202L854.72 101.92L811.54 188.28L725.18 231.46L684.72 312.38Z" fill="#A69374"/>
<path d="M525.62 460.78L524.99 459.51L551.4 446.3L594.58 359.94L618.3 348.08L618.93 349.35L595.64 361L552.46 447.36L525.62 460.78Z" fill="#A69374"/>
<path d="M881.98 80.6499L881.35 79.3799L899.58 70.2598L900.22 71.54L881.98 80.6499Z" fill="#A69374"/>
<path d="M677.03 312.5L675.75 311.87L719.03 225.31L805.39 182.13L848.57 95.77L858.5 90.8101L859.13 92.0801L849.63 96.8301L806.45 183.19L720.09 226.37L677.03 312.5Z" fill="#A69374"/>
<path d="M524.55 453.68L523.92 452.41L546.31 441.21L589.49 354.85L658.27 320.46L658.9 321.74L590.55 355.91L547.37 442.27L524.55 453.68Z" fill="#A69374"/>
<path d="M668.95 309.08L668.31 307.8L670.76 306.58L713.94 220.22L800.3 177.04L843.48 90.6802L854.5 85.1699L855.13 86.4399L844.54 91.7402L801.36 178.1L715 221.28L671.82 307.64L668.95 309.08Z" fill="#A69374"/>
<path d="M609.29 338.9L608.66 337.63L658.84 312.54L659.47 313.81L609.29 338.9Z" fill="#A69374"/>
<path d="M520.54 448.05L519.91 446.78L541.22 436.12L584.4 349.76L604.09 339.91L604.73 341.19L585.46 350.82L542.28 437.18L520.54 448.05Z" fill="#A69374"/>
<path d="M657.9 306.96L657.26 305.69L665.67 301.49L708.85 215.13L795.21 171.95L836.54 89.29L837.81 89.9302L796.27 173.01L709.91 216.19L666.73 302.55L657.9 306.96Z" fill="#A69374"/>
<path d="M607.68 332.07L607.05 330.8L652.66 307.99L653.29 309.26L607.68 332.07Z" fill="#A69374"/>
<path d="M518.94 441.21L518.3 439.94L536.13 431.03L579.31 344.67L597.92 335.36L598.55 336.64L580.37 345.73L537.19 432.09L518.94 441.21Z" fill="#A69374"/>
<path d="M642.54 307L641.91 305.73L660.58 296.4L703.76 210.04L790.12 166.86L828.52 90.0601L829.79 90.6899L791.18 167.92L704.82 211.1L661.64 297.46L642.54 307Z" fill="#A69374"/>
<path d="M601.51 327.52L600.88 326.25L637.35 308.01L637.98 309.29L601.51 327.52Z" fill="#A69374"/>
<path d="M517.34 434.38L516.7 433.1L531.04 425.94L574.22 339.58L596.31 328.53L596.95 329.8L575.28 340.64L532.1 427L517.34 434.38Z" fill="#A69374"/>
<path d="M640.94 300.17L640.31 298.9L655.49 291.31L698.67 204.95L785.03 161.77L822.88 86.0601L824.15 86.6899L786.09 162.83L699.73 206.01L656.55 292.37L640.94 300.17Z" fill="#A69374"/>
<path d="M599.9 320.69L599.26 319.42L631.17 303.46L631.81 304.74L599.9 320.69Z" fill="#A69374"/>
<path d="M520.38 425.22L519.75 423.95L525.95 420.85L569.13 334.49L594.7 321.7L595.34 322.97L570.19 335.55L527.01 421.91L520.38 425.22Z" fill="#A69374"/>
<path d="M522.16 416.32L520.89 415.69L564.04 329.4L650.4 286.22L693.58 199.85L779.94 156.68L817.24 82.0601L818.52 82.6899L781 157.74L694.64 200.91L651.46 287.28L565.09 330.46L522.16 416.32Z" fill="#A69374"/>
<path d="M592.11 309.31L591.48 308.04L645.31 281.12L688.49 194.77L774.85 151.58L809.32 82.6401L810.591 83.27L775.901 152.64L689.55 195.82L646.36 282.18L592.11 309.31Z" fill="#A69374"/>
<path d="M519.26 406.85L517.99 406.22L558.95 324.31L586.92 310.32L587.56 311.59L560.01 325.36L519.26 406.85Z" fill="#A69374"/>
<path d="M804.96 79.2598L803.69 78.6299L812.83 60.3501L814.1 60.98L804.96 79.2598Z" fill="#A69374"/>
<path d="M515.96 398.17L514.69 397.54L553.85 319.21L640.21 276.03L683.39 189.67L769.76 146.49L801.41 83.1899L802.68 83.8301L770.82 147.55L684.45 190.73L641.27 277.09L554.91 320.27L515.96 398.17Z" fill="#A69374"/>
<path d="M512.63 389.56L511.36 388.93L548.76 314.12L635.12 270.94L678.3 184.58L764.66 141.4L807.64 55.4502L808.91 56.0801L765.72 142.46L679.36 185.64L636.18 272L549.82 315.18L512.63 389.56Z" fill="#A69374"/>
<path d="M300.55 568.096L299.351 568.694L299.984 569.965L301.183 569.367L300.55 568.096Z" fill="#A69374"/>
<path d="M639.19 250.71L637.92 250.07L673.21 179.49L759.57 136.31L799.56 56.3301L800.83 56.9702L760.63 137.37L674.27 180.55L639.19 250.71Z" fill="#A69374"/>
<path d="M511.82 375.92L510.54 375.29L543.67 309.03L630.03 265.85L630.73 264.45L632.01 265.08L631.09 266.91L544.73 310.09L511.82 375.92Z" fill="#A69374"/>
<path d="M285.51 569.44L284.25 568.81L284.59 568.11L295.61 562.61L296.24 563.88L285.65 569.17L285.51 569.44Z" fill="#A69374"/>
<path d="M636.12 241.59L634.84 240.96L668.12 174.4L754.48 131.22L791.88 56.4199L793.15 57.0601L755.54 132.28L669.18 175.46L636.12 241.59Z" fill="#A69374"/>
<path d="M582.13 283.76L581.49 282.49L624.94 260.76L625.1 260.45L626.37 261.09L626 261.82L582.13 283.76Z" fill="#A69374"/>
<path d="M506.46 371.37L505.18 370.74L538.58 303.94L576.93 284.77L577.57 286.04L539.64 305L506.46 371.37Z" fill="#A69374"/>
<path d="M278.72 567.77L277.44 567.13L279.5 563.02L289.97 557.79L290.6 559.06L280.56 564.08L278.72 567.77Z" fill="#A69374"/>
<path d="M790.1 47.8999L788.83 47.2598L791.28 42.3398L792.56 42.98L790.1 47.8999Z" fill="#A69374"/>
<path d="M637.6 223.35L636.33 222.72L663.03 169.31L749.39 126.13L786.52 51.8799L787.79 52.5098L750.45 127.19L664.09 170.37L637.6 223.35Z" fill="#A69374"/>
<path d="M630.76 237.04L629.48 236.41L634.05 227.28L635.32 227.91L630.76 237.04Z" fill="#A69374"/>
<path d="M585.61 274.38L584.98 273.11L619.85 255.67L627.201 240.98L628.47 241.61L620.91 256.73L585.61 274.38Z" fill="#A69374"/>
<path d="M498.81 371.39L497.53 370.76L533.49 298.85L562.19 284.5L562.82 285.77L534.55 299.91L498.81 371.39Z" fill="#A69374"/>
<path d="M273.74 562.46L272.46 561.82L274.41 557.93L284.33 552.97L284.97 554.24L275.47 558.99L273.74 562.46Z" fill="#A69374"/>
<path d="M782.43 47.96L781.16 47.3301L785.86 37.9102L787.14 38.54L782.43 47.96Z" fill="#A69374"/>
<path d="M629.96 223.36L628.68 222.73L657.94 164.22L744.3 121.04L778.87 51.9102L780.14 52.54L745.36 122.1L659 165.28L629.96 223.36Z" fill="#A69374"/>
<path d="M589.1 265L588.46 263.73L614.76 250.58L621.84 236.43L623.11 237.06L615.82 251.64L589.1 265Z" fill="#A69374"/>
<path d="M575.42 271.84L574.79 270.56L579.35 268.29L579.98 269.56L575.42 271.84Z" fill="#A69374"/>
<path d="M493.45 366.85L492.17 366.21L528.4 293.76L556.55 279.68L557.19 280.95L529.46 294.82L493.45 366.85Z" fill="#A69374"/>
<path d="M270.16 554.01L270 553.68L269.12 553.24L269.32 552.84L287.87 543.57L288.5 544.84L270.16 554.01Z" fill="#A69374"/>
<path d="M774.78 47.9902L773.5 47.3599L780.47 33.4302L781.74 34.0698L774.78 47.9902Z" fill="#A69374"/>
<path d="M569.79 267.02L569.16 265.74L609.67 245.49L652.85 159.13L739.21 115.95L766.66 61.0498L767.93 61.6802L740.27 117.01L653.91 160.19L610.73 246.55L569.79 267.02Z" fill="#A69374"/>
<path d="M556.12 273.85L555.48 272.58L560.04 270.3L560.67 271.58L556.12 273.85Z" fill="#A69374"/>
<path d="M483.43 371.6L482.16 370.97L523.31 288.67L532.62 284.01L533.26 285.28L524.37 289.73L483.43 371.6Z" fill="#A69374"/>
<path d="M265.07 548.92L264.98 548.73L263.99 548.23L264.23 547.75L295.92 531.9L296.56 533.17L265.26 548.87L265.21 548.84L265.07 548.92Z" fill="#A69374"/>
<path d="M769.41 43.4399L768.14 42.8101L775.08 28.9302L776.36 29.5601L769.41 43.4399Z" fill="#A69374"/>
<path d="M605.37 241.59L605.1 240.92L604.47 240.61L647.76 154.04L734.12 110.86L759.02 61.0601L760.29 61.6899L735.18 111.92L648.82 155.1L605.62 241.49L605.37 241.59Z" fill="#A69374"/>
<path d="M564.16 262.2L563.53 260.92L595.5 244.94L596.13 246.21L564.16 262.2Z" fill="#A69374"/>
<path d="M475.88 371.1L475.53 370.45L474.93 370.15L518.22 283.58L526.98 279.2L527.62 280.47L519.28 284.64L476.1 371L475.88 371.1Z" fill="#A69374"/>
<path d="M263.27 542.18L262.64 540.91L290.29 527.08L290.92 528.35L263.27 542.18Z" fill="#A69374"/>
<path d="M761.77 43.46L760.5 42.8301L767.36 29.0898L768.64 29.73L761.77 43.46Z" fill="#A69374"/>
<path d="M692.87 125.44L692.23 124.16L729.031 105.77L751.38 61.0601L752.651 61.7002L730.091 106.83L692.87 125.44Z" fill="#A69374"/>
<path d="M600.33 236.47L599.93 235.79L599.38 235.52L642.67 148.95L687.67 126.44L688.31 127.71L643.73 150L600.55 236.37L600.33 236.47Z" fill="#A69374"/>
<path d="M558.53 257.38L557.89 256.1L585.27 242.42L585.9 243.69L558.53 257.38Z" fill="#A69374"/>
<path d="M549.41 261.93L548.78 260.66L553.34 258.38L553.97 259.65L549.41 261.93Z" fill="#A69374"/>
<path d="M460.71 371.05L460.08 369.78L469.95 364.85L513.13 278.49L516.56 276.77L517.19 278.04L514.19 279.55L471.01 365.91L460.71 371.05Z" fill="#A69374"/>
<path d="M365.95 446.48L364.68 445.85L371.52 432.17L372.79 432.8L365.95 446.48Z" fill="#A69374"/>
<path d="M267.02 532.67L266.39 531.4L298.33 515.42L298.97 516.69L267.02 532.67Z" fill="#A69374"/>
<path d="M756.41 38.9102L755.14 38.2798L764.33 19.8901L765.6 20.52L756.41 38.9102Z" fill="#A69374"/>
<path d="M700.91 113.78L700.28 112.5L723.94 100.68L741.46 65.6299L742.73 66.2598L725 101.73L700.91 113.78Z" fill="#A69374"/>
<path d="M594.98 231.51L594.49 230.53L594.29 230.43L594.37 230.27L594.35 230.24L594.4 230.21L637.58 143.86L695.72 114.78L696.35 116.06L638.64 144.92L595.46 231.28L594.98 231.51Z" fill="#A69374"/>
<path d="M557.46 250.28L556.82 249L565.94 244.44L566.57 245.72L557.46 250.28Z" fill="#A69374"/>
<path d="M543.78 257.11L543.15 255.84L552.26 251.28L552.9 252.55L543.78 257.11Z" fill="#A69374"/>
<path d="M525.53 266.24L524.9 264.96L529.47 262.68L530.1 263.95L525.53 266.24Z" fill="#A69374"/>
<path d="M455.08 366.23L454.44 364.96L464.86 359.76L508.04 273.4L515.7 269.56L516.34 270.84L509.1 274.46L465.92 360.81L455.08 366.23Z" fill="#A69374"/>
<path d="M353.75 455.61L352.48 454.97L378.49 402.94L385.92 399.23L386.55 400.5L379.55 404L353.75 455.61Z" fill="#A69374"/>
<path d="M311.57 502.76L310.94 501.49L320.07 496.92L320.71 498.19L311.57 502.76Z" fill="#A69374"/>
<path d="M265.97 525.56L265.33 524.29L306.38 503.77L307.01 505.04L265.97 525.56Z" fill="#A69374"/>
<path d="M751.049 34.3599L749.77 33.73L756.64 20L757.909 20.6401L751.049 34.3599Z" fill="#A69374"/>
<path d="M699.85 106.67L699.21 105.4L718.85 95.5801L726.97 79.3301L728.25 79.96L719.91 96.6401L699.85 106.67Z" fill="#A69374"/>
<path d="M579.22 231.76L578.59 230.48L589.3 225.12L632.49 138.76L694.65 107.68L695.28 108.95L633.54 139.82L590.36 226.18L579.22 231.76Z" fill="#A69374"/>
<path d="M538.15 252.29L537.52 251.02L569.43 235.06L570.07 236.33L538.15 252.29Z" fill="#A69374"/>
<path d="M519.9 261.42L519.27 260.14L532.96 253.3L533.59 254.57L519.9 261.42Z" fill="#A69374"/>
<path d="M449.44 361.42L448.8 360.15L459.76 354.67L502.95 268.3L514.68 262.44L515.32 263.71L504.01 269.36L460.82 355.73L449.44 361.42Z" fill="#A69374"/>
<path d="M269.47 516.17L268.84 514.9L330.22 484.21L373.4 397.84L374.74 397.18L375.37 398.45L374.46 398.9L331.28 485.27L269.47 516.17Z" fill="#A69374"/>
<path d="M747.97 25.25L746.7 24.6099L751.27 15.46L752.55 16.0898L747.97 25.25Z" fill="#A69374"/>
<path d="M698.78 99.5698L698.15 98.2998L713.76 90.4902L719.32 79.3599L720.59 80L714.81 91.5498L698.78 99.5698Z" fill="#A69374"/>
<path d="M680.53 108.69L679.9 107.42L693.58 100.58L694.21 101.85L680.53 108.69Z" fill="#A69374"/>
<path d="M578.21 224.62L577.58 223.35L584.21 220.03L627.39 133.67L675.34 109.7L675.97 110.97L628.45 134.73L585.27 221.09L578.21 224.62Z" fill="#A69374"/>
<path d="M541.64 242.91L541 241.64L572.95 225.67L573.59 226.94L541.64 242.91Z" fill="#A69374"/>
<path d="M527.96 249.75L527.33 248.48L536.44 243.92L537.08 245.19L527.96 249.75Z" fill="#A69374"/>
<path d="M443.8 356.6L443.17 355.33L454.67 349.57L497.85 263.21L498.69 262.8L499.32 264.07L498.91 264.27L455.73 350.63L443.8 356.6Z" fill="#A69374"/>
<path d="M268.4 509.07L267.77 507.8L325.13 479.11L368.31 392.75L368.96 392.43L369.6 393.7L369.37 393.81L326.19 480.17L268.4 509.07Z" fill="#A69374"/>
<path d="M740.33 25.2598L739.05 24.6201L741.34 20.0601L742.61 20.6899L740.33 25.2598Z" fill="#A69374"/>
<path d="M679.46 101.59L678.83 100.32L692.52 93.4702L693.15 94.75L679.46 101.59Z" fill="#A69374"/>
<path d="M536 238.09L535.37 236.82L579.12 214.94L622.3 128.58L669.71 104.88L670.34 106.15L623.36 129.64L580.18 216L536 238.09Z" fill="#A69374"/>
<path d="M522.33 244.93L521.7 243.66L530.81 239.1L531.45 240.37L522.33 244.93Z" fill="#A69374"/>
<path d="M508.63 251.78L508 250.5L512.57 248.22L513.2 249.49L508.63 251.78Z" fill="#A69374"/>
<path d="M438.17 351.78L437.53 350.51L449.58 344.48L491.32 261L492.6 261.64L450.64 345.54L438.17 351.78Z" fill="#A69374"/>
<path d="M271.89 499.69L271.25 498.42L320.04 474.02L361.64 390.83L362.91 391.46L321.1 475.08L271.89 499.69Z" fill="#A69374"/>
<path d="M678.39 94.4902L677.75 93.2202L696.08 84.0601L696.71 85.3301L678.39 94.4902Z" fill="#A69374"/>
<path d="M655.6 105.89L654.96 104.62L659.52 102.34L660.15 103.61L655.6 105.89Z" fill="#A69374"/>
<path d="M516.7 240.11L516.06 238.84L574.03 209.85L617.21 123.49L641.28 111.46L641.92 112.73L618.27 124.55L575.09 210.91L516.7 240.11Z" fill="#A69374"/>
<path d="M507.57 244.67L506.94 243.4L511.5 241.12L512.14 242.39L507.57 244.67Z" fill="#A69374"/>
<path d="M488.62 254.15L487.99 252.87L497.77 247.98L498.41 249.25L488.62 254.15Z" fill="#A69374"/>
<path d="M437.14 344.66L436.51 343.38L444.49 339.39L481.22 265.93L482.49 266.56L445.55 340.45L437.14 344.66Z" fill="#A69374"/>
<path d="M270.81 492.59L270.18 491.32L314.95 468.93L356.24 386.35L357.51 386.99L316.01 469.99L270.81 492.59Z" fill="#A69374"/>
<path d="M686.46 82.8198L685.83 81.5498L690.43 79.2402L691.07 80.52L686.46 82.8198Z" fill="#A69374"/>
<path d="M645.409 103.35L644.77 102.08L649.33 99.7998L649.96 101.07L645.409 103.35Z" fill="#A69374"/>
<path d="M524.74 228.45L524.11 227.18L568.94 204.76L612.12 118.4L617.25 115.84L617.88 117.11L613.18 119.46L570 205.82L524.74 228.45Z" fill="#A69374"/>
<path d="M511.07 235.29L510.43 234.02L519.55 229.46L520.18 230.73L511.07 235.29Z" fill="#A69374"/>
<path d="M431.5 339.84L430.87 338.57L439.4 334.3L482.58 247.94L492.14 243.16L492.77 244.44L483.64 249L440.46 335.36L431.5 339.84Z" fill="#A69374"/>
<path d="M274.3 483.21L273.66 481.94L309.86 463.84L350.85 381.85L352.13 382.49L310.92 464.9L274.3 483.21Z" fill="#A69374"/>
<path d="M639.77 98.5298L639.14 97.25L648.26 92.6899L648.89 93.9702L639.77 98.5298Z" fill="#A69374"/>
<path d="M621.51 107.66L620.88 106.38L625.46 104.1L626.09 105.37L621.51 107.66Z" fill="#A69374"/>
<path d="M467.2 266.61L465.93 265.98L477.49 242.85L563.85 199.67L597.87 131.63L599.15 132.26L564.91 200.73L478.55 243.91L467.2 266.61Z" fill="#A69374"/>
<path d="M435.21 330.35L434.83 329.73L434.2 329.42L463.65 270.54L464.92 271.17L435.38 330.24L435.21 330.35Z" fill="#A69374"/>
<path d="M273.22 476.11L272.59 474.84L304.77 458.75L343.13 382.02L344.41 382.65L305.83 459.81L273.22 476.11Z" fill="#A69374"/>
<path d="M634.14 93.71L633.51 92.4302L647.18 85.6001L647.82 86.8701L634.14 93.71Z" fill="#A69374"/>
<path d="M593.78 127.71L592.51 127.08L599.43 113.23L600.71 113.86L593.78 127.71Z" fill="#A69374"/>
<path d="M459.56 266.62L458.29 265.98L472.4 237.76L558.76 194.58L587.95 136.2L589.22 136.84L559.82 195.64L473.46 238.82L459.56 266.62Z" fill="#A69374"/>
<path d="M432.06 321.62L430.79 320.98L433.17 316.21L434.45 316.84L432.06 321.62Z" fill="#A69374"/>
<path d="M276.71 466.73L276.08 465.46L299.68 453.66L337.77 377.47L339.04 378.11L300.74 454.72L276.71 466.73Z" fill="#A69374"/>
<path d="M633.07 86.6001L632.44 85.3301L659.79 71.6602L660.42 72.9302L633.07 86.6001Z" fill="#A69374"/>
<path d="M588.42 123.16L587.15 122.53L594.06 108.7L595.33 109.34L588.42 123.16Z" fill="#A69374"/>
<path d="M480.46 227.68L479.83 226.41L553.67 189.49L584.87 127.09L586.14 127.73L554.73 190.55L480.46 227.68Z" fill="#A69374"/>
<path d="M458.76 252.94L457.49 252.31L467.1 233.1L468.37 233.73L458.76 252.94Z" fill="#A69374"/>
<path d="M275.64 459.63L275.01 458.36L294.59 448.57L332.41 372.93L333.68 373.56L295.65 449.63L275.64 459.63Z" fill="#A69374"/>
<path d="M641.12 74.9502L640.48 73.6802L678.12 54.8599L679.341 52.4102L680.62 53.04L679.18 55.9199L641.12 74.9502Z" fill="#A69374"/>
<path d="M474.83 222.86L474.19 221.59L548.58 184.4L586.37 108.82L587.64 109.45L549.64 185.46L474.83 222.86Z" fill="#A69374"/>
<path d="M457.98 239.24L456.7 238.6L461.87 228.28L463.14 228.91L457.98 239.24Z" fill="#A69374"/>
<path d="M279.17 450.23L278.53 448.96L289.5 443.48L327.04 368.39L328.32 369.02L290.56 444.54L279.17 450.23Z" fill="#A69374"/>
<path d="M552.28 164.9L551.01 164.27L580.67 104.95L581.94 105.58L552.28 164.9Z" fill="#A69374"/>
<path d="M541.95 181.66L541.32 180.39L543.49 179.31L548.71 168.85L549.98 169.49L544.55 180.37L541.95 181.66Z" fill="#A69374"/>
<path d="M473.1 216.09L472.47 214.81L536.41 182.85L537.04 184.12L473.1 216.09Z" fill="#A69374"/>
<path d="M277.47 443.44L276.84 442.17L284.4 438.39L323.65 359.9L324.92 360.53L285.46 439.45L277.47 443.44Z" fill="#A69374"/>
<path d="M548.93 156.32L547.66 155.69L575.03 100.94L576.3 101.58L548.93 156.32Z" fill="#A69374"/>
<path d="M494.31 197.85L493.67 196.58L516.47 185.18L517.1 186.45L494.31 197.85Z" fill="#A69374"/>
<path d="M480.63 204.69L480 203.41L489.11 198.86L489.75 200.13L480.63 204.69Z" fill="#A69374"/>
<path d="M275.99 436.55L275.36 435.27L279.32 433.3L315.71 360.51L316.98 361.14L280.38 434.36L275.99 436.55Z" fill="#A69374"/>
<path d="M674.237 17.44L671.953 22.0229L673.224 22.6562L675.508 18.0733L674.237 17.44Z" fill="#A69374"/>
<path d="M552.42 134.07L551.15 133.43L571.69 92.3398L572.97 92.98L552.42 134.07Z" fill="#A69374"/>
<path d="M547.86 143.18L546.59 142.55L548.87 137.99L550.14 138.62L547.86 143.18Z" fill="#A69374"/>
<path d="M538.71 161.49L537.44 160.86L539.74 156.26L541.01 156.89L538.71 161.49Z" fill="#A69374"/>
<path d="M520.07 177.33L519.43 176.06L533.49 169.03L534.12 170.31L520.07 177.33Z" fill="#A69374"/>
<path d="M510.93 181.9L510.29 180.63L514.86 178.35L515.49 179.62L510.93 181.9Z" fill="#A69374"/>
<path d="M465.33 204.7L464.69 203.43L487.5 192.03L488.13 193.3L465.33 204.7Z" fill="#A69374"/>
<path d="M269.76 432.03L269.12 430.76L274.22 428.21L310.07 356.5L311.35 357.14L275.28 429.27L269.76 432.03Z" fill="#A69374"/>
<path d="M662.75 27.6802L661.47 27.0498L666.08 17.8398L667.35 18.4702L662.75 27.6802Z" fill="#A69374"/>
<path d="M504.76 177.35L504.12 176.08L528.22 164.03L563.76 92.9399L565.03 93.5698L529.27 165.09L504.76 177.35Z" fill="#A69374"/>
<path d="M463.72 197.87L463.09 196.6L485.89 185.2L486.52 186.47L463.72 197.87Z" fill="#A69374"/>
<path d="M263.55 427.5L262.91 426.22L269.13 423.11L304.44 352.5L305.71 353.13L270.19 424.17L263.55 427.5Z" fill="#A69374"/>
<path d="M654.33 29.25L653.05 28.6201L658.16 18.4199L659.43 19.0498L654.33 29.25Z" fill="#A69374"/>
<path d="M507.72 168.24L507.08 166.96L523.12 158.94L555.85 93.5L557.12 94.1299L524.18 160L507.72 168.24Z" fill="#A69374"/>
<path d="M466.67 188.76L466.04 187.48L479.72 180.65L480.35 181.92L466.67 188.76Z" fill="#A69374"/>
<path d="M448.39 197.9L447.76 196.62L461.48 189.76L462.12 191.04L448.39 197.9Z" fill="#A69374"/>
<path d="M262.21 420.53L261.57 419.26L264.04 418.02L298.81 348.49L300.08 349.12L265.1 419.08L262.21 420.53Z" fill="#A69374"/>
<path d="M645.31 27.0298L644.67 25.7598L647.57 24.3101L654.84 9.77002L656.11 10.3999L648.63 25.3701L645.31 27.0298Z" fill="#A69374"/>
<path d="M496.98 165.97L496.34 164.7L518.03 153.85L545.65 98.6099L546.92 99.2402L519.09 154.91L496.98 165.97Z" fill="#A69374"/>
<path d="M451.38 188.77L450.74 187.5L473.54 176.1L474.18 177.37L451.38 188.77Z" fill="#A69374"/>
<path d="M255.89 416.05L255.25 414.78L258.95 412.93L290.89 349.05L292.16 349.68L260.01 413.99L255.89 416.05Z" fill="#A69374"/>
<path d="M629.72 27.1899L629.09 25.9199L642.69 19.1099L642.86 19.4399L643.74 19.8799L643.54 20.2798L629.72 27.1899Z" fill="#A69374"/>
<path d="M499.94 156.85L499.31 155.58L512.94 148.76L535.46 103.72L536.74 104.35L514 149.82L499.94 156.85Z" fill="#A69374"/>
<path d="M458.89 177.37L458.26 176.1L476.49 166.99L477.12 168.26L458.89 177.37Z" fill="#A69374"/>
<path d="M254.7 409.01L254.33 408.34L253.75 408.06L287.54 340.47L288.82 341.11L254.92 408.91L254.7 409.01Z" fill="#A69374"/>
<path d="M618.98 24.9199L618.34 23.6499L632.16 16.7402L632.8 18.02L618.98 24.9199Z" fill="#A69374"/>
<path d="M498.35 150.01L497.72 148.73L507.85 143.67L509.13 141.1L510.41 141.74L508.91 144.73L498.35 150.01Z" fill="#A69374"/>
<path d="M461.84 168.27L461.2 166.99L474.88 160.16L475.51 161.43L461.84 168.27Z" fill="#A69374"/>
<path d="M249.12 404.17L248.48 402.89L248.77 402.75L277.35 345.59L278.62 346.23L249.83 403.81L249.12 404.17Z" fill="#A69374"/>
<path d="M612.8 20.3799L612.17 19.1001L616.74 16.8198L617.37 18.0898L612.8 20.3799Z" fill="#A69374"/>
<path d="M275.27 337.65L274 337.02L276.28 332.46L277.55 333.09L275.27 337.65Z" fill="#A69374"/>
<path d="M247.85 392.49L246.58 391.86L269.44 346.14L270.71 346.77L247.85 392.49Z" fill="#A69374"/>
<path d="M266.73 339.45L265.46 338.82L270.02 329.7L271.3 330.33L266.73 339.45Z" fill="#A69374"/>
<path d="M257.62 357.69L256.35 357.05L258.63 352.49L259.9 353.13L257.62 357.69Z" fill="#A69374"/>
<path d="M261.37 334.9L260.1 334.27L262.38 329.71L263.65 330.34L261.37 334.9Z" fill="#A69374"/>
<path d="M247.7 362.25L246.43 361.62L250.99 352.5L252.26 353.13L247.7 362.25Z" fill="#A69374"/>
<path d="M256.01 330.35L254.74 329.72L259.3 320.6L260.57 321.23L256.01 330.35Z" fill="#A69374"/>
<path d="M242.34 357.7L241.06 357.07L243.35 352.51L244.62 353.14L242.34 357.7Z" fill="#A69374"/>
<path d="M252.04 323.03L250.77 322.39L255.33 313.27L256.6 313.91L252.04 323.03Z" fill="#A69374"/>
<path d="M247.48 332.15L246.21 331.51L248.49 326.95L249.76 327.59L247.48 332.15Z" fill="#A69374"/>
<path d="M238.36 350.38L237.09 349.74L243.93 336.07L245.2 336.7L238.36 350.38Z" fill="#A69374"/>
<path d="M421 142.87L420.36 141.59L447.71 127.92L448.35 129.19L421 142.87Z" fill="#A69374"/>
<path d="M247.49 316.86L246.21 316.22L248.49 311.66L249.77 312.3L247.49 316.86Z" fill="#A69374"/>
<path d="M231.53 348.77L230.26 348.13L237.1 334.46L238.37 335.09L231.53 348.77Z" fill="#A69374"/>
<path d="M414.71 138.38L414.07 137.1L445.98 121.15L446.61 122.42L414.71 138.38Z" fill="#A69374"/>
<path d="M248.64 299.28L247.37 298.64L249.66 294.06L250.93 294.7L248.64 299.28Z" fill="#A69374"/>
<path d="M239.52 317.52L238.24 316.89L240.52 312.33L241.8 312.97L239.52 317.52Z" fill="#A69374"/>
<path d="M225.84 344.87L224.57 344.24L229.13 335.12L230.4 335.76L225.84 344.87Z" fill="#A69374"/>
<path d="M410.159 133.01L409.52 131.74L418.64 127.19L419.27 128.46L410.159 133.01Z" fill="#A69374"/>
<path d="M243.82 293.64L242.55 293.01L251.22 275.66L266.04 268.25L266.68 269.52L252.28 276.72L243.82 293.64Z" fill="#A69374"/>
<path d="M218.74 343.81L217.47 343.18L231.15 315.82L232.42 316.45L218.74 343.81Z" fill="#A69374"/>
<path d="M410.16 125.37L409.53 124.1L414.09 121.82L414.72 123.1L410.16 125.37Z" fill="#A69374"/>
<path d="M236.72 292.58L235.44 291.95L246.13 270.57L266.07 260.6L266.7 261.88L247.19 271.63L236.72 292.58Z" fill="#A69374"/>
<path d="M213.92 338.18L212.64 337.54L224.05 314.74L225.32 315.38L213.92 338.18Z" fill="#A69374"/>
<path d="M359.27 161.73L358 161.1L362.57 151.96L363.84 152.6L359.27 161.73Z" fill="#A69374"/>
<path d="M326.77 224.21L326.13 222.93L327.4 222.3L330.59 215.92L331.87 216.55L328.46 223.36L326.77 224.21Z" fill="#A69374"/>
<path d="M229.61 291.51L228.34 290.88L241.04 265.48L270.64 250.68L271.27 251.95L242.1 266.54L229.61 291.51Z" fill="#A69374"/>
<path d="M206.81 337.12L205.54 336.48L210.11 327.35L211.38 327.98L206.81 337.12Z" fill="#A69374"/>
<path d="M401.06 114.65L400.43 113.38L418.66 104.26L419.29 105.54L401.06 114.65Z" fill="#A69374"/>
<path d="M352.17 160.66L350.9 160.03L365.49 130.85L391.31 117.94L391.94 119.21L366.55 131.91L352.17 160.66Z" fill="#A69374"/>
<path d="M322.67 218.62L322.04 217.34L322.31 217.21L325.78 210.27L327.05 210.9L323.37 218.27L322.67 218.62Z" fill="#A69374"/>
<path d="M294.07 232.92L293.44 231.65L311.72 222.51L312.35 223.78L294.07 232.92Z" fill="#A69374"/>
<path d="M220.23 295L218.96 294.37L235.95 260.39L284.32 236.2L284.96 237.47L237.01 261.45L220.23 295Z" fill="#A69374"/>
<path d="M199.7 336.07L198.43 335.43L205.29 321.72L206.56 322.35L199.7 336.07Z" fill="#A69374"/>
<path d="M347.35 155.03L346.08 154.4L360.4 125.76L418.67 96.6201L419.3 97.8999L361.46 126.82L347.35 155.03Z" fill="#A69374"/>
<path d="M312.46 216.09L311.83 214.81L317.22 212.12L323.27 200.01L324.54 200.65L318.28 213.18L312.46 216.09Z" fill="#A69374"/>
<path d="M213.13 293.93L211.86 293.29L230.86 255.3L298.01 221.72L298.65 222.99L231.92 256.36L213.13 293.93Z" fill="#A69374"/>
<path d="M194.88 330.43L193.61 329.79L200.47 316.08L201.74 316.72L194.88 330.43Z" fill="#A69374"/>
<path d="M340.25 153.96L338.98 153.32L355.31 120.67L418.68 88.98L419.31 90.25L356.37 121.73L340.25 153.96Z" fill="#A69374"/>
<path d="M315.04 204.38L313.77 203.74L320.74 189.8L322.01 190.44L315.04 204.38Z" fill="#A69374"/>
<path d="M187.76 329.4L186.49 328.77L225.77 250.21L307.3 209.44L307.93 210.71L226.83 251.27L187.76 329.4Z" fill="#A69374"/>
<path d="M335.43 148.33L334.16 147.69L350.22 115.58L423.27 79.0498L423.9 80.3198L351.28 116.64L335.43 148.33Z" fill="#A69374"/>
<path d="M180.58 328.5L179.3 327.86L220.68 245.12L307.04 201.94L315.92 184.17L317.19 184.8L308.1 203L221.74 246.18L180.58 328.5Z" fill="#A69374"/>
<path d="M330.61 142.7L329.34 142.06L345.13 110.49L428.07 69.0098L428.71 70.2798L346.19 111.55L330.61 142.7Z" fill="#A69374"/>
<path d="M178.12 318.12L176.85 317.49L215.58 240.03L301.95 196.85L308.81 183.11L310.09 183.75L303.01 197.9L216.64 241.08L178.12 318.12Z" fill="#A69374"/>
<path d="M328.07 132.5L326.8 131.87L340.04 105.39L426.42 62.1699L426.45 62.1899L426.61 62.1099L426.71 62.3198L427.69 62.8101L427.45 63.27L427.24 63.3799L341.09 106.45L328.07 132.5Z" fill="#A69374"/>
<path d="M173.31 312.48L172.04 311.85L210.5 234.93L296.85 191.76L306.28 172.91L307.55 173.54L297.91 192.82L211.55 235.99L173.31 312.48Z" fill="#A69374"/>
<path d="M441.53 19.8501L440.26 19.21L447.17 5.39014L448.45 6.02002L441.53 19.8501Z" fill="#A69374"/>
<path d="M327.81 117.74L326.54 117.11L334.94 100.3L421.31 57.1201L428.84 42.0498L430.11 42.6899L422.36 58.1802L336 101.36L327.81 117.74Z" fill="#A69374"/>
<path d="M168.49 306.85L167.22 306.21L205.4 229.85L291.76 186.66L301.46 167.27L302.73 167.91L292.82 187.72L206.46 230.9L168.49 306.85Z" fill="#A69374"/>
<path d="M325.29 107.52L324.01 106.89L329.85 95.21L416.21 52.0298L437.75 8.9502L439.02 9.58984L417.27 53.0898L330.91 96.27L325.29 107.52Z" fill="#A69374"/>
<path d="M158.52 311.52L157.25 310.88L200.31 224.75L286.67 181.57L296.64 161.64L297.91 162.27L287.73 182.63L201.37 225.81L158.52 311.52Z" fill="#A69374"/>
<path d="M322.79 97.25L321.51 96.6201L324.76 90.1201L411.12 46.9399L430.66 7.85986L431.93 8.49023L412.18 48L325.82 91.1802L322.79 97.25Z" fill="#A69374"/>
<path d="M304.49 133.84L303.22 133.21L305.5 128.65L306.77 129.29L304.49 133.84Z" fill="#A69374"/>
<path d="M295.37 152.08L294.1 151.45L296.38 146.88L297.65 147.52L295.37 152.08Z" fill="#A69374"/>
<path d="M253.11 192.31L252.47 191.04L281.58 176.48L287.24 165.16L288.52 165.79L282.64 177.54L253.11 192.31Z" fill="#A69374"/>
<path d="M156.54 300.2L155.27 299.57L195.22 219.66L247.92 193.31L248.55 194.59L196.28 220.72L156.54 300.2Z" fill="#A69374"/>
<path d="M323.26 84.8301L322.62 83.5601L406.03 41.8501L421.26 11.3901L422.54 12.02L407.09 42.9102L323.26 84.8301Z" fill="#A69374"/>
<path d="M285.99 155.58L284.71 154.94L302.95 118.46L304.23 119.1L285.99 155.58Z" fill="#A69374"/>
<path d="M257.68 182.39L257.05 181.11L276.49 171.39L282.42 159.52L283.7 160.16L277.55 172.45L257.68 182.39Z" fill="#A69374"/>
<path d="M149.26 299.49L147.99 298.86L190.13 214.57L247.92 185.67L248.56 186.95L191.19 215.63L149.26 299.49Z" fill="#A69374"/>
<path d="M318.79 79.4199L318.16 78.1499L400.94 36.7598L418.84 0.950195L420.12 1.58008L402 37.8198L318.79 79.4199Z" fill="#A69374"/>
<path d="M281.17 149.94L279.89 149.31L295.86 117.39L297.13 118.02L281.17 149.94Z" fill="#A69374"/>
<path d="M257.71 174.74L257.07 173.47L271.4 166.3L277.6 153.89L278.88 154.52L272.46 167.36L257.71 174.74Z" fill="#A69374"/>
<path d="M146.91 288.92L145.64 288.28L185.04 209.48L238.81 182.59L239.45 183.87L186.1 210.54L146.91 288.92Z" fill="#A69374"/>
<path d="M319.02 71.6699L318.39 70.3999L395.85 31.6699L411.36 0.660156L412.63 1.29004L396.91 32.73L319.02 71.6699Z" fill="#A69374"/>
<path d="M276.35 144.31L275.07 143.68L288.76 116.32L290.03 116.95L276.35 144.31Z" fill="#A69374"/>
<path d="M257.75 167.08L257.12 165.8L266.31 161.21L272.79 148.26L274.06 148.89L267.37 162.27L257.75 167.08Z" fill="#A69374"/>
<path d="M142.09 283.28L140.82 282.64L179.95 204.39L229.7 179.51L230.34 180.78L181.01 205.45L142.09 283.28Z" fill="#A69374"/>
<path d="M314.48 66.3101L313.84 65.04L390.76 26.5801L404.05 0L405.32 0.629883L391.82 27.6401L314.48 66.3101Z" fill="#A69374"/>
<path d="M269.24 143.25L267.97 142.62L286.21 106.13L287.49 106.76L269.24 143.25Z" fill="#A69374"/>
<path d="M257.92 159.36L257.29 158.08L261.22 156.12L263.32 151.92L264.59 152.55L262.28 157.18L257.92 159.36Z" fill="#A69374"/>
<path d="M137.28 277.64L136.01 277L174.86 199.3L220.59 176.43L221.23 177.7L175.92 200.36L137.28 277.64Z" fill="#A69374"/>
<path d="M302.97 64.4199L302.34 63.1499L385.67 21.4902L396.41 0L397.68 0.629883L386.73 22.5498L302.97 64.4199Z" fill="#A69374"/>
<path d="M272.5 121.46L271.23 120.82L282.62 98.0298L283.9 98.6699L272.5 121.46Z" fill="#A69374"/>
<path d="M261.06 144.34L259.79 143.71L264.38 134.51L265.66 135.15L261.06 144.34Z" fill="#A69374"/>
<path d="M251.19 155.08L250.56 153.81L256.13 151.03L257.36 148.57L258.63 149.2L257.19 152.09L251.19 155.08Z" fill="#A69374"/>
<path d="M131.4 274.13L130.13 273.49L169.77 194.21L213.95 172.11L214.59 173.39L170.83 195.27L131.4 274.13Z" fill="#A69374"/>
<path d="M295.06 60.7402L294.75 60.1099L294.07 59.8901L294.16 59.6001L380.58 16.3999L388.77 0L390.05 0.629883L381.64 17.46L295.06 60.7402Z" fill="#A69374"/>
<path d="M263.39 124.41L262.12 123.77L275.8 96.4199L277.07 97.0498L263.39 124.41Z" fill="#A69374"/>
<path d="M237.95 154.07L237.32 152.79L251.23 145.84L251.87 147.11L237.95 154.07Z" fill="#A69374"/>
<path d="M126.86 267.93L125.58 267.3L164.68 189.12L209.94 166.48L210.57 167.76L165.73 190.18L126.86 267.93Z" fill="#A69374"/>
<path d="M286.23 63.4502L284.96 62.8198L289.13 54.4902L375.49 11.2998L381.14 0L382.41 0.629883L376.54 12.3599L290.19 55.54L286.23 63.4502Z" fill="#A69374"/>
<path d="M263.4 109.11L262.13 108.48L271.24 90.25L272.52 90.8799L263.4 109.11Z" fill="#A69374"/>
<path d="M233.95 148.43L233.31 147.16L246.16 140.74L246.45 141.32L247.14 141.63L247.03 141.84L246.79 142.01L233.95 148.43Z" fill="#A69374"/>
<path d="M124.61 257.15L123.34 256.52L159.58 184.03L210.49 158.57L211.12 159.85L160.64 185.08L124.61 257.15Z" fill="#A69374"/>
<path d="M281.69 57.25L280.42 56.6201L284.03 49.3901L370.39 6.20996L373.5 0L374.78 0.629883L371.45 7.27002L285.09 50.4502L281.69 57.25Z" fill="#A69374"/>
<path d="M256.57 107.5L255.3 106.87L264.41 88.6299L265.69 89.27L256.57 107.5Z" fill="#A69374"/>
<path d="M124.63 241.84L123.36 241.21L154.49 178.93L240.85 135.76L246.16 125.15L247.43 125.78L241.91 136.81L155.55 179.99L124.63 241.84Z" fill="#A69374"/>
<path d="M274.84 55.7002L273.57 55.0601L278.94 44.2998L365.52 1.02002L365.68 1.33984L366.56 1.77979L366.37 2.18018L366.15 2.29004L280 45.3599L274.84 55.7002Z" fill="#A69374"/>
<path d="M124.64 226.55L123.37 225.92L149.4 173.84L235.76 130.66L259.86 82.46L261.14 83.1001L236.82 131.72L150.46 174.9L124.64 226.55Z" fill="#A69374"/>
<path d="M292.39 31.5298L291.76 30.2598L337.38 7.4502L338.02 8.72021L292.39 31.5298Z" fill="#A69374"/>
<path d="M270.29 49.5098L269.02 48.8799L271.36 44.2002L272.63 44.8301L270.29 49.5098Z" fill="#A69374"/>
<path d="M122.37 215.82L121.09 215.19L144.31 168.75L230.67 125.57L253.03 80.8501L254.31 81.4902L231.73 126.63L145.37 169.81L122.37 215.82Z" fill="#A69374"/>
<path d="M292.96 23.6099L292.32 22.3398L306.01 15.5L306.64 16.77L292.96 23.6099Z" fill="#A69374"/>
<path d="M263.45 47.9302L262.17 47.2998L268.76 34.1201L278.59 29.21L279.22 30.48L269.82 35.1802L263.45 47.9302Z" fill="#A69374"/>
<path d="M249.76 75.3101L248.48 74.6802L257.6 56.4399L258.87 57.0801L249.76 75.3101Z" fill="#A69374"/>
<path d="M231.49 111.84L230.22 111.21L243.93 83.79L245.2 84.4302L231.49 111.84Z" fill="#A69374"/>
<path d="M115.54 214.21L114.26 213.58L139.22 163.66L225.58 120.48L227.88 115.89L229.15 116.52L226.64 121.54L140.28 164.72L115.54 214.21Z" fill="#A69374"/>
<path d="M240.65 78.2598L239.37 77.6201L263.67 29.0298L306.59 7.56982L307.22 8.83984L264.73 30.0898L240.65 78.2598Z" fill="#A69374"/>
<path d="M226.95 105.66L225.67 105.02L237.1 82.1802L238.37 82.8198L226.95 105.66Z" fill="#A69374"/>
<path d="M113.26 203.48L111.99 202.85L134.13 158.57L220.49 115.39L220.56 115.25L220.66 115.3L220.7 115.28L220.73 115.33L221.83 115.89L221.55 116.45L135.19 159.63L113.26 203.48Z" fill="#A69374"/>
<path d="M240.65 62.98L239.38 62.3398L258.58 23.9399L293.47 6.49023L294.11 7.77002L259.64 25L240.65 62.98Z" fill="#A69374"/>
<path d="M231.53 81.21L230.26 80.5801L237.1 66.8999L238.37 67.54L231.53 81.21Z" fill="#A69374"/>
<path d="M222.39 99.4902L221.12 98.8501L227.98 85.1401L229.25 85.77L222.39 99.4902Z" fill="#A69374"/>
<path d="M196.17 121.5L195.54 120.23L215.4 110.3L216.31 108.47L217.59 109.11L216.46 111.36L196.17 121.5Z" fill="#A69374"/>
<path d="M106.43 201.88L105.16 201.24L129.04 153.48L186.42 124.79L187.05 126.06L130.1 154.54L106.43 201.88Z" fill="#A69374"/>
<path d="M231.27 66.4702L230 65.8301L253.49 18.8501L275.23 7.97998L275.86 9.25L254.55 19.9102L231.27 66.4702Z" fill="#A69374"/>
<path d="M224.43 80.1401L223.16 79.5098L227.72 70.3901L228.99 71.02L224.43 80.1401Z" fill="#A69374"/>
<path d="M217.58 93.8501L216.3 93.2202L218.59 88.6401L219.87 89.27L217.58 93.8501Z" fill="#A69374"/>
<path d="M205.43 109.23L204.8 107.96L210.31 105.21L214 97.8301L215.27 98.46L211.37 106.27L205.43 109.23Z" fill="#A69374"/>
<path d="M99.3296 200.8L98.0596 200.17L123.95 148.39L190.99 114.87L191.62 116.14L125.01 149.45L99.3296 200.8Z" fill="#A69374"/>
<path d="M228.73 56.2798L227.46 55.6401L248.4 13.7598L261.54 7.18994L262.18 8.45996L249.46 14.8198L228.73 56.2798Z" fill="#A69374"/>
<path d="M217.33 79.0698L216.06 78.4399L225.18 60.2002L226.45 60.8301L217.33 79.0698Z" fill="#A69374"/>
<path d="M206.06 101.28L205.67 100.61L205.11 100.33L213.77 83L215.05 83.6401L206.28 101.18L206.06 101.28Z" fill="#A69374"/>
<path d="M164.27 122.18L163.64 120.91L186.44 109.51L187.07 110.78L164.27 122.18Z" fill="#A69374"/>
<path d="M96.7895 190.61L95.5195 189.98L118.86 143.3L154.52 125.46L155.16 126.74L119.92 144.36L96.7895 190.61Z" fill="#A69374"/>
<path d="M223.91 50.6499L222.64 50.0098L243.31 8.66992L243.69 8.47998L244.11 9.33984L244.47 9.50977L223.91 50.6499Z" fill="#A69374"/>
<path d="M214.79 68.8799L213.52 68.2402L220.36 54.5698L221.63 55.2002L214.79 68.8799Z" fill="#A69374"/>
<path d="M210.23 78.0098L208.95 77.3701L211.24 72.8101L212.51 73.4399L210.23 78.0098Z" fill="#A69374"/>
<path d="M205.64 87.1899L204.37 86.5498L206.67 81.9502L207.94 82.5801L205.64 87.1899Z" fill="#A69374"/>
<path d="M191.7 100.83L191.06 99.5601L200.13 95.0298L202 91.27L203.28 91.9102L201.19 96.0898L191.7 100.83Z" fill="#A69374"/>
<path d="M91.9702 184.98L90.7002 184.35L113.77 138.21L181.89 104.15L182.53 105.42L114.83 139.27L91.9702 184.98Z" fill="#A69374"/>
<path d="M216.81 49.5698L215.54 48.9399L231.5 17L232.78 17.6299L216.81 49.5698Z" fill="#A69374"/>
<path d="M212.25 58.6899L210.98 58.0498L213.25 53.5L214.53 54.1299L212.25 58.6899Z" fill="#A69374"/>
<path d="M207.69 67.8101L206.42 67.1699L208.7 62.6099L209.97 63.25L207.69 67.8101Z" fill="#A69374"/>
<path d="M203.12 76.9502L201.85 76.3198L204.13 71.7402L205.41 72.3701L203.12 76.9502Z" fill="#A69374"/>
<path d="M187.15 95.4702L186.52 94.1899L195.04 89.9399L197.2 85.6001L198.48 86.2402L196.1 90.9902L187.15 95.4702Z" fill="#A69374"/>
<path d="M87.1499 179.35L85.8799 178.72L108.67 133.12L181.92 96.5L182.55 97.77L109.73 134.18L87.1499 179.35Z" fill="#A69374"/>
<path d="M214.27 39.3799L212.99 38.75L224.4 15.9399L225.67 16.5698L214.27 39.3799Z" fill="#A69374"/>
<path d="M205.15 57.6201L203.88 56.98L208.43 47.8599L209.71 48.5L205.15 57.6201Z" fill="#A69374"/>
<path d="M193.67 80.5801L192.4 79.9399L199.31 66.1099L200.59 66.7402L193.67 80.5801Z" fill="#A69374"/>
<path d="M187.38 87.7202L186.74 86.4502L190.16 84.7402L190.44 85.3101L191.15 85.6099L191.05 85.8198L190.79 86.0098L187.38 87.7202Z" fill="#A69374"/>
<path d="M141.5 110.65L140.87 109.38L181.98 88.8301L182.61 90.1001L141.5 110.65Z" fill="#A69374"/>
<path d="M80.0495 178.28L78.7695 177.65L103.58 128.02L127.19 116.22L127.83 117.49L104.64 129.08L80.0495 178.28Z" fill="#A69374"/>
<path d="M204.89 42.8599L203.62 42.23L212.73 23.9902L214.01 24.6201L204.89 42.8599Z" fill="#A69374"/>
<path d="M200.33 51.98L199.06 51.3501L201.34 46.79L202.61 47.4199L200.33 51.98Z" fill="#A69374"/>
<path d="M188.86 74.9199L187.59 74.29L192.21 65.0498L193.48 65.6802L188.86 74.9199Z" fill="#A69374"/>
<path d="M141.51 103.01L140.88 101.74L154.55 94.8999L155.19 96.1802L141.51 103.01Z" fill="#A69374"/>
<path d="M127.84 109.85L127.2 108.58L136.32 104.02L136.95 105.29L127.84 109.85Z" fill="#A69374"/>
<path d="M75.2302 172.65L73.9502 172.01L98.4902 122.94L118.08 113.14L118.71 114.41L99.5502 124L75.2302 172.65Z" fill="#A69374"/>
<path d="M197.79 41.79L196.52 41.1499L198.8 36.6001L200.07 37.23L197.79 41.79Z" fill="#A69374"/>
<path d="M190.95 55.4702L189.67 54.8398L194.24 45.71L195.51 46.3501L190.95 55.4702Z" fill="#A69374"/>
<path d="M173.53 79.3701L172.9 78.1001L179.76 74.6602L185.1 64L186.37 64.6299L180.82 75.7202L173.53 79.3701Z" fill="#A69374"/>
<path d="M118.73 106.77L118.09 105.5L150 89.54L150.64 90.8198L118.73 106.77Z" fill="#A69374"/>
<path d="M68.1296 171.58L66.8496 170.94L92.1696 120.32L93.4396 120.95L68.1296 171.58Z" fill="#A69374"/>
<path d="M190.69 40.71L189.42 40.0801L193.98 30.96L195.25 31.5898L190.69 40.71Z" fill="#A69374"/>
<path d="M183.84 54.4102L182.57 53.77L187.14 44.6401L188.41 45.2798L183.84 54.4102Z" fill="#A69374"/>
<path d="M179.24 63.6201L177.97 62.98L180.28 58.3599L181.55 58.9902L179.24 63.6201Z" fill="#A69374"/>
<path d="M150.65 83.1802L150.01 81.8999L174.67 69.5698L175.39 68.1401L176.66 68.77L175.73 70.6299L150.65 83.1802Z" fill="#A69374"/>
<path d="M118.73 99.1299L118.1 97.8599L140.89 86.46L141.53 87.73L118.73 99.1299Z" fill="#A69374"/>
<path d="M61.02 170.5L59.75 169.87L82.57 124.24L83.84 124.88L61.02 170.5Z" fill="#A69374"/>
<path d="M179.02 48.77L177.75 48.1401L180.04 43.5698L181.31 44.2002L179.02 48.77Z" fill="#A69374"/>
<path d="M164.46 68.6299L163.83 67.3599L169.58 64.48L170.7 62.2402L171.98 62.8701L170.64 65.54L164.46 68.6299Z" fill="#A69374"/>
<path d="M141.53 80.1001L140.9 78.8198L159.18 69.6802L159.82 70.9502L141.53 80.1001Z" fill="#A69374"/>
<path d="M123.3 89.21L122.67 87.9399L131.78 83.3799L132.42 84.6499L123.3 89.21Z" fill="#A69374"/>
<path d="M51.6401 174L50.3701 173.36L75.4501 123.19L76.7301 123.83L51.6401 174Z" fill="#A69374"/>
<path d="M132.42 77.0098L131.79 75.7402L164.49 59.3901L170.64 47.0801L171.92 47.7202L165.55 60.4502L132.42 77.0098Z" fill="#A69374"/>
<path d="M37.52 186.96L36.25 186.32L68.35 122.13L69.62 122.76L37.52 186.96Z" fill="#A69374"/>
<path d="M150.73 60.2202L150.09 58.9502L159.4 54.2998L161.15 50.79L162.42 51.4302L160.46 55.3599L150.73 60.2202Z" fill="#A69374"/>
<path d="M127.87 71.6499L127.24 70.3799L145.5 61.25L146.13 62.52L127.87 71.6499Z" fill="#A69374"/>
<path d="M7.04993 196.83L6.41992 195.56L29.8599 183.84L61.2499 121.06L62.5199 121.7L30.9199 184.9L7.04993 196.83Z" fill="#A69374"/>
<path d="M21.0401 182.2L20.4102 180.93L24.7702 178.75L54.1501 119.99L55.4202 120.63L25.8302 179.81L21.0401 182.2Z" fill="#A69374"/>
<path d="M11.7599 179.2L11.1299 177.93L19.6799 173.66L47.0399 118.92L48.3199 119.56L20.7399 174.72L11.7599 179.2Z" fill="#A69374"/>
<path d="M1.67004 176.61L1.04004 175.34L14.58 168.57L39.94 117.85L41.22 118.48L15.64 169.63L1.67004 176.61Z" fill="#A69374"/>
<path d="M15.8601 153.93L14.5801 153.29L35.1201 112.22L36.4001 112.85L15.8601 153.93Z" fill="#A69374"/>
<path d="M7.43958 166.09L6.80957 164.82L9.49957 163.48L12.2596 157.94L13.5296 158.58L10.5596 164.54L7.43958 166.09Z" fill="#A69374"/>
<path d="M5.56981 159.23L4.2998 158.6L25.7498 115.7L27.0198 116.34L5.56981 159.23Z" fill="#A69374"/>
<path d="M8.60985 137.88L7.33984 137.25L14.1798 123.55L15.4599 124.19L8.60985 137.88Z" fill="#A69374"/>
<path d="M1.27 152.56L0 151.92L2.73 146.46L4 147.09L1.27 152.56Z" fill="#A69374"/>
</g>
</svg>
