<svg width="36" height="37" viewBox="0 0 36 37" fill="none" xmlns="http://www.w3.org/2000/svg">
<path d="M26.5811 36.7313H9.81319C4.73327 36.7313 0.601562 32.5148 0.601562 27.3368V10.248C0.601562 5.07007 4.73327 0.853516 9.81319 0.853516H26.5811C31.6611 0.853516 35.7928 5.07007 35.7928 10.2514V27.3368C35.7928 32.5148 31.6611 36.7313 26.5811 36.7313ZM9.81319 2.56038C5.64238 2.56038 2.25359 6.00783 2.25359 10.248V27.3335C2.25359 31.5736 5.64564 35.0211 9.81319 35.0211H26.5811C30.752 35.0211 34.1407 31.5736 34.1407 27.3335V10.248C34.1407 6.00783 30.7487 2.56038 26.5811 2.56038H9.81319Z" fill="#2A3234"/>
<path d="M18.2666 26.409C14.5976 26.409 11.3717 23.6632 10.8178 19.8514C10.5245 17.8376 11.01 15.8238 12.1863 14.1844C13.3855 12.5079 15.1548 11.4217 17.162 11.1147C17.8951 11.0034 18.6381 11.0034 19.368 11.1147C22.6753 11.614 25.2266 14.2181 25.7154 17.5914C26.0087 19.6052 25.5232 21.619 24.3469 23.2584C23.1445 24.9315 21.3784 26.0211 19.368 26.3281C19.003 26.382 18.6315 26.409 18.2666 26.409ZM18.2699 12.7373C17.9799 12.7373 17.6899 12.7575 17.4031 12.8014C15.8325 13.0375 14.4477 13.8909 13.5125 15.1964C12.6002 16.4714 12.2189 18.0333 12.447 19.5917C12.9228 22.857 15.927 25.1373 19.1301 24.6313C20.7039 24.3952 22.0855 23.5418 23.0207 22.2363C23.933 20.9612 24.3143 19.3994 24.0862 17.841C23.7082 15.22 21.7173 13.1927 19.1333 12.8047C18.8466 12.7609 18.5599 12.7373 18.2699 12.7373Z" fill="#2A3234"/>
<path d="M27.4396 10.2479C26.9834 10.2479 26.6055 9.8667 26.6055 9.39445C26.6055 8.92219 26.9639 8.54102 27.4201 8.54102H27.4364C27.8926 8.54102 28.2608 8.92219 28.2608 9.39445C28.2608 9.8667 27.8958 10.2479 27.4396 10.2479Z" fill="#2A3234"/>
</svg>
