<svg width="23" height="23" viewBox="0 0 23 23" fill="none" xmlns="http://www.w3.org/2000/svg">
<path d="M6.26007 1.11011H16.7601C19.6601 1.11011 22.0101 3.42003 22.0101 6.28003V16.6101C22.0101 19.4601 19.6601 21.78 16.7601 21.78H6.26007C3.36007 21.78 1.01007 19.4701 1.01007 16.6101V6.28003C1.01007 3.42003 3.36007 1.11011 6.26007 1.11011Z" stroke="#F7D46A" stroke-miterlimit="8" stroke-linecap="round" stroke-linejoin="round"/>
<path d="M15.7101 10.7901C16.0501 13.0501 14.47 15.1501 12.17 15.4901C9.88005 15.8201 7.74009 14.2701 7.40009 12.0101C7.06009 9.75009 8.64007 7.65014 10.9401 7.31014C11.3501 7.25014 11.76 7.25014 12.17 7.31014C14 7.57014 15.4401 8.99012 15.7101 10.7901Z" stroke="#F7D46A" stroke-miterlimit="8" stroke-linecap="round" stroke-linejoin="round"/>
<path d="M17.29 5.76001H17.3" stroke="#F7D46A" stroke-miterlimit="8" stroke-linecap="round" stroke-linejoin="round"/>
</svg>
