<svg width="23" height="22" viewBox="0 0 23 22" fill="none" xmlns="http://www.w3.org/2000/svg">
<path d="M6.46997 0.589966H16.97C19.87 0.589966 22.22 2.90001 22.22 5.76001V16.09C22.22 18.94 19.87 21.26 16.97 21.26H6.46997C3.56997 21.26 1.21997 18.95 1.21997 16.09V5.76001C1.21997 2.90001 3.56997 0.589966 6.46997 0.589966Z" stroke="#A69374" stroke-miterlimit="8" stroke-linecap="round" stroke-linejoin="round"/>
<path d="M15.92 10.27C16.26 12.53 14.68 14.6299 12.38 14.9699C10.09 15.2999 7.94999 13.7499 7.60999 11.4899C7.26999 9.22995 8.84998 7.13 11.15 6.79C11.56 6.73 11.97 6.73 12.38 6.79C14.21 7.05 15.65 8.46998 15.92 10.27Z" stroke="#A69374" stroke-miterlimit="8" stroke-linecap="round" stroke-linejoin="round"/>
<path d="M17.49 5.23999H17.5" stroke="#A69374" stroke-miterlimit="8" stroke-linecap="round" stroke-linejoin="round"/>
</svg>
