<svg width="21" height="21" viewBox="0 0 21 21" fill="none" xmlns="http://www.w3.org/2000/svg">
<path d="M14.2499 6.88C17.4699 6.88 20.0799 9.70004 20.0799 13.17V20.51H16.1899V13.17C16.1899 12.01 15.3199 11.0699 14.2499 11.0699C13.1799 11.0699 12.3099 12.01 12.3099 13.17V20.51H8.41992V13.17C8.41992 9.69004 11.0299 6.88 14.2499 6.88Z" stroke="#A69374" stroke-miterlimit="8" stroke-linecap="round" stroke-linejoin="round"/>
<path d="M4.53992 7.93005H0.649902V20.51H4.53992V7.93005Z" stroke="#A69374" stroke-miterlimit="8" stroke-linecap="round" stroke-linejoin="round"/>
<path d="M2.5899 4.78003C3.66134 4.78003 4.52991 3.83985 4.52991 2.68005C4.52991 1.52026 3.66134 0.579956 2.5899 0.579956C1.51847 0.579956 0.649902 1.52026 0.649902 2.68005C0.649902 3.83985 1.51847 4.78003 2.5899 4.78003Z" stroke="#A69374" stroke-miterlimit="8" stroke-linecap="round" stroke-linejoin="round"/>
</svg>
