<svg width="22" height="22" viewBox="0 0 22 22" fill="none" xmlns="http://www.w3.org/2000/svg">
<path d="M15.05 7.3999C18.27 7.3999 20.8801 10.2199 20.8801 13.6899V21.03H16.9901V13.6899C16.9901 12.5299 16.12 11.5901 15.05 11.5901C13.98 11.5901 13.11 12.5299 13.11 13.6899V21.03H9.22003V13.6899C9.22003 10.2099 11.83 7.3999 15.05 7.3999Z" stroke="#F7D46A" stroke-miterlimit="8" stroke-linecap="round" stroke-linejoin="round"/>
<path d="M5.33008 8.44995H1.44006V21.03H5.33008V8.44995Z" stroke="#F7D46A" stroke-miterlimit="8" stroke-linecap="round" stroke-linejoin="round"/>
<path d="M3.39008 5.30005C4.46151 5.30005 5.33008 4.35975 5.33008 3.19995C5.33008 2.04015 4.46151 1.1001 3.39008 1.1001C2.31864 1.1001 1.45007 2.04015 1.45007 3.19995C1.45007 4.35975 2.31864 5.30005 3.39008 5.30005Z" stroke="#F7D46A" stroke-miterlimit="8" stroke-linecap="round" stroke-linejoin="round"/>
</svg>
