<svg width="31" height="33" viewBox="0 0 31 33" fill="none" xmlns="http://www.w3.org/2000/svg">
<path d="M29.8875 32.4595H24.1368C23.7293 32.4595 23.3999 32.1212 23.3999 31.7028V20.5514C23.3999 19.2102 22.4405 18.1211 21.2614 18.1211C20.0824 18.1211 19.123 19.2102 19.123 20.5514V31.7028C19.123 32.1212 18.7935 32.4595 18.3861 32.4595H12.6353C12.2279 32.4595 11.8984 32.1212 11.8984 31.7028V20.5514C11.8984 14.8659 16.1002 10.2368 21.2614 10.2368C26.4227 10.2368 30.6244 14.863 30.6244 20.5514V31.7028C30.6244 32.1212 30.295 32.4595 29.8875 32.4595ZM24.8737 30.9461H29.1506V20.5514C29.1506 15.6968 25.6106 11.7502 21.2614 11.7502C16.9123 11.7502 13.3722 15.6968 13.3722 20.5514V30.9461H17.6492V20.5514C17.6492 18.3763 19.2704 16.6078 21.2614 16.6078C23.2525 16.6078 24.8737 18.3763 24.8737 20.5514V30.9461Z" fill="#2A3234"/>
<path d="M7.04279 32.4595H1.22586C0.8137 32.4595 0.480469 32.1183 0.480469 31.6964V12.4184C0.480469 11.9964 0.8137 11.6553 1.22586 11.6553H7.04279C7.45495 11.6553 7.78818 11.9964 7.78818 12.4184V31.6964C7.78818 32.1183 7.45495 32.4595 7.04279 32.4595ZM1.97124 30.9333H6.29741V13.1815H1.97124V30.9333Z" fill="#2A3234"/>
<path d="M4.13432 8.34544C2.12032 8.34544 0.480469 6.64911 0.480469 4.56286C0.480469 2.4766 2.1174 0.780273 4.13432 0.780273C6.15125 0.780273 7.78818 2.4766 7.78818 4.56286C7.78818 6.64911 6.14833 8.34544 4.13432 8.34544ZM4.13432 2.23183C2.94171 2.23183 1.97124 3.27638 1.97124 4.56286C1.97124 5.84933 2.94171 6.89388 4.13432 6.89388C5.32694 6.89388 6.29741 5.84933 6.29741 4.56286C6.29741 3.27638 5.32694 2.23183 4.13432 2.23183Z" fill="#2A3234"/>
</svg>
