<svg width="166" height="92" viewBox="0 0 166 92" fill="none" xmlns="http://www.w3.org/2000/svg">
<g id="Group">
<path id="Vector" d="M8.74937 86.51V86.76C9.99937 86.76 10.2694 86.82 10.2694 89.69C10.2694 91.27 9.35938 91.76 7.12938 91.76C4.99938 91.76 3.30938 90.37 3.30938 85.15C3.30938 79.93 4.95938 78.54 7.12938 78.54C9.38938 78.54 11.0794 79.28 11.3694 82.45H11.7694L11.9394 79.37C10.7594 78.59 9.42938 78.29 7.12938 78.29C3.02938 78.29 0.859375 81.37 0.859375 85.15C0.859375 88.93 3.02938 92.01 7.12938 92.01C9.15938 92.01 10.7794 91.67 11.9594 91.21C11.9594 86.95 12.1094 86.76 13.2094 86.76V86.51H8.74937ZM21.7794 82.08C21.7794 85.46 20.1494 85.44 17.9994 85.44H17.4094V78.69H17.9994C20.0294 78.7 21.7794 78.62 21.7794 82.08ZM25.9194 91.58C25.4294 91.54 24.2294 91.35 23.8894 89.91C22.8994 85.75 21.5894 85.62 20.3394 85.56C22.3894 85.43 23.8694 84.67 23.8694 82.08C23.8694 78.91 21.7794 78.45 17.9994 78.45H14.3694V78.7C15.2094 78.7 15.5494 78.97 15.5494 80.14V89.6C15.5494 91.2 15.1894 91.58 14.3694 91.58V91.83H18.6294V91.58C17.8294 91.58 17.4094 91.16 17.4094 89.85V85.69H18.2994C18.7894 85.69 20.7094 85.69 21.2494 87.69C22.3294 91.81 22.0494 91.83 24.4794 91.83H25.9194V91.58ZM31.8094 92C34.1494 92 36.4294 90.75 36.4294 87.34V82.17C36.4294 80.38 36.3694 78.69 38.8594 78.69V78.44H33.9194V78.69C36.1394 78.69 36.1794 80.38 36.1794 82.17V87.34C36.1794 89.79 34.6794 91.14 32.7394 91.14C30.6894 91.14 29.2794 89.79 29.2794 87.43V80.36C29.2794 78.86 29.9594 78.69 30.7794 78.69V78.44H26.0494V78.69C26.8894 78.69 27.3994 79.05 27.3994 80.34V87.26C27.4094 90.37 29.3394 92 31.8094 92ZM43.0194 85.86V78.7H43.3594C45.5794 78.7 47.5794 78.68 47.5794 82.29C47.5794 85.81 45.6794 85.86 43.3594 85.86H43.0194ZM43.0194 86.11H43.3594C47.1394 86.11 49.6494 85.65 49.6494 82.29C49.6494 78.91 47.1394 78.45 43.3594 78.45H39.9194V78.7C40.8694 78.7 41.1394 79.18 41.1394 80.49V89.29C41.1394 91.1 40.8194 91.59 39.8894 91.59V91.84H44.9094V91.59C43.7094 91.59 43.0294 91.51 43.0294 89.23V86.11H43.0194ZM61.2494 85.24C61.2494 90.47 59.5194 91.76 57.2794 91.76C55.0194 91.76 53.2894 90.47 53.2894 85.24C53.2894 80.03 55.0194 78.53 57.2794 78.53C59.5194 78.53 61.2494 80.03 61.2494 85.24ZM63.4494 85.24C63.4494 81.48 61.4494 78.29 57.2694 78.29C53.0894 78.29 51.0894 81.48 51.0894 85.24C51.0894 89.02 53.0894 92 57.2694 92C61.4594 92 63.4494 89.02 63.4494 85.24ZM80.5594 87.9C80.3094 90.79 77.9894 91.76 76.4594 91.76C74.5394 91.76 72.2994 90.98 72.2994 85.15C72.2994 79.41 74.4894 78.54 76.4594 78.54C77.9994 78.54 80.0294 79.26 80.5594 82.4H80.8094L81.0394 79.45C79.8394 78.48 78.4194 78.29 76.4594 78.29C72.5294 78.29 69.8694 80.87 69.8694 85.15C69.8694 89.39 72.5294 92.01 76.4594 92.01C78.4894 92.01 79.6294 91.76 81.0394 90.83L80.8094 87.9H80.5594ZM89.8094 82.08C89.8094 85.46 88.1794 85.44 86.0294 85.44H85.4394V78.69H86.0294C88.0594 78.7 89.8094 78.62 89.8094 82.08ZM93.9494 91.58C93.4594 91.54 92.2594 91.35 91.9194 89.91C90.9294 85.75 89.6194 85.62 88.3694 85.56C90.4194 85.43 91.8994 84.67 91.8994 82.08C91.8994 78.91 89.8094 78.45 86.0294 78.45H82.3994V78.7C83.2394 78.7 83.5794 78.97 83.5794 80.14V89.6C83.5794 91.2 83.2194 91.58 82.3994 91.58V91.83H86.6594V91.58C85.8594 91.58 85.4394 91.16 85.4394 89.85V85.69H86.3294C86.8194 85.69 88.7394 85.69 89.2794 87.69C90.3594 91.81 90.0794 91.83 92.5094 91.83H93.9494V91.58ZM99.8394 92C102.179 92 104.459 90.75 104.459 87.34V82.17C104.459 80.38 104.399 78.69 106.889 78.69V78.44H101.949V78.69C104.169 78.69 104.209 80.38 104.209 82.17V87.34C104.209 89.79 102.709 91.14 100.769 91.14C98.7194 91.14 97.3094 89.79 97.3094 87.43V80.36C97.3094 78.86 97.9894 78.69 98.8094 78.69V78.44H94.0794V78.69C94.9194 78.69 95.4294 79.05 95.4294 80.34V87.26C95.4294 90.37 97.3694 92 99.8394 92ZM116.269 78.45V78.7C119.009 78.7 117.889 81.44 117.299 83.2L114.939 89.45L111.559 80.39C111.519 80.26 111.119 78.7 112.699 78.7V78.45H107.589V78.7C108.239 78.7 108.839 78.74 109.399 80.09C109.399 80.09 111.659 86.25 113.999 91.83H114.269L117.539 83.24C119.269 78.7 119.739 78.7 120.999 78.7V78.45H116.269ZM122.429 78.45V78.7C123.269 78.7 123.759 79.02 123.759 80.2V89.8C123.759 91.09 123.249 91.59 122.429 91.59V91.84H127.049V91.59C126.249 91.59 125.719 91.1 125.719 89.8V80.2C125.719 79.02 126.229 78.7 127.049 78.7V78.45H122.429ZM137.399 78.45V78.68C139.909 78.68 139.889 81.42 139.889 83.18V89.05L131.679 78.45H128.159V78.68C128.649 78.72 129.209 78.6 130.419 80.12L131.199 81.13V87.08C131.199 88.79 131.199 91.58 128.439 91.58V91.83H133.929V91.58C131.439 91.58 131.439 88.75 131.439 87.08V81.42L139.519 91.83H140.129V83.18C140.129 81.41 140.069 78.68 142.829 78.68V78.45H137.399ZM153.199 87.88C152.799 91.68 149.439 91.59 147.749 91.59H146.879V85.21H148.119C148.599 85.21 150.649 85.23 150.739 87.13H150.989V83.04H150.739C150.639 84.96 148.629 84.96 148.119 84.96H146.879V78.71H147.909C149.449 78.71 152.739 78.75 152.959 81.88H153.209V78.46H143.899V78.71C144.739 78.71 144.929 79.32 144.929 80.5V89.62C144.929 90.91 144.699 91.6 143.899 91.6V91.85H153.459V87.9H153.199V87.88ZM164.849 87.71C164.529 91.59 161.299 91.61 159.259 91.59H158.579V80.4C158.579 79.03 159.169 78.71 159.989 78.71V78.46H155.469V78.71C156.289 78.71 156.669 79.15 156.669 80.31V89.58C156.669 90.87 156.439 91.59 155.619 91.59V91.84H165.099V87.72H164.849V87.71Z" fill="url(#paint0_linear_9_12604)"/>
<path id="Vector_2" d="M32.3984 29.2099L83.1184 57.3699V48.8299L32.3984 20.6099V29.2099Z" fill="url(#paint1_linear_9_12604)"/>
<path id="Vector_3" d="M83.1191 48.8301V57.3701L133.799 29.2101L133.819 20.6001L83.1191 48.8301Z" fill="url(#paint2_linear_9_12604)"/>
<path id="Vector_4" d="M46.8594 21.62L54.5394 25.94L83.0994 9.97998L82.9794 0.97998L46.8594 21.62Z" fill="url(#paint3_linear_9_12604)"/>
<path id="Vector_5" d="M83.0985 9.97998L112.119 25.83L119.099 21.62L82.9785 0.97998L83.0985 9.97998Z" fill="url(#paint4_linear_9_12604)"/>
<path id="Vector_6" d="M83.0801 33.1501L83.1001 42.0801L104.34 30.5201V21.5901L83.0801 33.1501Z" fill="url(#paint5_linear_9_12604)"/>
<path id="Vector_7" d="M76.6484 21.4499L83.6584 25.2799L90.2384 21.6999L90.1784 13.8599L76.6484 21.4499Z" fill="url(#paint6_linear_9_12604)"/>
<path id="Vector_8" d="M61.8594 30.5101L83.0994 42.0701L83.1194 33.1401L61.8594 21.5801V30.5101Z" fill="url(#paint7_linear_9_12604)"/>
</g>
<defs>
<linearGradient id="paint0_linear_9_12604" x1="-15.6948" y1="85.1406" x2="182.051" y2="85.1406" gradientUnits="userSpaceOnUse">
<stop stop-color="#E8B23F"/>
<stop offset="0.0323" stop-color="#E8B23F"/>
<stop offset="0.0704" stop-color="#F9CA65"/>
<stop offset="0.0821" stop-color="#F9CA65"/>
<stop offset="0.2249" stop-color="#DDAC41"/>
<stop offset="0.2541" stop-color="#DDAC41"/>
<stop offset="0.2542" stop-color="#DDAC41"/>
<stop offset="0.4354" stop-color="#F7D46A"/>
<stop offset="0.582" stop-color="#F9EF89"/>
<stop offset="0.6349" stop-color="#F9EF89"/>
<stop offset="0.7502" stop-color="#F3CC5B"/>
<stop offset="0.7693" stop-color="#F3CC5B"/>
<stop offset="0.8265" stop-color="#E4B94C"/>
<stop offset="0.8526" stop-color="#E4B94C"/>
<stop offset="1" stop-color="#BB8723"/>
</linearGradient>
<linearGradient id="paint1_linear_9_12604" x1="32.403" y1="38.9911" x2="83.1206" y2="38.9911" gradientUnits="userSpaceOnUse">
<stop stop-color="#E8B23F"/>
<stop offset="0.0323" stop-color="#E8B23F"/>
<stop offset="0.0704" stop-color="#F9CA65"/>
<stop offset="0.0821" stop-color="#F9CA65"/>
<stop offset="0.2249" stop-color="#DDAC41"/>
<stop offset="0.2541" stop-color="#DDAC41"/>
<stop offset="0.2542" stop-color="#DDAC41"/>
<stop offset="0.4354" stop-color="#F7D46A"/>
<stop offset="0.582" stop-color="#F9EF89"/>
<stop offset="0.6349" stop-color="#F9EF89"/>
<stop offset="0.7502" stop-color="#F3CC5B"/>
<stop offset="0.7693" stop-color="#F3CC5B"/>
<stop offset="0.8265" stop-color="#E4B94C"/>
<stop offset="0.8526" stop-color="#E4B94C"/>
<stop offset="1" stop-color="#BB8723"/>
</linearGradient>
<linearGradient id="paint2_linear_9_12604" x1="83.121" y1="38.9874" x2="133.819" y2="38.9874" gradientUnits="userSpaceOnUse">
<stop stop-color="#E8B23F"/>
<stop offset="0.0323" stop-color="#E8B23F"/>
<stop offset="0.0704" stop-color="#F9CA65"/>
<stop offset="0.0821" stop-color="#F9CA65"/>
<stop offset="0.2249" stop-color="#DDAC41"/>
<stop offset="0.2541" stop-color="#DDAC41"/>
<stop offset="0.2542" stop-color="#DDAC41"/>
<stop offset="0.4354" stop-color="#F7D46A"/>
<stop offset="0.582" stop-color="#F9EF89"/>
<stop offset="0.6349" stop-color="#F9EF89"/>
<stop offset="0.7502" stop-color="#F3CC5B"/>
<stop offset="0.7693" stop-color="#F3CC5B"/>
<stop offset="0.8265" stop-color="#E4B94C"/>
<stop offset="0.8526" stop-color="#E4B94C"/>
<stop offset="1" stop-color="#BB8723"/>
</linearGradient>
<linearGradient id="paint3_linear_9_12604" x1="46.8614" y1="13.458" x2="83.0999" y2="13.458" gradientUnits="userSpaceOnUse">
<stop stop-color="#E8B23F"/>
<stop offset="0.0323" stop-color="#E8B23F"/>
<stop offset="0.0704" stop-color="#F9CA65"/>
<stop offset="0.0821" stop-color="#F9CA65"/>
<stop offset="0.2249" stop-color="#DDAC41"/>
<stop offset="0.2541" stop-color="#DDAC41"/>
<stop offset="0.2542" stop-color="#DDAC41"/>
<stop offset="0.4354" stop-color="#F7D46A"/>
<stop offset="0.582" stop-color="#F9EF89"/>
<stop offset="0.6349" stop-color="#F9EF89"/>
<stop offset="0.7502" stop-color="#F3CC5B"/>
<stop offset="0.7693" stop-color="#F3CC5B"/>
<stop offset="0.8265" stop-color="#E4B94C"/>
<stop offset="0.8526" stop-color="#E4B94C"/>
<stop offset="1" stop-color="#BB8723"/>
</linearGradient>
<linearGradient id="paint4_linear_9_12604" x1="82.9806" y1="13.4053" x2="119.101" y2="13.4053" gradientUnits="userSpaceOnUse">
<stop stop-color="#E8B23F"/>
<stop offset="0.0323" stop-color="#E8B23F"/>
<stop offset="0.0704" stop-color="#F9CA65"/>
<stop offset="0.0821" stop-color="#F9CA65"/>
<stop offset="0.2249" stop-color="#DDAC41"/>
<stop offset="0.2541" stop-color="#DDAC41"/>
<stop offset="0.2542" stop-color="#DDAC41"/>
<stop offset="0.4354" stop-color="#F7D46A"/>
<stop offset="0.582" stop-color="#F9EF89"/>
<stop offset="0.6349" stop-color="#F9EF89"/>
<stop offset="0.7502" stop-color="#F3CC5B"/>
<stop offset="0.7693" stop-color="#F3CC5B"/>
<stop offset="0.8265" stop-color="#E4B94C"/>
<stop offset="0.8526" stop-color="#E4B94C"/>
<stop offset="1" stop-color="#BB8723"/>
</linearGradient>
<linearGradient id="paint5_linear_9_12604" x1="83.0834" y1="31.8282" x2="104.345" y2="31.8282" gradientUnits="userSpaceOnUse">
<stop stop-color="#E8B23F"/>
<stop offset="0.0323" stop-color="#E8B23F"/>
<stop offset="0.0704" stop-color="#F9CA65"/>
<stop offset="0.0821" stop-color="#F9CA65"/>
<stop offset="0.2249" stop-color="#DDAC41"/>
<stop offset="0.2541" stop-color="#DDAC41"/>
<stop offset="0.2542" stop-color="#DDAC41"/>
<stop offset="0.4354" stop-color="#F7D46A"/>
<stop offset="0.582" stop-color="#F9EF89"/>
<stop offset="0.6349" stop-color="#F9EF89"/>
<stop offset="0.7502" stop-color="#F3CC5B"/>
<stop offset="0.7693" stop-color="#F3CC5B"/>
<stop offset="0.8265" stop-color="#E4B94C"/>
<stop offset="0.8526" stop-color="#E4B94C"/>
<stop offset="1" stop-color="#BB8723"/>
</linearGradient>
<linearGradient id="paint6_linear_9_12604" x1="76.6524" y1="19.5624" x2="90.2458" y2="19.5624" gradientUnits="userSpaceOnUse">
<stop stop-color="#E8B23F"/>
<stop offset="0.0323" stop-color="#E8B23F"/>
<stop offset="0.0704" stop-color="#F9CA65"/>
<stop offset="0.0821" stop-color="#F9CA65"/>
<stop offset="0.2249" stop-color="#DDAC41"/>
<stop offset="0.2541" stop-color="#DDAC41"/>
<stop offset="0.2542" stop-color="#DDAC41"/>
<stop offset="0.4354" stop-color="#F7D46A"/>
<stop offset="0.582" stop-color="#F9EF89"/>
<stop offset="0.6349" stop-color="#F9EF89"/>
<stop offset="0.7502" stop-color="#F3CC5B"/>
<stop offset="0.7693" stop-color="#F3CC5B"/>
<stop offset="0.8265" stop-color="#E4B94C"/>
<stop offset="0.8526" stop-color="#E4B94C"/>
<stop offset="1" stop-color="#BB8723"/>
</linearGradient>
<linearGradient id="paint7_linear_9_12604" x1="61.8597" y1="31.8282" x2="83.1216" y2="31.8282" gradientUnits="userSpaceOnUse">
<stop stop-color="#E8B23F"/>
<stop offset="0.0323" stop-color="#E8B23F"/>
<stop offset="0.0704" stop-color="#F9CA65"/>
<stop offset="0.0821" stop-color="#F9CA65"/>
<stop offset="0.2249" stop-color="#DDAC41"/>
<stop offset="0.2541" stop-color="#DDAC41"/>
<stop offset="0.2542" stop-color="#DDAC41"/>
<stop offset="0.4354" stop-color="#F7D46A"/>
<stop offset="0.582" stop-color="#F9EF89"/>
<stop offset="0.6349" stop-color="#F9EF89"/>
<stop offset="0.7502" stop-color="#F3CC5B"/>
<stop offset="0.7693" stop-color="#F3CC5B"/>
<stop offset="0.8265" stop-color="#E4B94C"/>
<stop offset="0.8526" stop-color="#E4B94C"/>
<stop offset="1" stop-color="#BB8723"/>
</linearGradient>
</defs>
</svg>
