<svg width="26" height="34" viewBox="0 0 26 34" fill="none" xmlns="http://www.w3.org/2000/svg">
<path fill-rule="evenodd" clip-rule="evenodd" d="M10.6347 21.7959C10.6076 21.8875 10.5839 21.9686 10.5635 22.0462C9.41691 26.7143 9.2914 27.7508 8.11088 29.9192C7.54776 30.9487 6.91679 31.9253 6.21798 32.8596C6.13996 32.9654 6.06533 33.1029 5.90589 33.0677C5.73288 33.0289 5.71931 32.8667 5.70235 32.7257C5.51238 31.3083 5.41061 29.8839 5.45471 28.4525C5.51578 26.5873 5.73627 25.9457 8.04982 15.8338C8.08374 15.6787 8.04643 15.5518 7.99554 15.4107C7.4426 13.8559 7.33405 12.2834 7.81575 10.6827C8.86397 7.23455 12.626 6.97012 13.2841 9.8154C13.6878 11.5747 12.6158 13.8806 11.7949 17.2829C11.1131 20.0929 14.295 22.0885 17.0157 20.04C19.5226 18.1502 20.4961 13.6161 20.313 10.4042C19.9466 4.00145 13.1891 2.61583 8.90129 4.67839C3.98585 7.04064 2.86979 13.3729 5.08835 16.2675C5.36991 16.6342 5.58701 16.8598 5.49542 17.2336C5.35295 17.8118 5.22743 18.397 5.07139 18.9717C4.95605 19.4019 4.61003 19.557 4.19278 19.3807C3.37524 19.0387 2.69339 18.4958 2.14044 17.7836C0.254327 15.3579 -0.285048 10.5593 2.20829 6.49767C4.96962 1.99883 10.1022 0.179544 14.7937 0.729559C20.3944 1.3924 23.9325 5.36944 24.5974 9.87886C24.8993 11.9344 24.6822 17.0009 21.9073 20.583C18.7152 24.6976 13.5386 24.9726 11.1504 22.4446C10.9604 22.2542 10.8145 22.025 10.6347 21.7959Z" stroke="#2A3234" stroke-miterlimit="10"/>
</svg>
