<svg xmlns="http://www.w3.org/2000/svg" viewBox="0 0 25.17 33.44"><defs><style>.cls-1{fill:none;stroke:#a69374;stroke-miterlimit:10;}</style></defs><g id="Camada_2" data-name="Camada 2"><g id="Camada_1-2" data-name="Camada 1"><path class="cls-1" d="M10.61,21.66c0,.09,0,.17-.07.25-1.15,4.67-1.28,5.71-2.46,7.87a24.61,24.61,0,0,1-1.89,2.95c-.08.1-.15.24-.31.2s-.19-.2-.2-.34a25.44,25.44,0,0,1-.25-4.27c.06-1.87.28-2.51,2.59-12.62a.67.67,0,0,0,0-.42,7.44,7.44,0,0,1-.18-4.73c1-3.45,4.81-3.71,5.47-.87.4,1.76-.67,4.07-1.49,7.47C11.09,20,14.27,22,17,19.91c2.51-1.89,3.48-6.43,3.3-9.64-.37-6.4-7.13-7.79-11.42-5.73-4.91,2.37-6,8.7-3.81,11.59.28.37.5.6.41,1-.14.58-.27,1.16-.43,1.74a.59.59,0,0,1-.87.41,5.19,5.19,0,0,1-2.06-1.6C.23,15.22-.31,10.43,2.18,6.36A12.84,12.84,0,0,1,14.77.6a10.82,10.82,0,0,1,9.8,9.14c.3,2.06.08,7.13-2.69,10.71-3.19,4.11-8.37,4.39-10.76,1.86A7,7,0,0,1,10.61,21.66Z"/></g></g></svg>