<svg width="25" height="29" viewBox="0 0 25 29" fill="none" xmlns="http://www.w3.org/2000/svg">
<path d="M4.73998 1.81993L5.38 1.3599C6.13 0.809904 7.11996 0.889896 7.58996 1.5399L9.61999 4.33995C10.09 4.98995 9.85997 5.94992 9.09997 6.49992L8.45995 6.95994C6.24995 8.55994 6.68993 12.9299 9.43993 16.7199C12.1899 20.5099 16.21 22.2799 18.42 20.6699L19.0601 20.2099C19.8101 19.6599 20.8 19.7399 21.27 20.3899L23.3 23.1899C23.77 23.8399 23.54 24.7999 22.78 25.3499L22.14 25.8099L21.14 26.5399C17.28 29.3499 10.24 26.2499 5.43005 19.6199C0.620046 12.9899 -0.150037 5.3499 3.71996 2.5399L4.73998 1.81993Z" stroke="#005C4B" stroke-width="1.25" stroke-miterlimit="10" stroke-linecap="round" stroke-linejoin="round"/>
</svg>
