<svg id="SvgjsSvg1022" width="288" height="288" xmlns="http://www.w3.org/2000/svg" version="1.1" xmlns:xlink="http://www.w3.org/1999/xlink" xmlns:svgjs="http://svgjs.com/svgjs"><defs id="SvgjsDefs1023"></defs><g id="SvgjsG1024"><svg xmlns="http://www.w3.org/2000/svg" fill="none" viewBox="0 0 35 31" width="288" height="288"><path fill="#ffffff" d="M11.6894 17.3008C11.6224 17.3008 11.5554 17.2909 11.4884 17.2711L1.24431 14.2401C0.855214 14.1246 0.63196 13.7053 0.743587 13.3024C0.855214 12.8996 1.25069 12.6619 1.64936 12.7841L11.8935 15.815C12.2826 15.9306 12.5058 16.3499 12.3942 16.7527C12.2985 17.0862 12.0083 17.3008 11.6894 17.3008Z" class="color2A3234 svgShape"></path><path fill="#ffffff" d="M26.3192 30.9366C26.1438 30.9366 25.9683 30.8739 25.828 30.7418L11.1954 17.1058C10.8956 16.8252 10.87 16.3464 11.1411 16.0361C11.4154 15.7257 11.8747 15.7026 12.1745 15.9799L26.8071 29.6159C27.1069 29.8966 27.1325 30.3753 26.8614 30.6857C26.7178 30.8508 26.5201 30.9366 26.3192 30.9366Z" class="color2A3234 svgShape"></path><path fill="#ffffff" d="M11.6874 29.4213C11.2823 29.4213 10.957 29.0812 10.957 28.6652V16.5447C10.957 16.1253 11.2855 15.7886 11.6874 15.7886C12.0924 15.7886 12.4177 16.1286 12.4177 16.5447V28.6619C12.4177 29.0812 12.0892 29.4213 11.6874 29.4213Z" class="color2A3234 svgShape"></path><path fill="#ffffff" d="M11.6894 29.4214C11.4407 29.4214 11.1983 29.2894 11.0611 29.0517 10.8538 28.6951 10.9655 28.2262 11.3131 28.0116L18.6294 23.4652C18.9739 23.2506 19.4236 23.3661 19.6341 23.726 19.8414 24.0826 19.7297 24.5515 19.3821 24.7661L12.0658 29.3125C11.9478 29.3851 11.817 29.4214 11.6894 29.4214zM11.6891 18.8161C11.4658 18.8161 11.2426 18.7105 11.099 18.5058 10.8598 18.169 10.93 17.6935 11.2553 17.4459L33.2075.782272C33.5296.534645 33.9921.607282 34.2313.944055 34.4705 1.28083 34.4003 1.75627 34.075 2.0039L12.1196 18.6708C11.9921 18.7699 11.839 18.8161 11.6891 18.8161z" class="color2A3234 svgShape"></path><path fill="#ffffff" d="M26.3219 30.9368C26.2613 30.9368 26.1975 30.9301 26.1369 30.9103C25.7446 30.8047 25.5118 30.3887 25.6138 29.9859L32.9302 1.20171C33.0322 0.7956 33.4405 0.551274 33.8232 0.66023C34.2155 0.765884 34.4483 1.1819 34.3462 1.5847L27.0299 30.3689C26.9438 30.7089 26.6472 30.9368 26.3219 30.9368Z" class="color2A3234 svgShape"></path><path fill="#ffffff" d="M1.44375 14.27C1.14396 14.27 0.863296 14.0785 0.754859 13.7714C0.617717 13.3785 0.812267 12.9427 1.1918 12.8007L33.3881 0.683507C33.7708 0.538233 34.1886 0.742938 34.3258 1.13584C34.4629 1.52874 34.2684 1.96456 33.8888 2.10654L1.69252 14.2271C1.6096 14.2568 1.52668 14.27 1.44375 14.27Z" class="color2A3234 svgShape"></path></svg></g></svg>