<svg width="30" height="36" viewBox="0 0 30 36" fill="none" xmlns="http://www.w3.org/2000/svg">
<path d="M22.3365 16.671C22.1975 16.5988 22.0555 16.5332 21.9135 16.4675C21.6634 11.593 19.1563 8.79952 14.948 8.76997C14.9294 8.76997 14.9109 8.76997 14.8924 8.76997C12.376 8.76997 10.2827 9.9123 8.9921 11.9901L11.3078 13.6774C12.2711 12.1247 13.7809 11.7932 14.8955 11.7932C14.9078 11.7932 14.9202 11.7932 14.9325 11.7932C16.3188 11.803 17.3655 12.2298 18.0417 13.0668C18.5357 13.6741 18.863 14.5144 19.0266 15.5747C17.7978 15.3515 16.4701 15.2858 15.0499 15.3712C11.0484 15.6173 8.47648 18.0989 8.64938 21.5456C8.73584 23.2952 9.55712 24.7986 10.9558 25.7834C12.1383 26.6139 13.6636 27.0209 15.2505 26.929C17.3439 26.8075 18.9865 25.9573 20.132 24.4047C21.0026 23.2263 21.5522 21.6999 21.7961 19.773C22.7934 20.4131 23.5313 21.2535 23.942 22.2678C24.6367 23.9878 24.6768 26.8174 22.5063 29.1217C20.6044 31.1405 18.3196 32.0136 14.8646 32.0432C11.033 32.0136 8.13376 30.7072 6.25036 28.1599C4.47811 25.7768 3.56729 22.3334 3.53333 17.925C3.56729 13.5165 4.47811 10.0731 6.24419 7.68673C8.12759 5.13948 11.0268 3.83303 14.8584 3.80349C18.7179 3.83303 21.6665 5.14605 23.624 7.70643C24.5842 8.96036 25.3067 10.5393 25.7822 12.3775L28.4961 11.6094C27.9187 9.34442 27.0079 7.39459 25.7729 5.7763C23.2596 2.49376 19.5916 0.813099 14.8646 0.780273H14.8461C10.1283 0.816381 6.50354 2.50361 4.06747 5.79599C1.90002 8.72402 0.779238 12.8009 0.742188 17.9118V17.925V17.9381C0.779238 23.049 1.89693 27.1259 4.06747 30.0572C6.50354 33.3496 10.1314 35.0368 14.8461 35.073H14.8646C19.0575 35.0434 22.0123 33.8748 24.4483 31.2882C27.6347 27.9039 27.539 23.6628 26.4892 21.0565C25.7358 19.192 24.3001 17.6755 22.3365 16.671ZM15.0962 23.909C13.3424 24.0141 11.5208 23.177 11.4313 21.3848C11.3633 20.0553 12.3205 18.5716 15.2042 18.3944C15.5346 18.3747 15.8588 18.3648 16.1768 18.3648C17.2235 18.3648 18.2053 18.4732 19.0945 18.68C18.7611 23.0917 16.8128 23.8106 15.0962 23.909Z" stroke="#2A3234" stroke-miterlimit="10"/>
</svg>
