<svg width="27" height="33" viewBox="0 0 27 33" fill="none" xmlns="http://www.w3.org/2000/svg">
<path d="M26.4651 13.5305C26.2176 13.5558 25.9672 13.5685 25.7198 13.5685C22.989 13.5685 20.4385 12.1377 18.9448 9.76472V22.7179C18.9448 28.0065 14.8182 32.2925 9.72633 32.2925C4.63446 32.2925 0.507812 28.0065 0.507812 22.7179C0.507812 17.4294 4.63446 13.1434 9.72633 13.1434C9.91876 13.1434 10.1081 13.1624 10.2945 13.1751V17.8926C10.1051 17.8704 9.91876 17.8323 9.72633 17.8323C7.12694 17.8323 5.02238 20.0213 5.02238 22.7179C5.02238 25.4177 7.12999 27.6036 9.72633 27.6036C12.3257 27.6036 14.6197 25.478 14.6197 22.7782L14.6655 0.780273H19.012C19.4213 4.83152 22.5614 7.99131 26.4712 8.28952V13.5336" stroke="#2A3234" stroke-miterlimit="10"/>
</svg>
