<svg xmlns="http://www.w3.org/2000/svg" viewBox="0 0 26.96 32.51"><defs><style>.cls-1{fill:none;stroke:#f7d46a;stroke-miterlimit:10;}</style></defs><g id="Camada_2" data-name="Camada 2"><g id="Camada_1-2" data-name="Camada 1"><path class="cls-1" d="M26.46,13.25a6.28,6.28,0,0,1-.75,0,8,8,0,0,1-6.77-3.81v13A9.4,9.4,0,0,1,9.72,32,9.4,9.4,0,0,1,.5,22.44a9.41,9.41,0,0,1,9.22-9.58l.57,0v4.72a5.51,5.51,0,0,0-.57-.06,4.89,4.89,0,0,0,0,9.77,4.9,4.9,0,0,0,4.89-4.82l.05-22H19A8.25,8.25,0,0,0,26.46,8v5.24"/></g></g></svg>