<svg width="30" height="29" viewBox="0 0 30 29" fill="none" xmlns="http://www.w3.org/2000/svg">
<path d="M15.51 27.88C13.17 27.87 10.88 27.28 8.83997 26.16L1.44995 28.07L3.40002 20.98C2.15002 18.92 1.46995 16.56 1.44995 14.16C1.46995 6.59996 7.73996 0.490007 15.46 0.520007C23.18 0.540007 29.41 6.67998 29.39 14.24C29.36 21.74 23.17 27.82 15.51 27.88Z" stroke="white" stroke-miterlimit="8" stroke-linecap="round" stroke-linejoin="round"/>
<path d="M22.32 19.09C21.8 19.93 20.95 20.52 19.97 20.71C19.24 20.84 18.5001 20.79 17.7901 20.58C17.1301 20.38 16.48 20.14 15.84 19.86C13.43 18.68 11.3801 16.91 9.89006 14.71C9.08006 13.7 8.58001 12.47 8.47001 11.18C8.45001 10.1 8.88999 9.06001 9.69999 8.32001C9.93999 8.06001 10.28 7.90002 10.63 7.90002H11.1701C11.3801 7.90002 11.68 7.89999 11.95 8.48999C12.22 9.07999 12.9401 10.85 13.0401 11.02C13.1401 11.21 13.1401 11.43 13.0401 11.61C12.9501 11.82 12.84 12.01 12.69 12.18C12.51 12.39 12.3201 12.64 12.1601 12.79C12.0001 12.94 11.81 13.13 12 13.48C12.53 14.36 13.18 15.15 13.95 15.84C14.78 16.56 15.73 17.13 16.75 17.54C17.1 17.71 17.3101 17.69 17.5101 17.54C17.7001 17.39 18.39 16.55 18.62 16.21C18.85 15.87 19.0901 15.92 19.4001 16.04C19.7101 16.15 21.4401 16.97 21.7901 17.15C22.1401 17.32 22.35 17.4 22.45 17.55C22.53 18.05 22.4901 18.56 22.3101 19.04V19.09H22.32Z" stroke="white" stroke-miterlimit="8" stroke-linecap="round" stroke-linejoin="round"/>
</svg>
