<svg xmlns="http://www.w3.org/2000/svg" viewBox="0 0 28.94 28.55"><defs><style>.cls-1{fill:none;stroke:#f7d46a;stroke-linecap:round;stroke-linejoin:round;}</style></defs><g id="Camada_2" data-name="Camada 2"><g id="Camada_1-2" data-name="Camada 1"><path class="cls-1" d="M14.56,27.86a14,14,0,0,1-6.67-1.72L.5,28.05l2-7.09A13.38,13.38,0,0,1,.5,14.14,13.82,13.82,0,0,1,14.51.5,13.82,13.82,0,0,1,28.44,14.22,13.85,13.85,0,0,1,14.56,27.86Z"/><path class="cls-1" d="M21.37,19.07A3.56,3.56,0,0,1,19,20.69a4.73,4.73,0,0,1-2.18-.13,17.59,17.59,0,0,1-1.95-.72,15.29,15.29,0,0,1-6-5.15,6.54,6.54,0,0,1-1.42-3.53A3.77,3.77,0,0,1,8.75,8.3a1.28,1.28,0,0,1,.93-.42h.54c.21,0,.51,0,.78.59s1,2.36,1.09,2.53a.62.62,0,0,1,0,.59,2.08,2.08,0,0,1-.35.57c-.18.21-.37.46-.53.61a.5.5,0,0,0-.16.69A10.27,10.27,0,0,0,13,15.82a9.91,9.91,0,0,0,2.8,1.7.65.65,0,0,0,.76,0,11,11,0,0,0,1.11-1.33c.23-.34.47-.29.78-.17s2,.93,2.39,1.11.56.25.66.4A2.91,2.91,0,0,1,21.36,19v.05Z"/></g></g></svg>